; NON-PLATED HOLES START AT T1
; THROUGH (PLATED) HOLES START AT T100
M48
INCH
T1C0.125984
T100C0.027559
T101C0.038000
%
T1
X013487Y034798
X002464Y001845
X001322Y034877
X011913Y001845
T100
X011007Y023302
X012582Y023302
X011007Y028656
X012582Y028656
X010220Y023302
X010220Y028656
X011795Y023302
X011795Y028656
T101
X012431Y014281
X002430Y014281
X012431Y006281
X012431Y019281
X002430Y006281
X002430Y019281
X012431Y012281
X002430Y012281
X012431Y017281
X002430Y017281
X012431Y009281
X002430Y009281
X012431Y010281
X002430Y010281
X012431Y015281
X002430Y015281
X012431Y007281
X002430Y007281
X004645Y027475
X002645Y027475
X012431Y013281
X003645Y027475
X001645Y027475
X002430Y013281
X012431Y005281
X012431Y018281
X002430Y005281
X002430Y018281
X012431Y011281
X002430Y011281
X012431Y016281
X002430Y016281
X012431Y008281
X002430Y008281
T00
M30
