G04 MADE WITH FRITZING*
G04 WWW.FRITZING.ORG*
G04 DOUBLE SIDED*
G04 HOLES PLATED*
G04 CONTOUR ON CENTER OF CONTOUR VECTOR*
%ASAXBY*%
%FSLAX23Y23*%
%MOIN*%
%OFA0B0*%
%SFA1.0B1.0*%
%ADD10C,0.078000*%
%ADD11C,0.047559*%
%ADD12C,0.052000*%
%ADD13C,0.016000*%
%ADD14R,0.001000X0.001000*%
%LNCOPPER1*%
G90*
G70*
G54D10*
X165Y2748D03*
X265Y2748D03*
X365Y2748D03*
X465Y2748D03*
G54D11*
X1022Y2866D03*
X1101Y2866D03*
X1180Y2866D03*
X1258Y2866D03*
X1022Y2866D03*
X1101Y2866D03*
X1180Y2866D03*
X1258Y2866D03*
X1022Y2330D03*
X1101Y2330D03*
X1180Y2330D03*
X1258Y2330D03*
X1022Y2330D03*
X1101Y2330D03*
X1180Y2330D03*
X1258Y2330D03*
G54D12*
X1243Y528D03*
X1243Y628D03*
X1243Y728D03*
X1243Y828D03*
X1243Y928D03*
X1243Y1028D03*
X1243Y1128D03*
X1243Y1228D03*
X1243Y1328D03*
X1243Y1428D03*
X1243Y1528D03*
X1243Y1628D03*
X1243Y1728D03*
X1243Y1828D03*
X1243Y1928D03*
X243Y1928D03*
X243Y1828D03*
X243Y1728D03*
X243Y1628D03*
X243Y1528D03*
X243Y1428D03*
X243Y1328D03*
X243Y1228D03*
X243Y1128D03*
X243Y1028D03*
X243Y928D03*
X243Y828D03*
X243Y728D03*
X243Y628D03*
X243Y528D03*
G54D13*
X1405Y2744D02*
X1405Y3062D01*
D02*
X1405Y3062D02*
X763Y3060D01*
D02*
X763Y2593D02*
X558Y2597D01*
D02*
X558Y2597D02*
X478Y2727D01*
D02*
X1403Y2224D02*
X1405Y2744D01*
D02*
X1403Y1826D02*
X1403Y2224D01*
D02*
X763Y3060D02*
X763Y2593D01*
D02*
X1268Y1828D02*
X1403Y1826D01*
D02*
X1259Y2227D02*
X1258Y2311D01*
D02*
X1403Y2224D02*
X1259Y2227D01*
D02*
X999Y2772D02*
X1017Y2847D01*
D02*
X876Y2772D02*
X999Y2772D01*
D02*
X875Y2439D02*
X876Y2772D01*
D02*
X262Y2607D02*
X268Y2439D01*
D02*
X875Y2439D02*
X1006Y2342D01*
D02*
X268Y2439D02*
X875Y2439D01*
D02*
X268Y2439D02*
X116Y2317D01*
D02*
X116Y2317D02*
X105Y739D01*
D02*
X105Y739D02*
X224Y643D01*
D02*
X179Y2727D02*
X262Y2607D01*
D02*
X1258Y2744D02*
X1258Y2846D01*
D02*
X1405Y2744D02*
X1258Y2744D01*
G54D14*
X216Y1955D02*
X272Y1955D01*
X1214Y1955D02*
X1269Y1955D01*
X211Y1954D02*
X277Y1954D01*
X1209Y1954D02*
X1275Y1954D01*
X208Y1953D02*
X280Y1953D01*
X1206Y1953D02*
X1277Y1953D01*
X206Y1952D02*
X282Y1952D01*
X1204Y1952D02*
X1279Y1952D01*
X205Y1951D02*
X283Y1951D01*
X1202Y1951D02*
X1281Y1951D01*
X203Y1950D02*
X285Y1950D01*
X1201Y1950D02*
X1282Y1950D01*
X202Y1949D02*
X286Y1949D01*
X1200Y1949D02*
X1284Y1949D01*
X201Y1948D02*
X287Y1948D01*
X1198Y1948D02*
X1285Y1948D01*
X200Y1947D02*
X288Y1947D01*
X1197Y1947D02*
X1286Y1947D01*
X199Y1946D02*
X289Y1946D01*
X1196Y1946D02*
X1287Y1946D01*
X198Y1945D02*
X243Y1945D01*
X245Y1945D02*
X290Y1945D01*
X1196Y1945D02*
X1239Y1945D01*
X1242Y1945D02*
X1287Y1945D01*
X197Y1944D02*
X238Y1944D01*
X250Y1944D02*
X291Y1944D01*
X1195Y1944D02*
X1234Y1944D01*
X1247Y1944D02*
X1288Y1944D01*
X197Y1943D02*
X236Y1943D01*
X253Y1943D02*
X291Y1943D01*
X1194Y1943D02*
X1232Y1943D01*
X1249Y1943D02*
X1289Y1943D01*
X196Y1942D02*
X234Y1942D01*
X254Y1942D02*
X292Y1942D01*
X1194Y1942D02*
X1231Y1942D01*
X1251Y1942D02*
X1289Y1942D01*
X196Y1941D02*
X233Y1941D01*
X255Y1941D02*
X292Y1941D01*
X1193Y1941D02*
X1230Y1941D01*
X1252Y1941D02*
X1290Y1941D01*
X195Y1940D02*
X232Y1940D01*
X256Y1940D02*
X293Y1940D01*
X1193Y1940D02*
X1228Y1940D01*
X1253Y1940D02*
X1291Y1940D01*
X195Y1939D02*
X231Y1939D01*
X257Y1939D02*
X294Y1939D01*
X1192Y1939D02*
X1228Y1939D01*
X1254Y1939D02*
X1291Y1939D01*
X194Y1938D02*
X230Y1938D01*
X258Y1938D02*
X294Y1938D01*
X1192Y1938D02*
X1227Y1938D01*
X1255Y1938D02*
X1291Y1938D01*
X194Y1937D02*
X230Y1937D01*
X259Y1937D02*
X294Y1937D01*
X1191Y1937D02*
X1226Y1937D01*
X1255Y1937D02*
X1292Y1937D01*
X193Y1936D02*
X229Y1936D01*
X259Y1936D02*
X295Y1936D01*
X1191Y1936D02*
X1226Y1936D01*
X1256Y1936D02*
X1292Y1936D01*
X193Y1935D02*
X229Y1935D01*
X260Y1935D02*
X295Y1935D01*
X1191Y1935D02*
X1225Y1935D01*
X1256Y1935D02*
X1292Y1935D01*
X193Y1934D02*
X228Y1934D01*
X260Y1934D02*
X295Y1934D01*
X1191Y1934D02*
X1225Y1934D01*
X1257Y1934D02*
X1293Y1934D01*
X193Y1933D02*
X228Y1933D01*
X260Y1933D02*
X295Y1933D01*
X1190Y1933D02*
X1225Y1933D01*
X1257Y1933D02*
X1293Y1933D01*
X193Y1932D02*
X228Y1932D01*
X260Y1932D02*
X295Y1932D01*
X1190Y1932D02*
X1224Y1932D01*
X1257Y1932D02*
X1293Y1932D01*
X193Y1931D02*
X228Y1931D01*
X261Y1931D02*
X295Y1931D01*
X1190Y1931D02*
X1224Y1931D01*
X1257Y1931D02*
X1293Y1931D01*
X193Y1930D02*
X227Y1930D01*
X261Y1930D02*
X295Y1930D01*
X1190Y1930D02*
X1224Y1930D01*
X1257Y1930D02*
X1293Y1930D01*
X193Y1929D02*
X227Y1929D01*
X261Y1929D02*
X295Y1929D01*
X1190Y1929D02*
X1224Y1929D01*
X1257Y1929D02*
X1293Y1929D01*
X193Y1928D02*
X227Y1928D01*
X261Y1928D02*
X295Y1928D01*
X1190Y1928D02*
X1224Y1928D01*
X1257Y1928D02*
X1293Y1928D01*
X193Y1927D02*
X228Y1927D01*
X261Y1927D02*
X295Y1927D01*
X1190Y1927D02*
X1224Y1927D01*
X1257Y1927D02*
X1293Y1927D01*
X193Y1926D02*
X228Y1926D01*
X260Y1926D02*
X295Y1926D01*
X1190Y1926D02*
X1224Y1926D01*
X1257Y1926D02*
X1293Y1926D01*
X193Y1925D02*
X228Y1925D01*
X260Y1925D02*
X295Y1925D01*
X1190Y1925D02*
X1225Y1925D01*
X1257Y1925D02*
X1293Y1925D01*
X193Y1924D02*
X228Y1924D01*
X260Y1924D02*
X295Y1924D01*
X1191Y1924D02*
X1225Y1924D01*
X1257Y1924D02*
X1292Y1924D01*
X193Y1923D02*
X229Y1923D01*
X260Y1923D02*
X295Y1923D01*
X1191Y1923D02*
X1225Y1923D01*
X1256Y1923D02*
X1292Y1923D01*
X194Y1922D02*
X229Y1922D01*
X259Y1922D02*
X294Y1922D01*
X1191Y1922D02*
X1226Y1922D01*
X1256Y1922D02*
X1292Y1922D01*
X194Y1921D02*
X230Y1921D01*
X259Y1921D02*
X294Y1921D01*
X1191Y1921D02*
X1226Y1921D01*
X1255Y1921D02*
X1292Y1921D01*
X194Y1920D02*
X230Y1920D01*
X258Y1920D02*
X294Y1920D01*
X1192Y1920D02*
X1227Y1920D01*
X1255Y1920D02*
X1291Y1920D01*
X195Y1919D02*
X231Y1919D01*
X257Y1919D02*
X293Y1919D01*
X1192Y1919D02*
X1228Y1919D01*
X1254Y1919D02*
X1291Y1919D01*
X195Y1918D02*
X232Y1918D01*
X256Y1918D02*
X293Y1918D01*
X1193Y1918D02*
X1229Y1918D01*
X1253Y1918D02*
X1290Y1918D01*
X196Y1917D02*
X233Y1917D01*
X255Y1917D02*
X292Y1917D01*
X1193Y1917D02*
X1230Y1917D01*
X1252Y1917D02*
X1290Y1917D01*
X196Y1916D02*
X234Y1916D01*
X254Y1916D02*
X292Y1916D01*
X1194Y1916D02*
X1231Y1916D01*
X1251Y1916D02*
X1289Y1916D01*
X197Y1915D02*
X236Y1915D01*
X252Y1915D02*
X291Y1915D01*
X1194Y1915D02*
X1233Y1915D01*
X1249Y1915D02*
X1289Y1915D01*
X197Y1914D02*
X238Y1914D01*
X250Y1914D02*
X291Y1914D01*
X1195Y1914D02*
X1235Y1914D01*
X1247Y1914D02*
X1288Y1914D01*
X198Y1913D02*
X290Y1913D01*
X1196Y1913D02*
X1287Y1913D01*
X199Y1912D02*
X289Y1912D01*
X1197Y1912D02*
X1286Y1912D01*
X200Y1911D02*
X288Y1911D01*
X1197Y1911D02*
X1286Y1911D01*
X201Y1910D02*
X287Y1910D01*
X1199Y1910D02*
X1284Y1910D01*
X202Y1909D02*
X286Y1909D01*
X1200Y1909D02*
X1283Y1909D01*
X203Y1908D02*
X285Y1908D01*
X1201Y1908D02*
X1282Y1908D01*
X205Y1907D02*
X283Y1907D01*
X1203Y1907D02*
X1280Y1907D01*
X207Y1906D02*
X281Y1906D01*
X1204Y1906D02*
X1279Y1906D01*
X209Y1905D02*
X279Y1905D01*
X1206Y1905D02*
X1277Y1905D01*
X212Y1904D02*
X276Y1904D01*
X1210Y1904D02*
X1274Y1904D01*
X216Y1855D02*
X272Y1855D01*
X1214Y1855D02*
X1270Y1855D01*
X211Y1854D02*
X277Y1854D01*
X1209Y1854D02*
X1275Y1854D01*
X208Y1853D02*
X280Y1853D01*
X1206Y1853D02*
X1277Y1853D01*
X206Y1852D02*
X282Y1852D01*
X1204Y1852D02*
X1279Y1852D01*
X205Y1851D02*
X283Y1851D01*
X1202Y1851D02*
X1281Y1851D01*
X203Y1850D02*
X285Y1850D01*
X1201Y1850D02*
X1282Y1850D01*
X202Y1849D02*
X286Y1849D01*
X1199Y1849D02*
X1284Y1849D01*
X201Y1848D02*
X287Y1848D01*
X1198Y1848D02*
X1285Y1848D01*
X200Y1847D02*
X288Y1847D01*
X1197Y1847D02*
X1286Y1847D01*
X199Y1846D02*
X289Y1846D01*
X1196Y1846D02*
X1287Y1846D01*
X198Y1845D02*
X242Y1845D01*
X246Y1845D02*
X290Y1845D01*
X1196Y1845D02*
X1239Y1845D01*
X1243Y1845D02*
X1288Y1845D01*
X197Y1844D02*
X238Y1844D01*
X250Y1844D02*
X291Y1844D01*
X1195Y1844D02*
X1234Y1844D01*
X1247Y1844D02*
X1288Y1844D01*
X197Y1843D02*
X236Y1843D01*
X253Y1843D02*
X291Y1843D01*
X1194Y1843D02*
X1232Y1843D01*
X1249Y1843D02*
X1289Y1843D01*
X196Y1842D02*
X234Y1842D01*
X254Y1842D02*
X292Y1842D01*
X1194Y1842D02*
X1231Y1842D01*
X1251Y1842D02*
X1290Y1842D01*
X196Y1841D02*
X233Y1841D01*
X255Y1841D02*
X293Y1841D01*
X1193Y1841D02*
X1230Y1841D01*
X1252Y1841D02*
X1290Y1841D01*
X195Y1840D02*
X232Y1840D01*
X256Y1840D02*
X293Y1840D01*
X1193Y1840D02*
X1228Y1840D01*
X1253Y1840D02*
X1291Y1840D01*
X194Y1839D02*
X231Y1839D01*
X257Y1839D02*
X294Y1839D01*
X1192Y1839D02*
X1228Y1839D01*
X1254Y1839D02*
X1291Y1839D01*
X194Y1838D02*
X230Y1838D01*
X258Y1838D02*
X294Y1838D01*
X1192Y1838D02*
X1227Y1838D01*
X1255Y1838D02*
X1291Y1838D01*
X194Y1837D02*
X229Y1837D01*
X259Y1837D02*
X294Y1837D01*
X1191Y1837D02*
X1226Y1837D01*
X1255Y1837D02*
X1292Y1837D01*
X193Y1836D02*
X229Y1836D01*
X259Y1836D02*
X295Y1836D01*
X1191Y1836D02*
X1226Y1836D01*
X1256Y1836D02*
X1292Y1836D01*
X193Y1835D02*
X229Y1835D01*
X260Y1835D02*
X295Y1835D01*
X1191Y1835D02*
X1225Y1835D01*
X1256Y1835D02*
X1292Y1835D01*
X193Y1834D02*
X228Y1834D01*
X260Y1834D02*
X295Y1834D01*
X1191Y1834D02*
X1225Y1834D01*
X1257Y1834D02*
X1293Y1834D01*
X193Y1833D02*
X228Y1833D01*
X260Y1833D02*
X295Y1833D01*
X1190Y1833D02*
X1225Y1833D01*
X1257Y1833D02*
X1293Y1833D01*
X193Y1832D02*
X228Y1832D01*
X260Y1832D02*
X295Y1832D01*
X1190Y1832D02*
X1224Y1832D01*
X1257Y1832D02*
X1293Y1832D01*
X193Y1831D02*
X228Y1831D01*
X261Y1831D02*
X295Y1831D01*
X1190Y1831D02*
X1224Y1831D01*
X1257Y1831D02*
X1293Y1831D01*
X193Y1830D02*
X227Y1830D01*
X261Y1830D02*
X295Y1830D01*
X1190Y1830D02*
X1224Y1830D01*
X1257Y1830D02*
X1293Y1830D01*
X193Y1829D02*
X227Y1829D01*
X261Y1829D02*
X295Y1829D01*
X1190Y1829D02*
X1224Y1829D01*
X1257Y1829D02*
X1293Y1829D01*
X193Y1828D02*
X227Y1828D01*
X261Y1828D02*
X295Y1828D01*
X1190Y1828D02*
X1224Y1828D01*
X1257Y1828D02*
X1293Y1828D01*
X193Y1827D02*
X228Y1827D01*
X261Y1827D02*
X295Y1827D01*
X1190Y1827D02*
X1224Y1827D01*
X1257Y1827D02*
X1293Y1827D01*
X193Y1826D02*
X228Y1826D01*
X260Y1826D02*
X295Y1826D01*
X1190Y1826D02*
X1224Y1826D01*
X1257Y1826D02*
X1293Y1826D01*
X193Y1825D02*
X228Y1825D01*
X260Y1825D02*
X295Y1825D01*
X1190Y1825D02*
X1225Y1825D01*
X1257Y1825D02*
X1293Y1825D01*
X193Y1824D02*
X228Y1824D01*
X260Y1824D02*
X295Y1824D01*
X1191Y1824D02*
X1225Y1824D01*
X1257Y1824D02*
X1293Y1824D01*
X193Y1823D02*
X229Y1823D01*
X260Y1823D02*
X295Y1823D01*
X1191Y1823D02*
X1225Y1823D01*
X1256Y1823D02*
X1292Y1823D01*
X194Y1822D02*
X229Y1822D01*
X259Y1822D02*
X294Y1822D01*
X1191Y1822D02*
X1226Y1822D01*
X1256Y1822D02*
X1292Y1822D01*
X194Y1821D02*
X230Y1821D01*
X259Y1821D02*
X294Y1821D01*
X1191Y1821D02*
X1226Y1821D01*
X1255Y1821D02*
X1292Y1821D01*
X194Y1820D02*
X230Y1820D01*
X258Y1820D02*
X294Y1820D01*
X1192Y1820D02*
X1227Y1820D01*
X1255Y1820D02*
X1291Y1820D01*
X195Y1819D02*
X231Y1819D01*
X257Y1819D02*
X293Y1819D01*
X1192Y1819D02*
X1228Y1819D01*
X1254Y1819D02*
X1291Y1819D01*
X195Y1818D02*
X232Y1818D01*
X256Y1818D02*
X293Y1818D01*
X1193Y1818D02*
X1229Y1818D01*
X1253Y1818D02*
X1290Y1818D01*
X196Y1817D02*
X233Y1817D01*
X255Y1817D02*
X292Y1817D01*
X1193Y1817D02*
X1230Y1817D01*
X1252Y1817D02*
X1290Y1817D01*
X196Y1816D02*
X234Y1816D01*
X254Y1816D02*
X292Y1816D01*
X1194Y1816D02*
X1231Y1816D01*
X1251Y1816D02*
X1289Y1816D01*
X197Y1815D02*
X236Y1815D01*
X252Y1815D02*
X291Y1815D01*
X1194Y1815D02*
X1233Y1815D01*
X1249Y1815D02*
X1289Y1815D01*
X197Y1814D02*
X238Y1814D01*
X250Y1814D02*
X291Y1814D01*
X1195Y1814D02*
X1235Y1814D01*
X1247Y1814D02*
X1288Y1814D01*
X198Y1813D02*
X290Y1813D01*
X1196Y1813D02*
X1287Y1813D01*
X199Y1812D02*
X289Y1812D01*
X1197Y1812D02*
X1286Y1812D01*
X200Y1811D02*
X288Y1811D01*
X1198Y1811D02*
X1286Y1811D01*
X201Y1810D02*
X287Y1810D01*
X1199Y1810D02*
X1285Y1810D01*
X202Y1809D02*
X286Y1809D01*
X1200Y1809D02*
X1283Y1809D01*
X204Y1808D02*
X285Y1808D01*
X1201Y1808D02*
X1282Y1808D01*
X205Y1807D02*
X283Y1807D01*
X1203Y1807D02*
X1280Y1807D01*
X207Y1806D02*
X281Y1806D01*
X1204Y1806D02*
X1279Y1806D01*
X209Y1805D02*
X279Y1805D01*
X1207Y1805D02*
X1277Y1805D01*
X212Y1804D02*
X276Y1804D01*
X1210Y1804D02*
X1274Y1804D01*
X216Y1755D02*
X272Y1755D01*
X1213Y1755D02*
X1270Y1755D01*
X211Y1754D02*
X277Y1754D01*
X1208Y1754D02*
X1275Y1754D01*
X208Y1753D02*
X280Y1753D01*
X1206Y1753D02*
X1277Y1753D01*
X206Y1752D02*
X282Y1752D01*
X1204Y1752D02*
X1279Y1752D01*
X205Y1751D02*
X284Y1751D01*
X1202Y1751D02*
X1281Y1751D01*
X203Y1750D02*
X285Y1750D01*
X1201Y1750D02*
X1282Y1750D01*
X202Y1749D02*
X286Y1749D01*
X1199Y1749D02*
X1284Y1749D01*
X201Y1748D02*
X287Y1748D01*
X1198Y1748D02*
X1285Y1748D01*
X200Y1747D02*
X288Y1747D01*
X1197Y1747D02*
X1286Y1747D01*
X199Y1746D02*
X289Y1746D01*
X1196Y1746D02*
X1287Y1746D01*
X198Y1745D02*
X242Y1745D01*
X246Y1745D02*
X290Y1745D01*
X1196Y1745D02*
X1239Y1745D01*
X1243Y1745D02*
X1288Y1745D01*
X197Y1744D02*
X238Y1744D01*
X251Y1744D02*
X291Y1744D01*
X1195Y1744D02*
X1234Y1744D01*
X1247Y1744D02*
X1288Y1744D01*
X197Y1743D02*
X235Y1743D01*
X253Y1743D02*
X291Y1743D01*
X1194Y1743D02*
X1232Y1743D01*
X1249Y1743D02*
X1289Y1743D01*
X196Y1742D02*
X234Y1742D01*
X254Y1742D02*
X292Y1742D01*
X1194Y1742D02*
X1231Y1742D01*
X1251Y1742D02*
X1289Y1742D01*
X196Y1741D02*
X233Y1741D01*
X255Y1741D02*
X293Y1741D01*
X1193Y1741D02*
X1229Y1741D01*
X1252Y1741D02*
X1290Y1741D01*
X195Y1740D02*
X232Y1740D01*
X256Y1740D02*
X293Y1740D01*
X1192Y1740D02*
X1228Y1740D01*
X1253Y1740D02*
X1291Y1740D01*
X194Y1739D02*
X231Y1739D01*
X257Y1739D02*
X294Y1739D01*
X1192Y1739D02*
X1228Y1739D01*
X1254Y1739D02*
X1291Y1739D01*
X194Y1738D02*
X230Y1738D01*
X258Y1738D02*
X294Y1738D01*
X1192Y1738D02*
X1227Y1738D01*
X1255Y1738D02*
X1291Y1738D01*
X194Y1737D02*
X229Y1737D01*
X259Y1737D02*
X294Y1737D01*
X1191Y1737D02*
X1226Y1737D01*
X1255Y1737D02*
X1292Y1737D01*
X193Y1736D02*
X229Y1736D01*
X259Y1736D02*
X295Y1736D01*
X1191Y1736D02*
X1226Y1736D01*
X1256Y1736D02*
X1292Y1736D01*
X193Y1735D02*
X229Y1735D01*
X260Y1735D02*
X295Y1735D01*
X1191Y1735D02*
X1225Y1735D01*
X1256Y1735D02*
X1292Y1735D01*
X193Y1734D02*
X228Y1734D01*
X260Y1734D02*
X295Y1734D01*
X1191Y1734D02*
X1225Y1734D01*
X1257Y1734D02*
X1293Y1734D01*
X193Y1733D02*
X228Y1733D01*
X260Y1733D02*
X295Y1733D01*
X1190Y1733D02*
X1225Y1733D01*
X1257Y1733D02*
X1293Y1733D01*
X193Y1732D02*
X228Y1732D01*
X260Y1732D02*
X295Y1732D01*
X1190Y1732D02*
X1224Y1732D01*
X1257Y1732D02*
X1293Y1732D01*
X193Y1731D02*
X227Y1731D01*
X261Y1731D02*
X295Y1731D01*
X1190Y1731D02*
X1224Y1731D01*
X1257Y1731D02*
X1293Y1731D01*
X193Y1730D02*
X227Y1730D01*
X261Y1730D02*
X295Y1730D01*
X1190Y1730D02*
X1224Y1730D01*
X1257Y1730D02*
X1293Y1730D01*
X193Y1729D02*
X227Y1729D01*
X261Y1729D02*
X295Y1729D01*
X1190Y1729D02*
X1224Y1729D01*
X1257Y1729D02*
X1293Y1729D01*
X193Y1728D02*
X227Y1728D01*
X261Y1728D02*
X295Y1728D01*
X1190Y1728D02*
X1224Y1728D01*
X1257Y1728D02*
X1293Y1728D01*
X193Y1727D02*
X228Y1727D01*
X261Y1727D02*
X295Y1727D01*
X1190Y1727D02*
X1224Y1727D01*
X1257Y1727D02*
X1293Y1727D01*
X193Y1726D02*
X228Y1726D01*
X260Y1726D02*
X295Y1726D01*
X1190Y1726D02*
X1224Y1726D01*
X1257Y1726D02*
X1293Y1726D01*
X193Y1725D02*
X228Y1725D01*
X260Y1725D02*
X295Y1725D01*
X1190Y1725D02*
X1225Y1725D01*
X1257Y1725D02*
X1293Y1725D01*
X193Y1724D02*
X228Y1724D01*
X260Y1724D02*
X295Y1724D01*
X1191Y1724D02*
X1225Y1724D01*
X1257Y1724D02*
X1292Y1724D01*
X193Y1723D02*
X229Y1723D01*
X259Y1723D02*
X295Y1723D01*
X1191Y1723D02*
X1225Y1723D01*
X1256Y1723D02*
X1292Y1723D01*
X194Y1722D02*
X229Y1722D01*
X259Y1722D02*
X294Y1722D01*
X1191Y1722D02*
X1226Y1722D01*
X1256Y1722D02*
X1292Y1722D01*
X194Y1721D02*
X230Y1721D01*
X258Y1721D02*
X294Y1721D01*
X1191Y1721D02*
X1226Y1721D01*
X1255Y1721D02*
X1292Y1721D01*
X194Y1720D02*
X230Y1720D01*
X258Y1720D02*
X294Y1720D01*
X1192Y1720D02*
X1227Y1720D01*
X1255Y1720D02*
X1291Y1720D01*
X195Y1719D02*
X231Y1719D01*
X257Y1719D02*
X293Y1719D01*
X1192Y1719D02*
X1228Y1719D01*
X1254Y1719D02*
X1291Y1719D01*
X195Y1718D02*
X232Y1718D01*
X256Y1718D02*
X293Y1718D01*
X1193Y1718D02*
X1229Y1718D01*
X1253Y1718D02*
X1290Y1718D01*
X196Y1717D02*
X233Y1717D01*
X255Y1717D02*
X292Y1717D01*
X1193Y1717D02*
X1230Y1717D01*
X1252Y1717D02*
X1290Y1717D01*
X196Y1716D02*
X234Y1716D01*
X254Y1716D02*
X292Y1716D01*
X1194Y1716D02*
X1231Y1716D01*
X1251Y1716D02*
X1289Y1716D01*
X197Y1715D02*
X236Y1715D01*
X252Y1715D02*
X291Y1715D01*
X1194Y1715D02*
X1233Y1715D01*
X1249Y1715D02*
X1289Y1715D01*
X198Y1714D02*
X238Y1714D01*
X250Y1714D02*
X291Y1714D01*
X1195Y1714D02*
X1235Y1714D01*
X1247Y1714D02*
X1288Y1714D01*
X198Y1713D02*
X290Y1713D01*
X1196Y1713D02*
X1287Y1713D01*
X199Y1712D02*
X289Y1712D01*
X1197Y1712D02*
X1286Y1712D01*
X200Y1711D02*
X288Y1711D01*
X1198Y1711D02*
X1286Y1711D01*
X201Y1710D02*
X287Y1710D01*
X1199Y1710D02*
X1284Y1710D01*
X202Y1709D02*
X286Y1709D01*
X1200Y1709D02*
X1283Y1709D01*
X204Y1708D02*
X284Y1708D01*
X1201Y1708D02*
X1282Y1708D01*
X205Y1707D02*
X283Y1707D01*
X1203Y1707D02*
X1280Y1707D01*
X207Y1706D02*
X281Y1706D01*
X1205Y1706D02*
X1279Y1706D01*
X209Y1705D02*
X279Y1705D01*
X1207Y1705D02*
X1277Y1705D01*
X212Y1704D02*
X276Y1704D01*
X1210Y1704D02*
X1273Y1704D01*
X216Y1655D02*
X273Y1655D01*
X1213Y1655D02*
X1270Y1655D01*
X211Y1654D02*
X277Y1654D01*
X1208Y1654D02*
X1275Y1654D01*
X208Y1653D02*
X280Y1653D01*
X1206Y1653D02*
X1277Y1653D01*
X206Y1652D02*
X282Y1652D01*
X1204Y1652D02*
X1279Y1652D01*
X204Y1651D02*
X284Y1651D01*
X1202Y1651D02*
X1281Y1651D01*
X203Y1650D02*
X285Y1650D01*
X1201Y1650D02*
X1283Y1650D01*
X202Y1649D02*
X286Y1649D01*
X1199Y1649D02*
X1284Y1649D01*
X201Y1648D02*
X287Y1648D01*
X1198Y1648D02*
X1285Y1648D01*
X200Y1647D02*
X288Y1647D01*
X1197Y1647D02*
X1286Y1647D01*
X199Y1646D02*
X289Y1646D01*
X1196Y1646D02*
X1287Y1646D01*
X198Y1645D02*
X241Y1645D01*
X247Y1645D02*
X290Y1645D01*
X1196Y1645D02*
X1238Y1645D01*
X1244Y1645D02*
X1288Y1645D01*
X197Y1644D02*
X237Y1644D01*
X251Y1644D02*
X291Y1644D01*
X1195Y1644D02*
X1234Y1644D01*
X1248Y1644D02*
X1288Y1644D01*
X197Y1643D02*
X235Y1643D01*
X253Y1643D02*
X291Y1643D01*
X1194Y1643D02*
X1232Y1643D01*
X1250Y1643D02*
X1289Y1643D01*
X196Y1642D02*
X234Y1642D01*
X254Y1642D02*
X292Y1642D01*
X1194Y1642D02*
X1231Y1642D01*
X1251Y1642D02*
X1290Y1642D01*
X196Y1641D02*
X233Y1641D01*
X256Y1641D02*
X293Y1641D01*
X1193Y1641D02*
X1229Y1641D01*
X1252Y1641D02*
X1290Y1641D01*
X195Y1640D02*
X232Y1640D01*
X257Y1640D02*
X293Y1640D01*
X1192Y1640D02*
X1228Y1640D01*
X1253Y1640D02*
X1291Y1640D01*
X194Y1639D02*
X231Y1639D01*
X257Y1639D02*
X294Y1639D01*
X1192Y1639D02*
X1227Y1639D01*
X1254Y1639D02*
X1291Y1639D01*
X194Y1638D02*
X230Y1638D01*
X258Y1638D02*
X294Y1638D01*
X1192Y1638D02*
X1227Y1638D01*
X1255Y1638D02*
X1292Y1638D01*
X194Y1637D02*
X229Y1637D01*
X259Y1637D02*
X294Y1637D01*
X1191Y1637D02*
X1226Y1637D01*
X1256Y1637D02*
X1292Y1637D01*
X193Y1636D02*
X229Y1636D01*
X259Y1636D02*
X295Y1636D01*
X1191Y1636D02*
X1226Y1636D01*
X1256Y1636D02*
X1292Y1636D01*
X193Y1635D02*
X228Y1635D01*
X260Y1635D02*
X295Y1635D01*
X1191Y1635D02*
X1225Y1635D01*
X1257Y1635D02*
X1292Y1635D01*
X193Y1634D02*
X228Y1634D01*
X260Y1634D02*
X295Y1634D01*
X1191Y1634D02*
X1225Y1634D01*
X1257Y1634D02*
X1293Y1634D01*
X193Y1633D02*
X228Y1633D01*
X260Y1633D02*
X295Y1633D01*
X1190Y1633D02*
X1224Y1633D01*
X1257Y1633D02*
X1293Y1633D01*
X193Y1632D02*
X228Y1632D01*
X261Y1632D02*
X295Y1632D01*
X1190Y1632D02*
X1224Y1632D01*
X1257Y1632D02*
X1293Y1632D01*
X193Y1631D02*
X227Y1631D01*
X261Y1631D02*
X295Y1631D01*
X1190Y1631D02*
X1224Y1631D01*
X1258Y1631D02*
X1293Y1631D01*
X193Y1630D02*
X227Y1630D01*
X261Y1630D02*
X295Y1630D01*
X1190Y1630D02*
X1224Y1630D01*
X1258Y1630D02*
X1293Y1630D01*
X193Y1629D02*
X227Y1629D01*
X261Y1629D02*
X295Y1629D01*
X1190Y1629D02*
X1224Y1629D01*
X1258Y1629D02*
X1293Y1629D01*
X193Y1628D02*
X227Y1628D01*
X261Y1628D02*
X295Y1628D01*
X1190Y1628D02*
X1224Y1628D01*
X1258Y1628D02*
X1293Y1628D01*
X193Y1627D02*
X227Y1627D01*
X261Y1627D02*
X295Y1627D01*
X1190Y1627D02*
X1224Y1627D01*
X1257Y1627D02*
X1293Y1627D01*
X193Y1626D02*
X228Y1626D01*
X261Y1626D02*
X295Y1626D01*
X1190Y1626D02*
X1224Y1626D01*
X1257Y1626D02*
X1293Y1626D01*
X193Y1625D02*
X228Y1625D01*
X260Y1625D02*
X295Y1625D01*
X1190Y1625D02*
X1225Y1625D01*
X1257Y1625D02*
X1293Y1625D01*
X193Y1624D02*
X228Y1624D01*
X260Y1624D02*
X295Y1624D01*
X1191Y1624D02*
X1225Y1624D01*
X1257Y1624D02*
X1293Y1624D01*
X193Y1623D02*
X228Y1623D01*
X260Y1623D02*
X295Y1623D01*
X1191Y1623D02*
X1225Y1623D01*
X1256Y1623D02*
X1292Y1623D01*
X194Y1622D02*
X229Y1622D01*
X259Y1622D02*
X294Y1622D01*
X1191Y1622D02*
X1226Y1622D01*
X1256Y1622D02*
X1292Y1622D01*
X194Y1621D02*
X230Y1621D01*
X259Y1621D02*
X294Y1621D01*
X1191Y1621D02*
X1226Y1621D01*
X1255Y1621D02*
X1292Y1621D01*
X194Y1620D02*
X230Y1620D01*
X258Y1620D02*
X294Y1620D01*
X1192Y1620D02*
X1227Y1620D01*
X1255Y1620D02*
X1291Y1620D01*
X195Y1619D02*
X231Y1619D01*
X257Y1619D02*
X293Y1619D01*
X1192Y1619D02*
X1228Y1619D01*
X1254Y1619D02*
X1291Y1619D01*
X195Y1618D02*
X232Y1618D01*
X256Y1618D02*
X293Y1618D01*
X1193Y1618D02*
X1229Y1618D01*
X1253Y1618D02*
X1290Y1618D01*
X196Y1617D02*
X233Y1617D01*
X255Y1617D02*
X292Y1617D01*
X1193Y1617D02*
X1230Y1617D01*
X1252Y1617D02*
X1290Y1617D01*
X196Y1616D02*
X234Y1616D01*
X254Y1616D02*
X292Y1616D01*
X1194Y1616D02*
X1231Y1616D01*
X1251Y1616D02*
X1289Y1616D01*
X197Y1615D02*
X236Y1615D01*
X252Y1615D02*
X291Y1615D01*
X1194Y1615D02*
X1233Y1615D01*
X1249Y1615D02*
X1289Y1615D01*
X198Y1614D02*
X238Y1614D01*
X250Y1614D02*
X291Y1614D01*
X1195Y1614D02*
X1235Y1614D01*
X1247Y1614D02*
X1288Y1614D01*
X198Y1613D02*
X290Y1613D01*
X1196Y1613D02*
X1287Y1613D01*
X199Y1612D02*
X289Y1612D01*
X1197Y1612D02*
X1286Y1612D01*
X200Y1611D02*
X288Y1611D01*
X1198Y1611D02*
X1286Y1611D01*
X201Y1610D02*
X287Y1610D01*
X1199Y1610D02*
X1284Y1610D01*
X202Y1609D02*
X286Y1609D01*
X1200Y1609D02*
X1283Y1609D01*
X204Y1608D02*
X284Y1608D01*
X1201Y1608D02*
X1282Y1608D01*
X205Y1607D02*
X283Y1607D01*
X1203Y1607D02*
X1280Y1607D01*
X207Y1606D02*
X281Y1606D01*
X1205Y1606D02*
X1279Y1606D01*
X209Y1605D02*
X279Y1605D01*
X1207Y1605D02*
X1276Y1605D01*
X212Y1604D02*
X276Y1604D01*
X1210Y1604D02*
X1273Y1604D01*
X214Y1555D02*
X272Y1555D01*
X1213Y1555D02*
X1270Y1555D01*
X210Y1554D02*
X276Y1554D01*
X1208Y1554D02*
X1275Y1554D01*
X207Y1553D02*
X279Y1553D01*
X1206Y1553D02*
X1277Y1553D01*
X205Y1552D02*
X281Y1552D01*
X1204Y1552D02*
X1279Y1552D01*
X203Y1551D02*
X283Y1551D01*
X1202Y1551D02*
X1281Y1551D01*
X202Y1550D02*
X284Y1550D01*
X1201Y1550D02*
X1282Y1550D01*
X201Y1549D02*
X285Y1549D01*
X1199Y1549D02*
X1284Y1549D01*
X200Y1548D02*
X286Y1548D01*
X1198Y1548D02*
X1285Y1548D01*
X199Y1547D02*
X287Y1547D01*
X1197Y1547D02*
X1286Y1547D01*
X198Y1546D02*
X288Y1546D01*
X1196Y1546D02*
X1287Y1546D01*
X197Y1545D02*
X241Y1545D01*
X245Y1545D02*
X289Y1545D01*
X1196Y1545D02*
X1239Y1545D01*
X1243Y1545D02*
X1288Y1545D01*
X196Y1544D02*
X237Y1544D01*
X249Y1544D02*
X290Y1544D01*
X1195Y1544D02*
X1234Y1544D01*
X1247Y1544D02*
X1288Y1544D01*
X196Y1543D02*
X235Y1543D01*
X251Y1543D02*
X290Y1543D01*
X1194Y1543D02*
X1232Y1543D01*
X1249Y1543D02*
X1289Y1543D01*
X195Y1542D02*
X233Y1542D01*
X253Y1542D02*
X291Y1542D01*
X1194Y1542D02*
X1231Y1542D01*
X1251Y1542D02*
X1290Y1542D01*
X194Y1541D02*
X232Y1541D01*
X254Y1541D02*
X292Y1541D01*
X1193Y1541D02*
X1230Y1541D01*
X1252Y1541D02*
X1290Y1541D01*
X194Y1540D02*
X231Y1540D01*
X255Y1540D02*
X292Y1540D01*
X1192Y1540D02*
X1229Y1540D01*
X1253Y1540D02*
X1291Y1540D01*
X193Y1539D02*
X230Y1539D01*
X256Y1539D02*
X293Y1539D01*
X1192Y1539D02*
X1228Y1539D01*
X1254Y1539D02*
X1291Y1539D01*
X193Y1538D02*
X229Y1538D01*
X257Y1538D02*
X293Y1538D01*
X1192Y1538D02*
X1227Y1538D01*
X1255Y1538D02*
X1291Y1538D01*
X193Y1537D02*
X229Y1537D01*
X257Y1537D02*
X293Y1537D01*
X1191Y1537D02*
X1226Y1537D01*
X1255Y1537D02*
X1292Y1537D01*
X192Y1536D02*
X228Y1536D01*
X258Y1536D02*
X294Y1536D01*
X1191Y1536D02*
X1226Y1536D01*
X1256Y1536D02*
X1292Y1536D01*
X192Y1535D02*
X228Y1535D01*
X258Y1535D02*
X294Y1535D01*
X1191Y1535D02*
X1225Y1535D01*
X1256Y1535D02*
X1292Y1535D01*
X192Y1534D02*
X227Y1534D01*
X259Y1534D02*
X294Y1534D01*
X1191Y1534D02*
X1225Y1534D01*
X1256Y1534D02*
X1293Y1534D01*
X192Y1533D02*
X227Y1533D01*
X259Y1533D02*
X294Y1533D01*
X1190Y1533D02*
X1225Y1533D01*
X1257Y1533D02*
X1293Y1533D01*
X192Y1532D02*
X227Y1532D01*
X259Y1532D02*
X294Y1532D01*
X1190Y1532D02*
X1225Y1532D01*
X1257Y1532D02*
X1293Y1532D01*
X192Y1531D02*
X227Y1531D01*
X259Y1531D02*
X294Y1531D01*
X1190Y1531D02*
X1224Y1531D01*
X1257Y1531D02*
X1293Y1531D01*
X192Y1530D02*
X227Y1530D01*
X259Y1530D02*
X294Y1530D01*
X1190Y1530D02*
X1224Y1530D01*
X1257Y1530D02*
X1293Y1530D01*
X192Y1529D02*
X227Y1529D01*
X259Y1529D02*
X294Y1529D01*
X1190Y1529D02*
X1224Y1529D01*
X1257Y1529D02*
X1293Y1529D01*
X192Y1528D02*
X227Y1528D01*
X259Y1528D02*
X294Y1528D01*
X1190Y1528D02*
X1224Y1528D01*
X1257Y1528D02*
X1293Y1528D01*
X192Y1527D02*
X227Y1527D01*
X259Y1527D02*
X294Y1527D01*
X1190Y1527D02*
X1225Y1527D01*
X1257Y1527D02*
X1293Y1527D01*
X192Y1526D02*
X227Y1526D01*
X259Y1526D02*
X294Y1526D01*
X1190Y1526D02*
X1225Y1526D01*
X1257Y1526D02*
X1293Y1526D01*
X192Y1525D02*
X227Y1525D01*
X259Y1525D02*
X294Y1525D01*
X1190Y1525D02*
X1225Y1525D01*
X1257Y1525D02*
X1293Y1525D01*
X192Y1524D02*
X227Y1524D01*
X259Y1524D02*
X294Y1524D01*
X1191Y1524D02*
X1225Y1524D01*
X1256Y1524D02*
X1292Y1524D01*
X192Y1523D02*
X228Y1523D01*
X258Y1523D02*
X294Y1523D01*
X1191Y1523D02*
X1226Y1523D01*
X1256Y1523D02*
X1292Y1523D01*
X193Y1522D02*
X228Y1522D01*
X258Y1522D02*
X293Y1522D01*
X1191Y1522D02*
X1226Y1522D01*
X1256Y1522D02*
X1292Y1522D01*
X193Y1521D02*
X229Y1521D01*
X257Y1521D02*
X293Y1521D01*
X1191Y1521D02*
X1227Y1521D01*
X1255Y1521D02*
X1292Y1521D01*
X193Y1520D02*
X229Y1520D01*
X257Y1520D02*
X293Y1520D01*
X1192Y1520D02*
X1227Y1520D01*
X1254Y1520D02*
X1291Y1520D01*
X194Y1519D02*
X230Y1519D01*
X256Y1519D02*
X292Y1519D01*
X1192Y1519D02*
X1228Y1519D01*
X1254Y1519D02*
X1291Y1519D01*
X194Y1518D02*
X231Y1518D01*
X255Y1518D02*
X292Y1518D01*
X1193Y1518D02*
X1229Y1518D01*
X1253Y1518D02*
X1290Y1518D01*
X195Y1517D02*
X232Y1517D01*
X254Y1517D02*
X291Y1517D01*
X1193Y1517D02*
X1230Y1517D01*
X1252Y1517D02*
X1290Y1517D01*
X195Y1516D02*
X234Y1516D01*
X253Y1516D02*
X291Y1516D01*
X1194Y1516D02*
X1231Y1516D01*
X1250Y1516D02*
X1289Y1516D01*
X196Y1515D02*
X235Y1515D01*
X251Y1515D02*
X290Y1515D01*
X1194Y1515D02*
X1233Y1515D01*
X1249Y1515D02*
X1289Y1515D01*
X197Y1514D02*
X238Y1514D01*
X248Y1514D02*
X289Y1514D01*
X1195Y1514D02*
X1235Y1514D01*
X1246Y1514D02*
X1288Y1514D01*
X197Y1513D02*
X289Y1513D01*
X1196Y1513D02*
X1287Y1513D01*
X198Y1512D02*
X288Y1512D01*
X1197Y1512D02*
X1286Y1512D01*
X199Y1511D02*
X287Y1511D01*
X1198Y1511D02*
X1286Y1511D01*
X200Y1510D02*
X286Y1510D01*
X1199Y1510D02*
X1284Y1510D01*
X201Y1509D02*
X285Y1509D01*
X1200Y1509D02*
X1283Y1509D01*
X203Y1508D02*
X283Y1508D01*
X1201Y1508D02*
X1282Y1508D01*
X204Y1507D02*
X282Y1507D01*
X1203Y1507D02*
X1280Y1507D01*
X206Y1506D02*
X280Y1506D01*
X1205Y1506D02*
X1278Y1506D01*
X208Y1505D02*
X278Y1505D01*
X1207Y1505D02*
X1276Y1505D01*
X211Y1504D02*
X275Y1504D01*
X1210Y1504D02*
X1273Y1504D01*
X215Y1455D02*
X273Y1455D01*
X1213Y1455D02*
X1270Y1455D01*
X211Y1454D02*
X277Y1454D01*
X1208Y1454D02*
X1275Y1454D01*
X208Y1453D02*
X280Y1453D01*
X1206Y1453D02*
X1277Y1453D01*
X206Y1452D02*
X282Y1452D01*
X1204Y1452D02*
X1279Y1452D01*
X204Y1451D02*
X284Y1451D01*
X1202Y1451D02*
X1281Y1451D01*
X203Y1450D02*
X285Y1450D01*
X1201Y1450D02*
X1283Y1450D01*
X202Y1449D02*
X286Y1449D01*
X1199Y1449D02*
X1284Y1449D01*
X201Y1448D02*
X287Y1448D01*
X1198Y1448D02*
X1285Y1448D01*
X200Y1447D02*
X288Y1447D01*
X1197Y1447D02*
X1286Y1447D01*
X199Y1446D02*
X289Y1446D01*
X1196Y1446D02*
X1287Y1446D01*
X198Y1445D02*
X242Y1445D01*
X246Y1445D02*
X290Y1445D01*
X1196Y1445D02*
X1238Y1445D01*
X1243Y1445D02*
X1288Y1445D01*
X197Y1444D02*
X238Y1444D01*
X251Y1444D02*
X291Y1444D01*
X1195Y1444D02*
X1234Y1444D01*
X1247Y1444D02*
X1288Y1444D01*
X197Y1443D02*
X236Y1443D01*
X252Y1443D02*
X291Y1443D01*
X1194Y1443D02*
X1232Y1443D01*
X1249Y1443D02*
X1289Y1443D01*
X196Y1442D02*
X234Y1442D01*
X254Y1442D02*
X292Y1442D01*
X1194Y1442D02*
X1231Y1442D01*
X1251Y1442D02*
X1290Y1442D01*
X195Y1441D02*
X233Y1441D01*
X255Y1441D02*
X293Y1441D01*
X1193Y1441D02*
X1230Y1441D01*
X1252Y1441D02*
X1290Y1441D01*
X195Y1440D02*
X232Y1440D01*
X256Y1440D02*
X293Y1440D01*
X1192Y1440D02*
X1229Y1440D01*
X1253Y1440D02*
X1291Y1440D01*
X194Y1439D02*
X231Y1439D01*
X257Y1439D02*
X294Y1439D01*
X1192Y1439D02*
X1228Y1439D01*
X1254Y1439D02*
X1291Y1439D01*
X194Y1438D02*
X230Y1438D01*
X258Y1438D02*
X294Y1438D01*
X1192Y1438D02*
X1227Y1438D01*
X1255Y1438D02*
X1291Y1438D01*
X194Y1437D02*
X230Y1437D01*
X258Y1437D02*
X294Y1437D01*
X1191Y1437D02*
X1226Y1437D01*
X1255Y1437D02*
X1292Y1437D01*
X193Y1436D02*
X229Y1436D01*
X259Y1436D02*
X295Y1436D01*
X1191Y1436D02*
X1226Y1436D01*
X1256Y1436D02*
X1292Y1436D01*
X193Y1435D02*
X229Y1435D01*
X259Y1435D02*
X295Y1435D01*
X1191Y1435D02*
X1225Y1435D01*
X1256Y1435D02*
X1292Y1435D01*
X193Y1434D02*
X228Y1434D01*
X260Y1434D02*
X295Y1434D01*
X1191Y1434D02*
X1225Y1434D01*
X1256Y1434D02*
X1293Y1434D01*
X193Y1433D02*
X228Y1433D01*
X260Y1433D02*
X295Y1433D01*
X1190Y1433D02*
X1225Y1433D01*
X1257Y1433D02*
X1293Y1433D01*
X193Y1432D02*
X228Y1432D01*
X260Y1432D02*
X295Y1432D01*
X1190Y1432D02*
X1225Y1432D01*
X1257Y1432D02*
X1293Y1432D01*
X193Y1431D02*
X228Y1431D01*
X260Y1431D02*
X295Y1431D01*
X1190Y1431D02*
X1224Y1431D01*
X1257Y1431D02*
X1293Y1431D01*
X193Y1430D02*
X228Y1430D01*
X260Y1430D02*
X295Y1430D01*
X1190Y1430D02*
X1224Y1430D01*
X1257Y1430D02*
X1293Y1430D01*
X193Y1429D02*
X228Y1429D01*
X261Y1429D02*
X295Y1429D01*
X1190Y1429D02*
X1224Y1429D01*
X1257Y1429D02*
X1293Y1429D01*
X193Y1428D02*
X228Y1428D01*
X260Y1428D02*
X295Y1428D01*
X1190Y1428D02*
X1224Y1428D01*
X1257Y1428D02*
X1293Y1428D01*
X193Y1427D02*
X228Y1427D01*
X260Y1427D02*
X295Y1427D01*
X1190Y1427D02*
X1225Y1427D01*
X1257Y1427D02*
X1293Y1427D01*
X193Y1426D02*
X228Y1426D01*
X260Y1426D02*
X295Y1426D01*
X1190Y1426D02*
X1225Y1426D01*
X1257Y1426D02*
X1293Y1426D01*
X193Y1425D02*
X228Y1425D01*
X260Y1425D02*
X295Y1425D01*
X1190Y1425D02*
X1225Y1425D01*
X1257Y1425D02*
X1293Y1425D01*
X193Y1424D02*
X228Y1424D01*
X260Y1424D02*
X295Y1424D01*
X1191Y1424D02*
X1225Y1424D01*
X1256Y1424D02*
X1292Y1424D01*
X193Y1423D02*
X229Y1423D01*
X259Y1423D02*
X295Y1423D01*
X1191Y1423D02*
X1226Y1423D01*
X1256Y1423D02*
X1292Y1423D01*
X194Y1422D02*
X229Y1422D01*
X259Y1422D02*
X294Y1422D01*
X1191Y1422D02*
X1226Y1422D01*
X1255Y1422D02*
X1292Y1422D01*
X194Y1421D02*
X230Y1421D01*
X258Y1421D02*
X294Y1421D01*
X1191Y1421D02*
X1227Y1421D01*
X1255Y1421D02*
X1292Y1421D01*
X194Y1420D02*
X231Y1420D01*
X258Y1420D02*
X294Y1420D01*
X1192Y1420D02*
X1227Y1420D01*
X1254Y1420D02*
X1291Y1420D01*
X195Y1419D02*
X231Y1419D01*
X257Y1419D02*
X293Y1419D01*
X1192Y1419D02*
X1228Y1419D01*
X1254Y1419D02*
X1291Y1419D01*
X195Y1418D02*
X232Y1418D01*
X256Y1418D02*
X293Y1418D01*
X1193Y1418D02*
X1229Y1418D01*
X1253Y1418D02*
X1290Y1418D01*
X196Y1417D02*
X233Y1417D01*
X255Y1417D02*
X292Y1417D01*
X1193Y1417D02*
X1230Y1417D01*
X1252Y1417D02*
X1290Y1417D01*
X196Y1416D02*
X235Y1416D01*
X254Y1416D02*
X292Y1416D01*
X1194Y1416D02*
X1231Y1416D01*
X1250Y1416D02*
X1289Y1416D01*
X197Y1415D02*
X236Y1415D01*
X252Y1415D02*
X291Y1415D01*
X1194Y1415D02*
X1233Y1415D01*
X1248Y1415D02*
X1289Y1415D01*
X198Y1414D02*
X239Y1414D01*
X249Y1414D02*
X290Y1414D01*
X1195Y1414D02*
X1236Y1414D01*
X1246Y1414D02*
X1288Y1414D01*
X198Y1413D02*
X290Y1413D01*
X1196Y1413D02*
X1287Y1413D01*
X199Y1412D02*
X289Y1412D01*
X1197Y1412D02*
X1286Y1412D01*
X200Y1411D02*
X288Y1411D01*
X1198Y1411D02*
X1285Y1411D01*
X201Y1410D02*
X287Y1410D01*
X1199Y1410D02*
X1284Y1410D01*
X202Y1409D02*
X286Y1409D01*
X1200Y1409D02*
X1283Y1409D01*
X204Y1408D02*
X284Y1408D01*
X1201Y1408D02*
X1282Y1408D01*
X205Y1407D02*
X283Y1407D01*
X1203Y1407D02*
X1280Y1407D01*
X207Y1406D02*
X281Y1406D01*
X1205Y1406D02*
X1278Y1406D01*
X209Y1405D02*
X279Y1405D01*
X1207Y1405D02*
X1276Y1405D01*
X213Y1404D02*
X276Y1404D01*
X1210Y1404D02*
X1273Y1404D01*
X215Y1355D02*
X273Y1355D01*
X1213Y1355D02*
X1271Y1355D01*
X211Y1354D02*
X277Y1354D01*
X1208Y1354D02*
X1275Y1354D01*
X208Y1353D02*
X280Y1353D01*
X1206Y1353D02*
X1278Y1353D01*
X206Y1352D02*
X282Y1352D01*
X1204Y1352D02*
X1279Y1352D01*
X204Y1351D02*
X284Y1351D01*
X1202Y1351D02*
X1281Y1351D01*
X203Y1350D02*
X285Y1350D01*
X1201Y1350D02*
X1283Y1350D01*
X202Y1349D02*
X286Y1349D01*
X1199Y1349D02*
X1284Y1349D01*
X201Y1348D02*
X287Y1348D01*
X1198Y1348D02*
X1285Y1348D01*
X200Y1347D02*
X288Y1347D01*
X1197Y1347D02*
X1286Y1347D01*
X199Y1346D02*
X289Y1346D01*
X1196Y1346D02*
X1287Y1346D01*
X198Y1345D02*
X242Y1345D01*
X247Y1345D02*
X290Y1345D01*
X1196Y1345D02*
X1238Y1345D01*
X1243Y1345D02*
X1288Y1345D01*
X197Y1344D02*
X238Y1344D01*
X251Y1344D02*
X291Y1344D01*
X1195Y1344D02*
X1234Y1344D01*
X1247Y1344D02*
X1288Y1344D01*
X197Y1343D02*
X236Y1343D01*
X253Y1343D02*
X291Y1343D01*
X1194Y1343D02*
X1232Y1343D01*
X1249Y1343D02*
X1289Y1343D01*
X196Y1342D02*
X234Y1342D01*
X254Y1342D02*
X292Y1342D01*
X1194Y1342D02*
X1231Y1342D01*
X1251Y1342D02*
X1290Y1342D01*
X195Y1341D02*
X233Y1341D01*
X255Y1341D02*
X293Y1341D01*
X1193Y1341D02*
X1230Y1341D01*
X1252Y1341D02*
X1290Y1341D01*
X195Y1340D02*
X232Y1340D01*
X256Y1340D02*
X293Y1340D01*
X1192Y1340D02*
X1229Y1340D01*
X1253Y1340D02*
X1291Y1340D01*
X194Y1339D02*
X231Y1339D01*
X257Y1339D02*
X294Y1339D01*
X1192Y1339D02*
X1228Y1339D01*
X1254Y1339D02*
X1291Y1339D01*
X194Y1338D02*
X230Y1338D01*
X258Y1338D02*
X294Y1338D01*
X1192Y1338D02*
X1227Y1338D01*
X1255Y1338D02*
X1291Y1338D01*
X194Y1337D02*
X230Y1337D01*
X258Y1337D02*
X294Y1337D01*
X1191Y1337D02*
X1226Y1337D01*
X1255Y1337D02*
X1292Y1337D01*
X193Y1336D02*
X229Y1336D01*
X259Y1336D02*
X295Y1336D01*
X1191Y1336D02*
X1226Y1336D01*
X1256Y1336D02*
X1292Y1336D01*
X193Y1335D02*
X229Y1335D01*
X259Y1335D02*
X295Y1335D01*
X1191Y1335D02*
X1225Y1335D01*
X1256Y1335D02*
X1292Y1335D01*
X193Y1334D02*
X228Y1334D01*
X260Y1334D02*
X295Y1334D01*
X1191Y1334D02*
X1225Y1334D01*
X1256Y1334D02*
X1293Y1334D01*
X193Y1333D02*
X228Y1333D01*
X260Y1333D02*
X295Y1333D01*
X1190Y1333D02*
X1225Y1333D01*
X1257Y1333D02*
X1293Y1333D01*
X193Y1332D02*
X228Y1332D01*
X260Y1332D02*
X295Y1332D01*
X1190Y1332D02*
X1225Y1332D01*
X1257Y1332D02*
X1293Y1332D01*
X193Y1331D02*
X228Y1331D01*
X260Y1331D02*
X295Y1331D01*
X1190Y1331D02*
X1224Y1331D01*
X1257Y1331D02*
X1293Y1331D01*
X193Y1330D02*
X228Y1330D01*
X260Y1330D02*
X295Y1330D01*
X1190Y1330D02*
X1224Y1330D01*
X1257Y1330D02*
X1293Y1330D01*
X193Y1329D02*
X228Y1329D01*
X261Y1329D02*
X295Y1329D01*
X1190Y1329D02*
X1224Y1329D01*
X1257Y1329D02*
X1293Y1329D01*
X193Y1328D02*
X228Y1328D01*
X260Y1328D02*
X295Y1328D01*
X1190Y1328D02*
X1224Y1328D01*
X1257Y1328D02*
X1293Y1328D01*
X193Y1327D02*
X228Y1327D01*
X260Y1327D02*
X295Y1327D01*
X1190Y1327D02*
X1225Y1327D01*
X1257Y1327D02*
X1293Y1327D01*
X193Y1326D02*
X228Y1326D01*
X260Y1326D02*
X295Y1326D01*
X1190Y1326D02*
X1225Y1326D01*
X1257Y1326D02*
X1293Y1326D01*
X193Y1325D02*
X228Y1325D01*
X260Y1325D02*
X295Y1325D01*
X1190Y1325D02*
X1225Y1325D01*
X1257Y1325D02*
X1293Y1325D01*
X193Y1324D02*
X229Y1324D01*
X260Y1324D02*
X295Y1324D01*
X1191Y1324D02*
X1225Y1324D01*
X1256Y1324D02*
X1292Y1324D01*
X193Y1323D02*
X229Y1323D01*
X259Y1323D02*
X295Y1323D01*
X1191Y1323D02*
X1226Y1323D01*
X1256Y1323D02*
X1292Y1323D01*
X194Y1322D02*
X229Y1322D01*
X259Y1322D02*
X294Y1322D01*
X1191Y1322D02*
X1226Y1322D01*
X1255Y1322D02*
X1292Y1322D01*
X194Y1321D02*
X230Y1321D01*
X258Y1321D02*
X294Y1321D01*
X1191Y1321D02*
X1227Y1321D01*
X1255Y1321D02*
X1292Y1321D01*
X194Y1320D02*
X231Y1320D01*
X258Y1320D02*
X294Y1320D01*
X1192Y1320D02*
X1227Y1320D01*
X1254Y1320D02*
X1291Y1320D01*
X195Y1319D02*
X231Y1319D01*
X257Y1319D02*
X293Y1319D01*
X1192Y1319D02*
X1228Y1319D01*
X1253Y1319D02*
X1291Y1319D01*
X195Y1318D02*
X232Y1318D01*
X256Y1318D02*
X293Y1318D01*
X1193Y1318D02*
X1229Y1318D01*
X1253Y1318D02*
X1290Y1318D01*
X196Y1317D02*
X233Y1317D01*
X255Y1317D02*
X292Y1317D01*
X1193Y1317D02*
X1230Y1317D01*
X1251Y1317D02*
X1290Y1317D01*
X196Y1316D02*
X235Y1316D01*
X254Y1316D02*
X292Y1316D01*
X1194Y1316D02*
X1231Y1316D01*
X1250Y1316D02*
X1289Y1316D01*
X197Y1315D02*
X236Y1315D01*
X252Y1315D02*
X291Y1315D01*
X1194Y1315D02*
X1233Y1315D01*
X1248Y1315D02*
X1289Y1315D01*
X198Y1314D02*
X239Y1314D01*
X249Y1314D02*
X290Y1314D01*
X1195Y1314D02*
X1236Y1314D01*
X1246Y1314D02*
X1288Y1314D01*
X198Y1313D02*
X290Y1313D01*
X1196Y1313D02*
X1287Y1313D01*
X199Y1312D02*
X289Y1312D01*
X1197Y1312D02*
X1286Y1312D01*
X200Y1311D02*
X288Y1311D01*
X1198Y1311D02*
X1285Y1311D01*
X201Y1310D02*
X287Y1310D01*
X1199Y1310D02*
X1284Y1310D01*
X202Y1309D02*
X286Y1309D01*
X1200Y1309D02*
X1283Y1309D01*
X204Y1308D02*
X284Y1308D01*
X1201Y1308D02*
X1282Y1308D01*
X205Y1307D02*
X283Y1307D01*
X1203Y1307D02*
X1280Y1307D01*
X207Y1306D02*
X281Y1306D01*
X1205Y1306D02*
X1278Y1306D01*
X209Y1305D02*
X279Y1305D01*
X1207Y1305D02*
X1276Y1305D01*
X213Y1304D02*
X275Y1304D01*
X1210Y1304D02*
X1273Y1304D01*
X215Y1255D02*
X273Y1255D01*
X1212Y1255D02*
X1271Y1255D01*
X211Y1254D02*
X278Y1254D01*
X1208Y1254D02*
X1275Y1254D01*
X208Y1253D02*
X280Y1253D01*
X1206Y1253D02*
X1278Y1253D01*
X206Y1252D02*
X282Y1252D01*
X1204Y1252D02*
X1279Y1252D01*
X204Y1251D02*
X284Y1251D01*
X1202Y1251D02*
X1281Y1251D01*
X203Y1250D02*
X285Y1250D01*
X1201Y1250D02*
X1283Y1250D01*
X202Y1249D02*
X286Y1249D01*
X1199Y1249D02*
X1284Y1249D01*
X201Y1248D02*
X287Y1248D01*
X1198Y1248D02*
X1285Y1248D01*
X200Y1247D02*
X288Y1247D01*
X1197Y1247D02*
X1286Y1247D01*
X199Y1246D02*
X289Y1246D01*
X1196Y1246D02*
X1287Y1246D01*
X198Y1245D02*
X241Y1245D01*
X247Y1245D02*
X290Y1245D01*
X1195Y1245D02*
X1238Y1245D01*
X1244Y1245D02*
X1288Y1245D01*
X197Y1244D02*
X237Y1244D01*
X251Y1244D02*
X291Y1244D01*
X1195Y1244D02*
X1234Y1244D01*
X1247Y1244D02*
X1288Y1244D01*
X197Y1243D02*
X235Y1243D01*
X253Y1243D02*
X292Y1243D01*
X1194Y1243D02*
X1232Y1243D01*
X1249Y1243D02*
X1289Y1243D01*
X196Y1242D02*
X234Y1242D01*
X254Y1242D02*
X292Y1242D01*
X1194Y1242D02*
X1231Y1242D01*
X1251Y1242D02*
X1290Y1242D01*
X195Y1241D02*
X233Y1241D01*
X255Y1241D02*
X293Y1241D01*
X1193Y1241D02*
X1229Y1241D01*
X1252Y1241D02*
X1290Y1241D01*
X195Y1240D02*
X232Y1240D01*
X256Y1240D02*
X293Y1240D01*
X1192Y1240D02*
X1228Y1240D01*
X1253Y1240D02*
X1291Y1240D01*
X194Y1239D02*
X231Y1239D01*
X257Y1239D02*
X294Y1239D01*
X1192Y1239D02*
X1228Y1239D01*
X1254Y1239D02*
X1291Y1239D01*
X194Y1238D02*
X230Y1238D01*
X258Y1238D02*
X294Y1238D01*
X1192Y1238D02*
X1227Y1238D01*
X1255Y1238D02*
X1292Y1238D01*
X194Y1237D02*
X230Y1237D01*
X259Y1237D02*
X294Y1237D01*
X1191Y1237D02*
X1226Y1237D01*
X1255Y1237D02*
X1292Y1237D01*
X193Y1236D02*
X229Y1236D01*
X259Y1236D02*
X295Y1236D01*
X1191Y1236D02*
X1226Y1236D01*
X1256Y1236D02*
X1292Y1236D01*
X193Y1235D02*
X229Y1235D01*
X259Y1235D02*
X295Y1235D01*
X1191Y1235D02*
X1225Y1235D01*
X1256Y1235D02*
X1292Y1235D01*
X193Y1234D02*
X228Y1234D01*
X260Y1234D02*
X295Y1234D01*
X1191Y1234D02*
X1225Y1234D01*
X1257Y1234D02*
X1293Y1234D01*
X193Y1233D02*
X228Y1233D01*
X260Y1233D02*
X295Y1233D01*
X1190Y1233D02*
X1225Y1233D01*
X1257Y1233D02*
X1293Y1233D01*
X193Y1232D02*
X228Y1232D01*
X260Y1232D02*
X295Y1232D01*
X1190Y1232D02*
X1225Y1232D01*
X1257Y1232D02*
X1293Y1232D01*
X193Y1231D02*
X228Y1231D01*
X260Y1231D02*
X295Y1231D01*
X1190Y1231D02*
X1224Y1231D01*
X1257Y1231D02*
X1293Y1231D01*
X193Y1230D02*
X228Y1230D01*
X261Y1230D02*
X295Y1230D01*
X1190Y1230D02*
X1224Y1230D01*
X1257Y1230D02*
X1293Y1230D01*
X193Y1229D02*
X228Y1229D01*
X261Y1229D02*
X295Y1229D01*
X1190Y1229D02*
X1224Y1229D01*
X1257Y1229D02*
X1293Y1229D01*
X193Y1228D02*
X228Y1228D01*
X261Y1228D02*
X295Y1228D01*
X1190Y1228D02*
X1224Y1228D01*
X1257Y1228D02*
X1293Y1228D01*
X193Y1227D02*
X228Y1227D01*
X260Y1227D02*
X295Y1227D01*
X1190Y1227D02*
X1224Y1227D01*
X1257Y1227D02*
X1293Y1227D01*
X193Y1226D02*
X228Y1226D01*
X260Y1226D02*
X295Y1226D01*
X1190Y1226D02*
X1225Y1226D01*
X1257Y1226D02*
X1293Y1226D01*
X193Y1225D02*
X228Y1225D01*
X260Y1225D02*
X295Y1225D01*
X1190Y1225D02*
X1225Y1225D01*
X1257Y1225D02*
X1293Y1225D01*
X193Y1224D02*
X228Y1224D01*
X260Y1224D02*
X295Y1224D01*
X1191Y1224D02*
X1225Y1224D01*
X1256Y1224D02*
X1293Y1224D01*
X193Y1223D02*
X229Y1223D01*
X259Y1223D02*
X295Y1223D01*
X1191Y1223D02*
X1226Y1223D01*
X1256Y1223D02*
X1292Y1223D01*
X194Y1222D02*
X229Y1222D01*
X259Y1222D02*
X294Y1222D01*
X1191Y1222D02*
X1226Y1222D01*
X1256Y1222D02*
X1292Y1222D01*
X194Y1221D02*
X230Y1221D01*
X258Y1221D02*
X294Y1221D01*
X1191Y1221D02*
X1227Y1221D01*
X1255Y1221D02*
X1292Y1221D01*
X194Y1220D02*
X231Y1220D01*
X258Y1220D02*
X294Y1220D01*
X1192Y1220D02*
X1227Y1220D01*
X1254Y1220D02*
X1291Y1220D01*
X195Y1219D02*
X231Y1219D01*
X257Y1219D02*
X293Y1219D01*
X1192Y1219D02*
X1228Y1219D01*
X1254Y1219D02*
X1291Y1219D01*
X195Y1218D02*
X232Y1218D01*
X256Y1218D02*
X293Y1218D01*
X1193Y1218D02*
X1229Y1218D01*
X1253Y1218D02*
X1290Y1218D01*
X196Y1217D02*
X233Y1217D01*
X255Y1217D02*
X292Y1217D01*
X1193Y1217D02*
X1230Y1217D01*
X1252Y1217D02*
X1290Y1217D01*
X196Y1216D02*
X235Y1216D01*
X253Y1216D02*
X292Y1216D01*
X1194Y1216D02*
X1231Y1216D01*
X1250Y1216D02*
X1289Y1216D01*
X197Y1215D02*
X236Y1215D01*
X252Y1215D02*
X291Y1215D01*
X1194Y1215D02*
X1233Y1215D01*
X1249Y1215D02*
X1289Y1215D01*
X198Y1214D02*
X239Y1214D01*
X249Y1214D02*
X290Y1214D01*
X1195Y1214D02*
X1236Y1214D01*
X1246Y1214D02*
X1288Y1214D01*
X198Y1213D02*
X290Y1213D01*
X1196Y1213D02*
X1287Y1213D01*
X199Y1212D02*
X289Y1212D01*
X1197Y1212D02*
X1286Y1212D01*
X200Y1211D02*
X288Y1211D01*
X1198Y1211D02*
X1285Y1211D01*
X201Y1210D02*
X287Y1210D01*
X1199Y1210D02*
X1284Y1210D01*
X203Y1209D02*
X286Y1209D01*
X1200Y1209D02*
X1283Y1209D01*
X204Y1208D02*
X284Y1208D01*
X1201Y1208D02*
X1282Y1208D01*
X205Y1207D02*
X283Y1207D01*
X1203Y1207D02*
X1280Y1207D01*
X207Y1206D02*
X281Y1206D01*
X1205Y1206D02*
X1278Y1206D01*
X209Y1205D02*
X279Y1205D01*
X1207Y1205D02*
X1276Y1205D01*
X213Y1204D02*
X275Y1204D01*
X1210Y1204D02*
X1273Y1204D01*
X215Y1155D02*
X273Y1155D01*
X1212Y1155D02*
X1271Y1155D01*
X210Y1154D02*
X278Y1154D01*
X1208Y1154D02*
X1275Y1154D01*
X208Y1153D02*
X280Y1153D01*
X1205Y1153D02*
X1278Y1153D01*
X206Y1152D02*
X282Y1152D01*
X1204Y1152D02*
X1279Y1152D01*
X204Y1151D02*
X284Y1151D01*
X1202Y1151D02*
X1281Y1151D01*
X203Y1150D02*
X285Y1150D01*
X1200Y1150D02*
X1283Y1150D01*
X202Y1149D02*
X286Y1149D01*
X1199Y1149D02*
X1284Y1149D01*
X201Y1148D02*
X288Y1148D01*
X1198Y1148D02*
X1285Y1148D01*
X200Y1147D02*
X288Y1147D01*
X1197Y1147D02*
X1286Y1147D01*
X199Y1146D02*
X289Y1146D01*
X1196Y1146D02*
X1287Y1146D01*
X198Y1145D02*
X241Y1145D01*
X247Y1145D02*
X290Y1145D01*
X1195Y1145D02*
X1238Y1145D01*
X1244Y1145D02*
X1288Y1145D01*
X197Y1144D02*
X237Y1144D01*
X251Y1144D02*
X291Y1144D01*
X1195Y1144D02*
X1234Y1144D01*
X1247Y1144D02*
X1288Y1144D01*
X197Y1143D02*
X235Y1143D01*
X253Y1143D02*
X292Y1143D01*
X1194Y1143D02*
X1232Y1143D01*
X1249Y1143D02*
X1289Y1143D01*
X196Y1142D02*
X234Y1142D01*
X254Y1142D02*
X292Y1142D01*
X1193Y1142D02*
X1231Y1142D01*
X1251Y1142D02*
X1290Y1142D01*
X195Y1141D02*
X232Y1141D01*
X256Y1141D02*
X293Y1141D01*
X1193Y1141D02*
X1229Y1141D01*
X1252Y1141D02*
X1290Y1141D01*
X195Y1140D02*
X232Y1140D01*
X257Y1140D02*
X293Y1140D01*
X1192Y1140D02*
X1229Y1140D01*
X1253Y1140D02*
X1291Y1140D01*
X194Y1139D02*
X231Y1139D01*
X257Y1139D02*
X294Y1139D01*
X1192Y1139D02*
X1228Y1139D01*
X1254Y1139D02*
X1291Y1139D01*
X194Y1138D02*
X230Y1138D01*
X258Y1138D02*
X294Y1138D01*
X1192Y1138D02*
X1227Y1138D01*
X1255Y1138D02*
X1291Y1138D01*
X194Y1137D02*
X229Y1137D01*
X259Y1137D02*
X294Y1137D01*
X1191Y1137D02*
X1226Y1137D01*
X1255Y1137D02*
X1292Y1137D01*
X193Y1136D02*
X229Y1136D01*
X259Y1136D02*
X295Y1136D01*
X1191Y1136D02*
X1226Y1136D01*
X1256Y1136D02*
X1292Y1136D01*
X193Y1135D02*
X228Y1135D01*
X260Y1135D02*
X295Y1135D01*
X1191Y1135D02*
X1225Y1135D01*
X1256Y1135D02*
X1292Y1135D01*
X193Y1134D02*
X228Y1134D01*
X260Y1134D02*
X295Y1134D01*
X1191Y1134D02*
X1225Y1134D01*
X1256Y1134D02*
X1293Y1134D01*
X193Y1133D02*
X228Y1133D01*
X260Y1133D02*
X295Y1133D01*
X1190Y1133D02*
X1225Y1133D01*
X1257Y1133D02*
X1293Y1133D01*
X193Y1132D02*
X228Y1132D01*
X261Y1132D02*
X295Y1132D01*
X1190Y1132D02*
X1225Y1132D01*
X1257Y1132D02*
X1293Y1132D01*
X193Y1131D02*
X227Y1131D01*
X261Y1131D02*
X295Y1131D01*
X1190Y1131D02*
X1224Y1131D01*
X1257Y1131D02*
X1293Y1131D01*
X193Y1130D02*
X227Y1130D01*
X261Y1130D02*
X295Y1130D01*
X1190Y1130D02*
X1224Y1130D01*
X1257Y1130D02*
X1293Y1130D01*
X193Y1129D02*
X227Y1129D01*
X261Y1129D02*
X295Y1129D01*
X1190Y1129D02*
X1224Y1129D01*
X1257Y1129D02*
X1293Y1129D01*
X193Y1128D02*
X227Y1128D01*
X261Y1128D02*
X295Y1128D01*
X1190Y1128D02*
X1224Y1128D01*
X1257Y1128D02*
X1293Y1128D01*
X193Y1127D02*
X227Y1127D01*
X261Y1127D02*
X295Y1127D01*
X1190Y1127D02*
X1225Y1127D01*
X1257Y1127D02*
X1293Y1127D01*
X193Y1126D02*
X228Y1126D01*
X260Y1126D02*
X295Y1126D01*
X1190Y1126D02*
X1225Y1126D01*
X1257Y1126D02*
X1293Y1126D01*
X193Y1125D02*
X228Y1125D01*
X260Y1125D02*
X295Y1125D01*
X1190Y1125D02*
X1225Y1125D01*
X1257Y1125D02*
X1293Y1125D01*
X193Y1124D02*
X228Y1124D01*
X260Y1124D02*
X295Y1124D01*
X1191Y1124D02*
X1225Y1124D01*
X1256Y1124D02*
X1292Y1124D01*
X193Y1123D02*
X229Y1123D01*
X259Y1123D02*
X295Y1123D01*
X1191Y1123D02*
X1226Y1123D01*
X1256Y1123D02*
X1292Y1123D01*
X194Y1122D02*
X229Y1122D01*
X259Y1122D02*
X294Y1122D01*
X1191Y1122D02*
X1226Y1122D01*
X1255Y1122D02*
X1292Y1122D01*
X194Y1121D02*
X230Y1121D01*
X258Y1121D02*
X294Y1121D01*
X1191Y1121D02*
X1227Y1121D01*
X1255Y1121D02*
X1292Y1121D01*
X194Y1120D02*
X230Y1120D01*
X258Y1120D02*
X294Y1120D01*
X1192Y1120D02*
X1227Y1120D01*
X1254Y1120D02*
X1291Y1120D01*
X195Y1119D02*
X231Y1119D01*
X257Y1119D02*
X293Y1119D01*
X1192Y1119D02*
X1228Y1119D01*
X1253Y1119D02*
X1291Y1119D01*
X195Y1118D02*
X232Y1118D01*
X256Y1118D02*
X293Y1118D01*
X1193Y1118D02*
X1229Y1118D01*
X1253Y1118D02*
X1290Y1118D01*
X196Y1117D02*
X233Y1117D01*
X255Y1117D02*
X292Y1117D01*
X1193Y1117D02*
X1230Y1117D01*
X1251Y1117D02*
X1290Y1117D01*
X196Y1116D02*
X234Y1116D01*
X254Y1116D02*
X292Y1116D01*
X1194Y1116D02*
X1231Y1116D01*
X1250Y1116D02*
X1289Y1116D01*
X197Y1115D02*
X236Y1115D01*
X252Y1115D02*
X291Y1115D01*
X1194Y1115D02*
X1233Y1115D01*
X1248Y1115D02*
X1289Y1115D01*
X198Y1114D02*
X239Y1114D01*
X249Y1114D02*
X290Y1114D01*
X1195Y1114D02*
X1236Y1114D01*
X1246Y1114D02*
X1288Y1114D01*
X198Y1113D02*
X290Y1113D01*
X1196Y1113D02*
X1287Y1113D01*
X199Y1112D02*
X289Y1112D01*
X1197Y1112D02*
X1286Y1112D01*
X200Y1111D02*
X288Y1111D01*
X1198Y1111D02*
X1285Y1111D01*
X201Y1110D02*
X287Y1110D01*
X1199Y1110D02*
X1284Y1110D01*
X203Y1109D02*
X286Y1109D01*
X1200Y1109D02*
X1283Y1109D01*
X204Y1108D02*
X284Y1108D01*
X1201Y1108D02*
X1282Y1108D01*
X205Y1107D02*
X283Y1107D01*
X1203Y1107D02*
X1280Y1107D01*
X207Y1106D02*
X281Y1106D01*
X1205Y1106D02*
X1278Y1106D01*
X209Y1105D02*
X279Y1105D01*
X1207Y1105D02*
X1276Y1105D01*
X213Y1104D02*
X275Y1104D01*
X1210Y1104D02*
X1273Y1104D01*
X214Y1055D02*
X274Y1055D01*
X1212Y1055D02*
X1271Y1055D01*
X210Y1054D02*
X278Y1054D01*
X1208Y1054D02*
X1275Y1054D01*
X208Y1053D02*
X280Y1053D01*
X1205Y1053D02*
X1278Y1053D01*
X206Y1052D02*
X282Y1052D01*
X1204Y1052D02*
X1280Y1052D01*
X204Y1051D02*
X284Y1051D01*
X1202Y1051D02*
X1281Y1051D01*
X203Y1050D02*
X285Y1050D01*
X1200Y1050D02*
X1283Y1050D01*
X202Y1049D02*
X286Y1049D01*
X1199Y1049D02*
X1284Y1049D01*
X200Y1048D02*
X288Y1048D01*
X1198Y1048D02*
X1285Y1048D01*
X200Y1047D02*
X288Y1047D01*
X1197Y1047D02*
X1286Y1047D01*
X199Y1046D02*
X289Y1046D01*
X1196Y1046D02*
X1287Y1046D01*
X198Y1045D02*
X241Y1045D01*
X247Y1045D02*
X290Y1045D01*
X1195Y1045D02*
X1238Y1045D01*
X1244Y1045D02*
X1288Y1045D01*
X197Y1044D02*
X237Y1044D01*
X251Y1044D02*
X291Y1044D01*
X1195Y1044D02*
X1234Y1044D01*
X1248Y1044D02*
X1288Y1044D01*
X197Y1043D02*
X235Y1043D01*
X253Y1043D02*
X292Y1043D01*
X1194Y1043D02*
X1232Y1043D01*
X1249Y1043D02*
X1289Y1043D01*
X196Y1042D02*
X234Y1042D01*
X254Y1042D02*
X292Y1042D01*
X1193Y1042D02*
X1231Y1042D01*
X1251Y1042D02*
X1290Y1042D01*
X195Y1041D02*
X233Y1041D01*
X255Y1041D02*
X293Y1041D01*
X1193Y1041D02*
X1229Y1041D01*
X1252Y1041D02*
X1290Y1041D01*
X195Y1040D02*
X232Y1040D01*
X256Y1040D02*
X293Y1040D01*
X1192Y1040D02*
X1228Y1040D01*
X1253Y1040D02*
X1291Y1040D01*
X194Y1039D02*
X231Y1039D01*
X257Y1039D02*
X294Y1039D01*
X1192Y1039D02*
X1228Y1039D01*
X1254Y1039D02*
X1291Y1039D01*
X194Y1038D02*
X230Y1038D01*
X258Y1038D02*
X294Y1038D01*
X1192Y1038D02*
X1227Y1038D01*
X1255Y1038D02*
X1292Y1038D01*
X194Y1037D02*
X230Y1037D01*
X258Y1037D02*
X294Y1037D01*
X1191Y1037D02*
X1226Y1037D01*
X1255Y1037D02*
X1292Y1037D01*
X193Y1036D02*
X229Y1036D01*
X259Y1036D02*
X295Y1036D01*
X1191Y1036D02*
X1226Y1036D01*
X1256Y1036D02*
X1292Y1036D01*
X193Y1035D02*
X229Y1035D01*
X259Y1035D02*
X295Y1035D01*
X1191Y1035D02*
X1225Y1035D01*
X1256Y1035D02*
X1292Y1035D01*
X193Y1034D02*
X228Y1034D01*
X260Y1034D02*
X295Y1034D01*
X1190Y1034D02*
X1225Y1034D01*
X1256Y1034D02*
X1293Y1034D01*
X193Y1033D02*
X228Y1033D01*
X260Y1033D02*
X295Y1033D01*
X1190Y1033D02*
X1225Y1033D01*
X1257Y1033D02*
X1293Y1033D01*
X193Y1032D02*
X228Y1032D01*
X260Y1032D02*
X295Y1032D01*
X1190Y1032D02*
X1225Y1032D01*
X1257Y1032D02*
X1293Y1032D01*
X193Y1031D02*
X228Y1031D01*
X260Y1031D02*
X295Y1031D01*
X1190Y1031D02*
X1224Y1031D01*
X1257Y1031D02*
X1293Y1031D01*
X193Y1030D02*
X228Y1030D01*
X260Y1030D02*
X295Y1030D01*
X1190Y1030D02*
X1224Y1030D01*
X1257Y1030D02*
X1293Y1030D01*
X193Y1029D02*
X228Y1029D01*
X261Y1029D02*
X295Y1029D01*
X1190Y1029D02*
X1224Y1029D01*
X1257Y1029D02*
X1293Y1029D01*
X193Y1028D02*
X228Y1028D01*
X260Y1028D02*
X295Y1028D01*
X1190Y1028D02*
X1224Y1028D01*
X1257Y1028D02*
X1293Y1028D01*
X193Y1027D02*
X228Y1027D01*
X260Y1027D02*
X295Y1027D01*
X1190Y1027D02*
X1225Y1027D01*
X1257Y1027D02*
X1293Y1027D01*
X193Y1026D02*
X228Y1026D01*
X260Y1026D02*
X295Y1026D01*
X1190Y1026D02*
X1225Y1026D01*
X1257Y1026D02*
X1293Y1026D01*
X193Y1025D02*
X228Y1025D01*
X260Y1025D02*
X295Y1025D01*
X1190Y1025D02*
X1225Y1025D01*
X1257Y1025D02*
X1293Y1025D01*
X193Y1024D02*
X229Y1024D01*
X260Y1024D02*
X295Y1024D01*
X1191Y1024D02*
X1225Y1024D01*
X1256Y1024D02*
X1292Y1024D01*
X193Y1023D02*
X229Y1023D01*
X259Y1023D02*
X295Y1023D01*
X1191Y1023D02*
X1226Y1023D01*
X1256Y1023D02*
X1292Y1023D01*
X194Y1022D02*
X229Y1022D01*
X259Y1022D02*
X294Y1022D01*
X1191Y1022D02*
X1226Y1022D01*
X1255Y1022D02*
X1292Y1022D01*
X194Y1021D02*
X230Y1021D01*
X258Y1021D02*
X294Y1021D01*
X1191Y1021D02*
X1227Y1021D01*
X1255Y1021D02*
X1292Y1021D01*
X194Y1020D02*
X231Y1020D01*
X258Y1020D02*
X294Y1020D01*
X1192Y1020D02*
X1227Y1020D01*
X1254Y1020D02*
X1291Y1020D01*
X195Y1019D02*
X231Y1019D01*
X257Y1019D02*
X293Y1019D01*
X1192Y1019D02*
X1228Y1019D01*
X1253Y1019D02*
X1291Y1019D01*
X195Y1018D02*
X232Y1018D01*
X256Y1018D02*
X293Y1018D01*
X1193Y1018D02*
X1229Y1018D01*
X1253Y1018D02*
X1290Y1018D01*
X196Y1017D02*
X233Y1017D01*
X255Y1017D02*
X292Y1017D01*
X1193Y1017D02*
X1230Y1017D01*
X1251Y1017D02*
X1290Y1017D01*
X196Y1016D02*
X235Y1016D01*
X253Y1016D02*
X292Y1016D01*
X1194Y1016D02*
X1231Y1016D01*
X1250Y1016D02*
X1289Y1016D01*
X197Y1015D02*
X237Y1015D01*
X252Y1015D02*
X291Y1015D01*
X1194Y1015D02*
X1233Y1015D01*
X1248Y1015D02*
X1289Y1015D01*
X198Y1014D02*
X239Y1014D01*
X249Y1014D02*
X290Y1014D01*
X1195Y1014D02*
X1236Y1014D01*
X1246Y1014D02*
X1288Y1014D01*
X198Y1013D02*
X290Y1013D01*
X1196Y1013D02*
X1287Y1013D01*
X199Y1012D02*
X289Y1012D01*
X1197Y1012D02*
X1286Y1012D01*
X200Y1011D02*
X288Y1011D01*
X1198Y1011D02*
X1285Y1011D01*
X201Y1010D02*
X287Y1010D01*
X1199Y1010D02*
X1284Y1010D01*
X203Y1009D02*
X285Y1009D01*
X1200Y1009D02*
X1283Y1009D01*
X204Y1008D02*
X284Y1008D01*
X1201Y1008D02*
X1282Y1008D01*
X205Y1007D02*
X283Y1007D01*
X1203Y1007D02*
X1280Y1007D01*
X207Y1006D02*
X281Y1006D01*
X1205Y1006D02*
X1278Y1006D01*
X210Y1005D02*
X278Y1005D01*
X1207Y1005D02*
X1276Y1005D01*
X213Y1004D02*
X275Y1004D01*
X1210Y1004D02*
X1273Y1004D01*
X214Y955D02*
X274Y955D01*
X1212Y955D02*
X1271Y955D01*
X210Y954D02*
X278Y954D01*
X1208Y954D02*
X1275Y954D01*
X208Y953D02*
X280Y953D01*
X1205Y953D02*
X1278Y953D01*
X206Y952D02*
X282Y952D01*
X1204Y952D02*
X1280Y952D01*
X204Y951D02*
X284Y951D01*
X1202Y951D02*
X1281Y951D01*
X203Y950D02*
X285Y950D01*
X1200Y950D02*
X1283Y950D01*
X202Y949D02*
X286Y949D01*
X1199Y949D02*
X1284Y949D01*
X200Y948D02*
X288Y948D01*
X1198Y948D02*
X1285Y948D01*
X200Y947D02*
X288Y947D01*
X1197Y947D02*
X1286Y947D01*
X199Y946D02*
X289Y946D01*
X1196Y946D02*
X1287Y946D01*
X198Y945D02*
X241Y945D01*
X248Y945D02*
X290Y945D01*
X1195Y945D02*
X1237Y945D01*
X1244Y945D02*
X1288Y945D01*
X197Y944D02*
X237Y944D01*
X251Y944D02*
X291Y944D01*
X1195Y944D02*
X1234Y944D01*
X1248Y944D02*
X1289Y944D01*
X196Y943D02*
X235Y943D01*
X253Y943D02*
X292Y943D01*
X1194Y943D02*
X1232Y943D01*
X1249Y943D02*
X1289Y943D01*
X196Y942D02*
X234Y942D01*
X254Y942D02*
X292Y942D01*
X1193Y942D02*
X1231Y942D01*
X1251Y942D02*
X1290Y942D01*
X195Y941D02*
X233Y941D01*
X255Y941D02*
X293Y941D01*
X1193Y941D02*
X1229Y941D01*
X1252Y941D02*
X1290Y941D01*
X195Y940D02*
X232Y940D01*
X256Y940D02*
X293Y940D01*
X1192Y940D02*
X1228Y940D01*
X1253Y940D02*
X1291Y940D01*
X194Y939D02*
X231Y939D01*
X257Y939D02*
X294Y939D01*
X1192Y939D02*
X1228Y939D01*
X1254Y939D02*
X1291Y939D01*
X194Y938D02*
X230Y938D01*
X258Y938D02*
X294Y938D01*
X1192Y938D02*
X1227Y938D01*
X1255Y938D02*
X1292Y938D01*
X194Y937D02*
X230Y937D01*
X258Y937D02*
X294Y937D01*
X1191Y937D02*
X1226Y937D01*
X1255Y937D02*
X1292Y937D01*
X193Y936D02*
X229Y936D01*
X259Y936D02*
X295Y936D01*
X1191Y936D02*
X1226Y936D01*
X1256Y936D02*
X1292Y936D01*
X193Y935D02*
X229Y935D01*
X259Y935D02*
X295Y935D01*
X1191Y935D02*
X1225Y935D01*
X1256Y935D02*
X1292Y935D01*
X193Y934D02*
X228Y934D01*
X260Y934D02*
X295Y934D01*
X1191Y934D02*
X1225Y934D01*
X1257Y934D02*
X1293Y934D01*
X193Y933D02*
X228Y933D01*
X260Y933D02*
X295Y933D01*
X1190Y933D02*
X1225Y933D01*
X1257Y933D02*
X1293Y933D01*
X193Y932D02*
X228Y932D01*
X260Y932D02*
X295Y932D01*
X1190Y932D02*
X1225Y932D01*
X1257Y932D02*
X1293Y932D01*
X193Y931D02*
X228Y931D01*
X260Y931D02*
X295Y931D01*
X1190Y931D02*
X1224Y931D01*
X1257Y931D02*
X1293Y931D01*
X193Y930D02*
X228Y930D01*
X260Y930D02*
X295Y930D01*
X1190Y930D02*
X1224Y930D01*
X1257Y930D02*
X1293Y930D01*
X193Y929D02*
X228Y929D01*
X261Y929D02*
X295Y929D01*
X1190Y929D02*
X1224Y929D01*
X1257Y929D02*
X1293Y929D01*
X193Y928D02*
X228Y928D01*
X260Y928D02*
X295Y928D01*
X1190Y928D02*
X1224Y928D01*
X1257Y928D02*
X1293Y928D01*
X193Y927D02*
X228Y927D01*
X260Y927D02*
X295Y927D01*
X1190Y927D02*
X1225Y927D01*
X1257Y927D02*
X1293Y927D01*
X193Y926D02*
X228Y926D01*
X260Y926D02*
X295Y926D01*
X1190Y926D02*
X1225Y926D01*
X1257Y926D02*
X1293Y926D01*
X193Y925D02*
X228Y925D01*
X260Y925D02*
X295Y925D01*
X1190Y925D02*
X1225Y925D01*
X1257Y925D02*
X1293Y925D01*
X193Y924D02*
X229Y924D01*
X260Y924D02*
X295Y924D01*
X1191Y924D02*
X1225Y924D01*
X1256Y924D02*
X1293Y924D01*
X193Y923D02*
X229Y923D01*
X259Y923D02*
X295Y923D01*
X1191Y923D02*
X1226Y923D01*
X1256Y923D02*
X1292Y923D01*
X194Y922D02*
X229Y922D01*
X259Y922D02*
X294Y922D01*
X1191Y922D02*
X1226Y922D01*
X1255Y922D02*
X1292Y922D01*
X194Y921D02*
X230Y921D01*
X258Y921D02*
X294Y921D01*
X1191Y921D02*
X1227Y921D01*
X1255Y921D02*
X1292Y921D01*
X194Y920D02*
X231Y920D01*
X257Y920D02*
X294Y920D01*
X1192Y920D02*
X1227Y920D01*
X1254Y920D02*
X1291Y920D01*
X195Y919D02*
X231Y919D01*
X257Y919D02*
X293Y919D01*
X1192Y919D02*
X1228Y919D01*
X1253Y919D02*
X1291Y919D01*
X195Y918D02*
X232Y918D01*
X256Y918D02*
X293Y918D01*
X1193Y918D02*
X1229Y918D01*
X1253Y918D02*
X1290Y918D01*
X196Y917D02*
X233Y917D01*
X255Y917D02*
X292Y917D01*
X1193Y917D02*
X1230Y917D01*
X1251Y917D02*
X1290Y917D01*
X196Y916D02*
X235Y916D01*
X253Y916D02*
X292Y916D01*
X1194Y916D02*
X1232Y916D01*
X1250Y916D02*
X1289Y916D01*
X197Y915D02*
X237Y915D01*
X252Y915D02*
X291Y915D01*
X1194Y915D02*
X1233Y915D01*
X1248Y915D02*
X1289Y915D01*
X198Y914D02*
X239Y914D01*
X249Y914D02*
X290Y914D01*
X1195Y914D02*
X1236Y914D01*
X1246Y914D02*
X1288Y914D01*
X199Y913D02*
X290Y913D01*
X1196Y913D02*
X1287Y913D01*
X199Y912D02*
X289Y912D01*
X1197Y912D02*
X1286Y912D01*
X200Y911D02*
X288Y911D01*
X1198Y911D02*
X1285Y911D01*
X201Y910D02*
X287Y910D01*
X1199Y910D02*
X1284Y910D01*
X203Y909D02*
X285Y909D01*
X1200Y909D02*
X1283Y909D01*
X204Y908D02*
X284Y908D01*
X1201Y908D02*
X1282Y908D01*
X206Y907D02*
X283Y907D01*
X1203Y907D02*
X1280Y907D01*
X207Y906D02*
X281Y906D01*
X1205Y906D02*
X1278Y906D01*
X210Y905D02*
X278Y905D01*
X1207Y905D02*
X1276Y905D01*
X213Y904D02*
X275Y904D01*
X1211Y904D02*
X1273Y904D01*
X214Y855D02*
X274Y855D01*
X1212Y855D02*
X1271Y855D01*
X210Y854D02*
X278Y854D01*
X1208Y854D02*
X1275Y854D01*
X208Y853D02*
X280Y853D01*
X1205Y853D02*
X1278Y853D01*
X206Y852D02*
X282Y852D01*
X1203Y852D02*
X1280Y852D01*
X204Y851D02*
X284Y851D01*
X1202Y851D02*
X1281Y851D01*
X203Y850D02*
X285Y850D01*
X1200Y850D02*
X1283Y850D01*
X202Y849D02*
X286Y849D01*
X1199Y849D02*
X1284Y849D01*
X200Y848D02*
X288Y848D01*
X1198Y848D02*
X1285Y848D01*
X200Y847D02*
X289Y847D01*
X1197Y847D02*
X1286Y847D01*
X199Y846D02*
X289Y846D01*
X1196Y846D02*
X1287Y846D01*
X198Y845D02*
X240Y845D01*
X248Y845D02*
X290Y845D01*
X1195Y845D02*
X1237Y845D01*
X1245Y845D02*
X1288Y845D01*
X197Y844D02*
X237Y844D01*
X251Y844D02*
X291Y844D01*
X1195Y844D02*
X1234Y844D01*
X1248Y844D02*
X1289Y844D01*
X196Y843D02*
X235Y843D01*
X253Y843D02*
X292Y843D01*
X1194Y843D02*
X1232Y843D01*
X1250Y843D02*
X1289Y843D01*
X196Y842D02*
X234Y842D01*
X254Y842D02*
X292Y842D01*
X1193Y842D02*
X1230Y842D01*
X1251Y842D02*
X1290Y842D01*
X195Y841D02*
X232Y841D01*
X256Y841D02*
X293Y841D01*
X1193Y841D02*
X1229Y841D01*
X1252Y841D02*
X1290Y841D01*
X195Y840D02*
X231Y840D01*
X257Y840D02*
X293Y840D01*
X1192Y840D02*
X1228Y840D01*
X1253Y840D02*
X1291Y840D01*
X194Y839D02*
X231Y839D01*
X257Y839D02*
X294Y839D01*
X1192Y839D02*
X1227Y839D01*
X1254Y839D02*
X1291Y839D01*
X194Y838D02*
X230Y838D01*
X258Y838D02*
X294Y838D01*
X1192Y838D02*
X1227Y838D01*
X1255Y838D02*
X1292Y838D01*
X194Y837D02*
X229Y837D01*
X259Y837D02*
X294Y837D01*
X1191Y837D02*
X1226Y837D01*
X1255Y837D02*
X1292Y837D01*
X193Y836D02*
X229Y836D01*
X259Y836D02*
X295Y836D01*
X1191Y836D02*
X1226Y836D01*
X1256Y836D02*
X1292Y836D01*
X193Y835D02*
X228Y835D01*
X260Y835D02*
X295Y835D01*
X1191Y835D02*
X1225Y835D01*
X1256Y835D02*
X1292Y835D01*
X193Y834D02*
X228Y834D01*
X260Y834D02*
X295Y834D01*
X1190Y834D02*
X1225Y834D01*
X1257Y834D02*
X1293Y834D01*
X193Y833D02*
X228Y833D01*
X260Y833D02*
X295Y833D01*
X1190Y833D02*
X1225Y833D01*
X1257Y833D02*
X1293Y833D01*
X193Y832D02*
X228Y832D01*
X260Y832D02*
X295Y832D01*
X1190Y832D02*
X1224Y832D01*
X1257Y832D02*
X1293Y832D01*
X193Y831D02*
X227Y831D01*
X261Y831D02*
X295Y831D01*
X1190Y831D02*
X1224Y831D01*
X1257Y831D02*
X1293Y831D01*
X193Y830D02*
X227Y830D01*
X261Y830D02*
X295Y830D01*
X1190Y830D02*
X1224Y830D01*
X1257Y830D02*
X1293Y830D01*
X193Y829D02*
X227Y829D01*
X261Y829D02*
X295Y829D01*
X1190Y829D02*
X1224Y829D01*
X1257Y829D02*
X1293Y829D01*
X193Y828D02*
X227Y828D01*
X261Y828D02*
X295Y828D01*
X1190Y828D02*
X1224Y828D01*
X1257Y828D02*
X1293Y828D01*
X193Y827D02*
X228Y827D01*
X261Y827D02*
X295Y827D01*
X1190Y827D02*
X1224Y827D01*
X1257Y827D02*
X1293Y827D01*
X193Y826D02*
X228Y826D01*
X260Y826D02*
X295Y826D01*
X1190Y826D02*
X1225Y826D01*
X1257Y826D02*
X1293Y826D01*
X193Y825D02*
X228Y825D01*
X260Y825D02*
X295Y825D01*
X1190Y825D02*
X1225Y825D01*
X1257Y825D02*
X1293Y825D01*
X193Y824D02*
X228Y824D01*
X260Y824D02*
X295Y824D01*
X1191Y824D02*
X1225Y824D01*
X1257Y824D02*
X1292Y824D01*
X193Y823D02*
X229Y823D01*
X259Y823D02*
X295Y823D01*
X1191Y823D02*
X1225Y823D01*
X1256Y823D02*
X1292Y823D01*
X194Y822D02*
X229Y822D01*
X259Y822D02*
X294Y822D01*
X1191Y822D02*
X1226Y822D01*
X1256Y822D02*
X1292Y822D01*
X194Y821D02*
X230Y821D01*
X258Y821D02*
X294Y821D01*
X1191Y821D02*
X1226Y821D01*
X1255Y821D02*
X1292Y821D01*
X194Y820D02*
X230Y820D01*
X258Y820D02*
X294Y820D01*
X1192Y820D02*
X1227Y820D01*
X1254Y820D02*
X1291Y820D01*
X195Y819D02*
X231Y819D01*
X257Y819D02*
X293Y819D01*
X1192Y819D02*
X1228Y819D01*
X1254Y819D02*
X1291Y819D01*
X195Y818D02*
X232Y818D01*
X256Y818D02*
X293Y818D01*
X1193Y818D02*
X1229Y818D01*
X1253Y818D02*
X1290Y818D01*
X196Y817D02*
X233Y817D01*
X255Y817D02*
X292Y817D01*
X1193Y817D02*
X1230Y817D01*
X1252Y817D02*
X1290Y817D01*
X196Y816D02*
X235Y816D01*
X253Y816D02*
X292Y816D01*
X1194Y816D02*
X1231Y816D01*
X1250Y816D02*
X1289Y816D01*
X197Y815D02*
X236Y815D01*
X252Y815D02*
X291Y815D01*
X1194Y815D02*
X1233Y815D01*
X1248Y815D02*
X1289Y815D01*
X198Y814D02*
X239Y814D01*
X249Y814D02*
X290Y814D01*
X1195Y814D02*
X1236Y814D01*
X1246Y814D02*
X1288Y814D01*
X199Y813D02*
X290Y813D01*
X1196Y813D02*
X1287Y813D01*
X199Y812D02*
X289Y812D01*
X1197Y812D02*
X1286Y812D01*
X200Y811D02*
X288Y811D01*
X1198Y811D02*
X1285Y811D01*
X201Y810D02*
X287Y810D01*
X1199Y810D02*
X1284Y810D01*
X203Y809D02*
X285Y809D01*
X1200Y809D02*
X1283Y809D01*
X204Y808D02*
X284Y808D01*
X1201Y808D02*
X1282Y808D01*
X206Y807D02*
X282Y807D01*
X1203Y807D02*
X1280Y807D01*
X207Y806D02*
X281Y806D01*
X1205Y806D02*
X1278Y806D01*
X210Y805D02*
X278Y805D01*
X1207Y805D02*
X1276Y805D01*
X213Y804D02*
X275Y804D01*
X1211Y804D02*
X1272Y804D01*
X214Y755D02*
X274Y755D01*
X1212Y755D02*
X1272Y755D01*
X210Y754D02*
X278Y754D01*
X1208Y754D02*
X1276Y754D01*
X208Y753D02*
X280Y753D01*
X1205Y753D02*
X1278Y753D01*
X206Y752D02*
X282Y752D01*
X1203Y752D02*
X1280Y752D01*
X204Y751D02*
X284Y751D01*
X1202Y751D02*
X1282Y751D01*
X203Y750D02*
X285Y750D01*
X1200Y750D02*
X1283Y750D01*
X202Y749D02*
X286Y749D01*
X1199Y749D02*
X1284Y749D01*
X200Y748D02*
X288Y748D01*
X1198Y748D02*
X1285Y748D01*
X199Y747D02*
X289Y747D01*
X1197Y747D02*
X1286Y747D01*
X199Y746D02*
X289Y746D01*
X1196Y746D02*
X1287Y746D01*
X198Y745D02*
X240Y745D01*
X248Y745D02*
X290Y745D01*
X1195Y745D02*
X1237Y745D01*
X1245Y745D02*
X1288Y745D01*
X197Y744D02*
X237Y744D01*
X251Y744D02*
X291Y744D01*
X1195Y744D02*
X1234Y744D01*
X1248Y744D02*
X1289Y744D01*
X196Y743D02*
X235Y743D01*
X253Y743D02*
X292Y743D01*
X1194Y743D02*
X1232Y743D01*
X1250Y743D02*
X1289Y743D01*
X196Y742D02*
X234Y742D01*
X255Y742D02*
X292Y742D01*
X1193Y742D02*
X1230Y742D01*
X1251Y742D02*
X1290Y742D01*
X195Y741D02*
X232Y741D01*
X256Y741D02*
X293Y741D01*
X1193Y741D02*
X1229Y741D01*
X1252Y741D02*
X1290Y741D01*
X195Y740D02*
X231Y740D01*
X257Y740D02*
X293Y740D01*
X1192Y740D02*
X1228Y740D01*
X1253Y740D02*
X1291Y740D01*
X194Y739D02*
X231Y739D01*
X257Y739D02*
X294Y739D01*
X1192Y739D02*
X1227Y739D01*
X1254Y739D02*
X1291Y739D01*
X194Y738D02*
X230Y738D01*
X258Y738D02*
X294Y738D01*
X1192Y738D02*
X1227Y738D01*
X1255Y738D02*
X1292Y738D01*
X194Y737D02*
X229Y737D01*
X259Y737D02*
X294Y737D01*
X1191Y737D02*
X1226Y737D01*
X1256Y737D02*
X1292Y737D01*
X193Y736D02*
X229Y736D01*
X259Y736D02*
X295Y736D01*
X1191Y736D02*
X1226Y736D01*
X1256Y736D02*
X1292Y736D01*
X193Y735D02*
X228Y735D01*
X260Y735D02*
X295Y735D01*
X1191Y735D02*
X1225Y735D01*
X1256Y735D02*
X1292Y735D01*
X193Y734D02*
X228Y734D01*
X260Y734D02*
X295Y734D01*
X1191Y734D02*
X1225Y734D01*
X1257Y734D02*
X1293Y734D01*
X193Y733D02*
X228Y733D01*
X260Y733D02*
X295Y733D01*
X1190Y733D02*
X1225Y733D01*
X1257Y733D02*
X1293Y733D01*
X193Y732D02*
X228Y732D01*
X260Y732D02*
X295Y732D01*
X1190Y732D02*
X1224Y732D01*
X1257Y732D02*
X1293Y732D01*
X193Y731D02*
X227Y731D01*
X261Y731D02*
X295Y731D01*
X1190Y731D02*
X1224Y731D01*
X1257Y731D02*
X1293Y731D01*
X193Y730D02*
X227Y730D01*
X261Y730D02*
X295Y730D01*
X1190Y730D02*
X1224Y730D01*
X1257Y730D02*
X1293Y730D01*
X193Y729D02*
X227Y729D01*
X261Y729D02*
X295Y729D01*
X1190Y729D02*
X1224Y729D01*
X1257Y729D02*
X1293Y729D01*
X193Y728D02*
X227Y728D01*
X261Y728D02*
X295Y728D01*
X1190Y728D02*
X1224Y728D01*
X1257Y728D02*
X1293Y728D01*
X193Y727D02*
X228Y727D01*
X261Y727D02*
X295Y727D01*
X1190Y727D02*
X1224Y727D01*
X1257Y727D02*
X1293Y727D01*
X193Y726D02*
X228Y726D01*
X260Y726D02*
X295Y726D01*
X1190Y726D02*
X1225Y726D01*
X1257Y726D02*
X1293Y726D01*
X193Y725D02*
X228Y725D01*
X260Y725D02*
X295Y725D01*
X1190Y725D02*
X1225Y725D01*
X1257Y725D02*
X1293Y725D01*
X193Y724D02*
X228Y724D01*
X260Y724D02*
X295Y724D01*
X1191Y724D02*
X1225Y724D01*
X1257Y724D02*
X1292Y724D01*
X193Y723D02*
X229Y723D01*
X259Y723D02*
X295Y723D01*
X1191Y723D02*
X1225Y723D01*
X1256Y723D02*
X1292Y723D01*
X194Y722D02*
X229Y722D01*
X259Y722D02*
X294Y722D01*
X1191Y722D02*
X1226Y722D01*
X1256Y722D02*
X1292Y722D01*
X194Y721D02*
X230Y721D01*
X258Y721D02*
X294Y721D01*
X1192Y721D02*
X1227Y721D01*
X1255Y721D02*
X1292Y721D01*
X194Y720D02*
X230Y720D01*
X258Y720D02*
X294Y720D01*
X1192Y720D02*
X1227Y720D01*
X1254Y720D02*
X1291Y720D01*
X195Y719D02*
X231Y719D01*
X257Y719D02*
X293Y719D01*
X1192Y719D02*
X1228Y719D01*
X1254Y719D02*
X1291Y719D01*
X195Y718D02*
X232Y718D01*
X256Y718D02*
X293Y718D01*
X1193Y718D02*
X1229Y718D01*
X1253Y718D02*
X1290Y718D01*
X196Y717D02*
X233Y717D01*
X255Y717D02*
X292Y717D01*
X1193Y717D02*
X1230Y717D01*
X1252Y717D02*
X1290Y717D01*
X196Y716D02*
X235Y716D01*
X253Y716D02*
X292Y716D01*
X1194Y716D02*
X1231Y716D01*
X1250Y716D02*
X1289Y716D01*
X197Y715D02*
X236Y715D01*
X252Y715D02*
X291Y715D01*
X1194Y715D02*
X1233Y715D01*
X1248Y715D02*
X1289Y715D01*
X198Y714D02*
X239Y714D01*
X249Y714D02*
X290Y714D01*
X1195Y714D02*
X1236Y714D01*
X1246Y714D02*
X1288Y714D01*
X199Y713D02*
X289Y713D01*
X1196Y713D02*
X1287Y713D01*
X199Y712D02*
X289Y712D01*
X1197Y712D02*
X1286Y712D01*
X200Y711D02*
X288Y711D01*
X1198Y711D02*
X1285Y711D01*
X201Y710D02*
X287Y710D01*
X1199Y710D02*
X1284Y710D01*
X203Y709D02*
X285Y709D01*
X1200Y709D02*
X1283Y709D01*
X204Y708D02*
X284Y708D01*
X1201Y708D02*
X1282Y708D01*
X206Y707D02*
X282Y707D01*
X1203Y707D02*
X1280Y707D01*
X207Y706D02*
X281Y706D01*
X1205Y706D02*
X1278Y706D01*
X210Y705D02*
X278Y705D01*
X1207Y705D02*
X1276Y705D01*
X213Y704D02*
X275Y704D01*
X1211Y704D02*
X1272Y704D01*
X214Y655D02*
X274Y655D01*
X1211Y655D02*
X1272Y655D01*
X210Y654D02*
X278Y654D01*
X1208Y654D02*
X1275Y654D01*
X208Y653D02*
X280Y653D01*
X1205Y653D02*
X1278Y653D01*
X206Y652D02*
X282Y652D01*
X1203Y652D02*
X1280Y652D01*
X204Y651D02*
X284Y651D01*
X1202Y651D02*
X1282Y651D01*
X203Y650D02*
X285Y650D01*
X1200Y650D02*
X1283Y650D01*
X202Y649D02*
X286Y649D01*
X1199Y649D02*
X1284Y649D01*
X200Y648D02*
X288Y648D01*
X1198Y648D02*
X1285Y648D01*
X199Y647D02*
X289Y647D01*
X1197Y647D02*
X1286Y647D01*
X199Y646D02*
X289Y646D01*
X1196Y646D02*
X1287Y646D01*
X198Y645D02*
X240Y645D01*
X248Y645D02*
X290Y645D01*
X1195Y645D02*
X1237Y645D01*
X1245Y645D02*
X1288Y645D01*
X197Y644D02*
X237Y644D01*
X251Y644D02*
X291Y644D01*
X1195Y644D02*
X1234Y644D01*
X1248Y644D02*
X1289Y644D01*
X196Y643D02*
X235Y643D01*
X253Y643D02*
X292Y643D01*
X1194Y643D02*
X1232Y643D01*
X1250Y643D02*
X1289Y643D01*
X196Y642D02*
X234Y642D01*
X255Y642D02*
X292Y642D01*
X1193Y642D02*
X1230Y642D01*
X1251Y642D02*
X1290Y642D01*
X195Y641D02*
X232Y641D01*
X256Y641D02*
X293Y641D01*
X1193Y641D02*
X1229Y641D01*
X1252Y641D02*
X1290Y641D01*
X195Y640D02*
X231Y640D01*
X257Y640D02*
X293Y640D01*
X1192Y640D02*
X1228Y640D01*
X1253Y640D02*
X1291Y640D01*
X194Y639D02*
X231Y639D01*
X257Y639D02*
X294Y639D01*
X1192Y639D02*
X1227Y639D01*
X1254Y639D02*
X1291Y639D01*
X194Y638D02*
X230Y638D01*
X258Y638D02*
X294Y638D01*
X1192Y638D02*
X1227Y638D01*
X1255Y638D02*
X1292Y638D01*
X194Y637D02*
X229Y637D01*
X259Y637D02*
X294Y637D01*
X1191Y637D02*
X1226Y637D01*
X1256Y637D02*
X1292Y637D01*
X193Y636D02*
X229Y636D01*
X259Y636D02*
X295Y636D01*
X1191Y636D02*
X1226Y636D01*
X1256Y636D02*
X1292Y636D01*
X193Y635D02*
X228Y635D01*
X260Y635D02*
X295Y635D01*
X1191Y635D02*
X1225Y635D01*
X1256Y635D02*
X1292Y635D01*
X193Y634D02*
X228Y634D01*
X260Y634D02*
X295Y634D01*
X1190Y634D02*
X1225Y634D01*
X1257Y634D02*
X1293Y634D01*
X193Y633D02*
X228Y633D01*
X260Y633D02*
X295Y633D01*
X1190Y633D02*
X1225Y633D01*
X1257Y633D02*
X1293Y633D01*
X193Y632D02*
X228Y632D01*
X260Y632D02*
X295Y632D01*
X1190Y632D02*
X1224Y632D01*
X1257Y632D02*
X1293Y632D01*
X193Y631D02*
X227Y631D01*
X261Y631D02*
X295Y631D01*
X1190Y631D02*
X1224Y631D01*
X1257Y631D02*
X1293Y631D01*
X193Y630D02*
X227Y630D01*
X261Y630D02*
X295Y630D01*
X1190Y630D02*
X1224Y630D01*
X1257Y630D02*
X1293Y630D01*
X193Y629D02*
X227Y629D01*
X261Y629D02*
X295Y629D01*
X1190Y629D02*
X1224Y629D01*
X1257Y629D02*
X1293Y629D01*
X193Y628D02*
X227Y628D01*
X261Y628D02*
X295Y628D01*
X1190Y628D02*
X1224Y628D01*
X1257Y628D02*
X1293Y628D01*
X193Y627D02*
X228Y627D01*
X261Y627D02*
X295Y627D01*
X1190Y627D02*
X1224Y627D01*
X1257Y627D02*
X1293Y627D01*
X193Y626D02*
X228Y626D01*
X260Y626D02*
X295Y626D01*
X1190Y626D02*
X1224Y626D01*
X1257Y626D02*
X1293Y626D01*
X193Y625D02*
X228Y625D01*
X260Y625D02*
X295Y625D01*
X1190Y625D02*
X1225Y625D01*
X1257Y625D02*
X1293Y625D01*
X193Y624D02*
X228Y624D01*
X260Y624D02*
X295Y624D01*
X1191Y624D02*
X1225Y624D01*
X1256Y624D02*
X1292Y624D01*
X193Y623D02*
X229Y623D01*
X259Y623D02*
X295Y623D01*
X1191Y623D02*
X1225Y623D01*
X1256Y623D02*
X1292Y623D01*
X194Y622D02*
X229Y622D01*
X259Y622D02*
X294Y622D01*
X1191Y622D02*
X1226Y622D01*
X1256Y622D02*
X1292Y622D01*
X194Y621D02*
X230Y621D01*
X258Y621D02*
X294Y621D01*
X1191Y621D02*
X1227Y621D01*
X1255Y621D02*
X1292Y621D01*
X194Y620D02*
X230Y620D01*
X258Y620D02*
X294Y620D01*
X1192Y620D02*
X1227Y620D01*
X1254Y620D02*
X1291Y620D01*
X195Y619D02*
X231Y619D01*
X257Y619D02*
X293Y619D01*
X1192Y619D02*
X1228Y619D01*
X1254Y619D02*
X1291Y619D01*
X195Y618D02*
X232Y618D01*
X256Y618D02*
X293Y618D01*
X1193Y618D02*
X1229Y618D01*
X1253Y618D02*
X1290Y618D01*
X196Y617D02*
X233Y617D01*
X255Y617D02*
X292Y617D01*
X1193Y617D02*
X1230Y617D01*
X1252Y617D02*
X1290Y617D01*
X196Y616D02*
X235Y616D01*
X253Y616D02*
X292Y616D01*
X1194Y616D02*
X1231Y616D01*
X1250Y616D02*
X1289Y616D01*
X197Y615D02*
X236Y615D01*
X252Y615D02*
X291Y615D01*
X1195Y615D02*
X1233Y615D01*
X1248Y615D02*
X1289Y615D01*
X198Y614D02*
X239Y614D01*
X249Y614D02*
X290Y614D01*
X1195Y614D02*
X1236Y614D01*
X1246Y614D02*
X1288Y614D01*
X199Y613D02*
X289Y613D01*
X1196Y613D02*
X1287Y613D01*
X199Y612D02*
X289Y612D01*
X1197Y612D02*
X1286Y612D01*
X200Y611D02*
X288Y611D01*
X1198Y611D02*
X1285Y611D01*
X201Y610D02*
X287Y610D01*
X1199Y610D02*
X1284Y610D01*
X203Y609D02*
X285Y609D01*
X1200Y609D02*
X1283Y609D01*
X204Y608D02*
X284Y608D01*
X1201Y608D02*
X1282Y608D01*
X206Y607D02*
X282Y607D01*
X1203Y607D02*
X1280Y607D01*
X208Y606D02*
X281Y606D01*
X1205Y606D02*
X1278Y606D01*
X210Y605D02*
X278Y605D01*
X1207Y605D02*
X1276Y605D01*
X213Y604D02*
X275Y604D01*
X1211Y604D02*
X1272Y604D01*
X214Y555D02*
X274Y555D01*
X1211Y555D02*
X1272Y555D01*
X210Y554D02*
X278Y554D01*
X1207Y554D02*
X1275Y554D01*
X208Y553D02*
X280Y553D01*
X1205Y553D02*
X1278Y553D01*
X206Y552D02*
X282Y552D01*
X1203Y552D02*
X1280Y552D01*
X204Y551D02*
X284Y551D01*
X1201Y551D02*
X1281Y551D01*
X203Y550D02*
X285Y550D01*
X1200Y550D02*
X1283Y550D01*
X202Y549D02*
X286Y549D01*
X1199Y549D02*
X1284Y549D01*
X200Y548D02*
X288Y548D01*
X1198Y548D02*
X1285Y548D01*
X199Y547D02*
X289Y547D01*
X1197Y547D02*
X1286Y547D01*
X199Y546D02*
X289Y546D01*
X1196Y546D02*
X1287Y546D01*
X198Y545D02*
X240Y545D01*
X248Y545D02*
X290Y545D01*
X1195Y545D02*
X1237Y545D01*
X1245Y545D02*
X1288Y545D01*
X197Y544D02*
X237Y544D01*
X251Y544D02*
X291Y544D01*
X1194Y544D02*
X1234Y544D01*
X1248Y544D02*
X1288Y544D01*
X196Y543D02*
X235Y543D01*
X253Y543D02*
X292Y543D01*
X1194Y543D02*
X1232Y543D01*
X1250Y543D02*
X1289Y543D01*
X196Y542D02*
X234Y542D01*
X254Y542D02*
X292Y542D01*
X1193Y542D02*
X1230Y542D01*
X1251Y542D02*
X1290Y542D01*
X195Y541D02*
X233Y541D01*
X256Y541D02*
X293Y541D01*
X1193Y541D02*
X1229Y541D01*
X1252Y541D02*
X1290Y541D01*
X195Y540D02*
X232Y540D01*
X256Y540D02*
X293Y540D01*
X1192Y540D02*
X1228Y540D01*
X1253Y540D02*
X1291Y540D01*
X194Y539D02*
X231Y539D01*
X257Y539D02*
X294Y539D01*
X1192Y539D02*
X1227Y539D01*
X1254Y539D02*
X1291Y539D01*
X194Y538D02*
X230Y538D01*
X258Y538D02*
X294Y538D01*
X1191Y538D02*
X1227Y538D01*
X1255Y538D02*
X1291Y538D01*
X194Y537D02*
X230Y537D01*
X259Y537D02*
X294Y537D01*
X1191Y537D02*
X1226Y537D01*
X1255Y537D02*
X1292Y537D01*
X193Y536D02*
X229Y536D01*
X259Y536D02*
X295Y536D01*
X1191Y536D02*
X1226Y536D01*
X1256Y536D02*
X1292Y536D01*
X193Y535D02*
X229Y535D01*
X259Y535D02*
X295Y535D01*
X1191Y535D02*
X1225Y535D01*
X1256Y535D02*
X1292Y535D01*
X193Y534D02*
X228Y534D01*
X260Y534D02*
X295Y534D01*
X1190Y534D02*
X1225Y534D01*
X1256Y534D02*
X1293Y534D01*
X193Y533D02*
X228Y533D01*
X260Y533D02*
X295Y533D01*
X1190Y533D02*
X1225Y533D01*
X1257Y533D02*
X1293Y533D01*
X193Y532D02*
X228Y532D01*
X260Y532D02*
X295Y532D01*
X1190Y532D02*
X1224Y532D01*
X1257Y532D02*
X1293Y532D01*
X193Y531D02*
X228Y531D01*
X260Y531D02*
X295Y531D01*
X1190Y531D02*
X1224Y531D01*
X1257Y531D02*
X1293Y531D01*
X193Y530D02*
X228Y530D01*
X260Y530D02*
X295Y530D01*
X1190Y530D02*
X1224Y530D01*
X1257Y530D02*
X1293Y530D01*
X193Y529D02*
X228Y529D01*
X260Y529D02*
X295Y529D01*
X1190Y529D02*
X1224Y529D01*
X1257Y529D02*
X1293Y529D01*
X193Y528D02*
X228Y528D01*
X260Y528D02*
X295Y528D01*
X1190Y528D02*
X1224Y528D01*
X1257Y528D02*
X1293Y528D01*
X193Y527D02*
X228Y527D01*
X260Y527D02*
X295Y527D01*
X1190Y527D02*
X1224Y527D01*
X1257Y527D02*
X1293Y527D01*
X193Y526D02*
X228Y526D01*
X260Y526D02*
X295Y526D01*
X1190Y526D02*
X1225Y526D01*
X1257Y526D02*
X1293Y526D01*
X193Y525D02*
X228Y525D01*
X260Y525D02*
X295Y525D01*
X1190Y525D02*
X1225Y525D01*
X1257Y525D02*
X1293Y525D01*
X193Y524D02*
X229Y524D01*
X260Y524D02*
X295Y524D01*
X1191Y524D02*
X1225Y524D01*
X1256Y524D02*
X1292Y524D01*
X193Y523D02*
X229Y523D01*
X259Y523D02*
X295Y523D01*
X1191Y523D02*
X1226Y523D01*
X1256Y523D02*
X1292Y523D01*
X194Y522D02*
X229Y522D01*
X259Y522D02*
X294Y522D01*
X1191Y522D02*
X1226Y522D01*
X1255Y522D02*
X1292Y522D01*
X194Y521D02*
X230Y521D01*
X258Y521D02*
X294Y521D01*
X1191Y521D02*
X1227Y521D01*
X1255Y521D02*
X1291Y521D01*
X194Y520D02*
X231Y520D01*
X257Y520D02*
X294Y520D01*
X1192Y520D02*
X1227Y520D01*
X1254Y520D02*
X1291Y520D01*
X195Y519D02*
X232Y519D01*
X257Y519D02*
X293Y519D01*
X1192Y519D02*
X1228Y519D01*
X1253Y519D02*
X1291Y519D01*
X195Y518D02*
X232Y518D01*
X256Y518D02*
X293Y518D01*
X1193Y518D02*
X1229Y518D01*
X1252Y518D02*
X1290Y518D01*
X196Y517D02*
X234Y517D01*
X254Y517D02*
X292Y517D01*
X1193Y517D02*
X1230Y517D01*
X1251Y517D02*
X1290Y517D01*
X196Y516D02*
X235Y516D01*
X253Y516D02*
X292Y516D01*
X1194Y516D02*
X1232Y516D01*
X1250Y516D02*
X1289Y516D01*
X197Y515D02*
X237Y515D01*
X251Y515D02*
X291Y515D01*
X1194Y515D02*
X1233Y515D01*
X1248Y515D02*
X1288Y515D01*
X198Y514D02*
X240Y514D01*
X249Y514D02*
X290Y514D01*
X1195Y514D02*
X1236Y514D01*
X1245Y514D02*
X1288Y514D01*
X199Y513D02*
X289Y513D01*
X1196Y513D02*
X1287Y513D01*
X199Y512D02*
X289Y512D01*
X1197Y512D02*
X1286Y512D01*
X200Y511D02*
X288Y511D01*
X1198Y511D02*
X1285Y511D01*
X201Y510D02*
X287Y510D01*
X1199Y510D02*
X1284Y510D01*
X203Y509D02*
X285Y509D01*
X1200Y509D02*
X1283Y509D01*
X204Y508D02*
X284Y508D01*
X1201Y508D02*
X1282Y508D01*
X206Y507D02*
X282Y507D01*
X1203Y507D02*
X1280Y507D01*
X208Y506D02*
X280Y506D01*
X1205Y506D02*
X1278Y506D01*
X210Y505D02*
X278Y505D01*
X1207Y505D02*
X1276Y505D01*
X214Y504D02*
X275Y504D01*
X1211Y504D02*
X1272Y504D01*
D02*
G04 End of Copper1*
M02*