; NON-PLATED HOLES START AT T1
; THROUGH (PLATED) HOLES START AT T100
M48
INCH
T1C0.125984
T100C0.040000
T101C0.038000
%
T1
X011538Y028580
X001302Y028580
X001617Y001258
X011065Y001258
T100
X008239Y023069
X007239Y023069
X006239Y023069
X005239Y023069
T101
X001354Y017690
X001354Y014690
X001354Y007690
X011354Y016690
X011354Y009690
X001354Y011690
X001354Y004690
X011354Y013690
X011354Y006690
X011354Y010690
X001354Y016690
X001354Y009690
X011354Y018690
X001354Y013690
X001354Y006690
X011354Y015690
X011354Y008690
X001354Y010690
X011354Y012690
X011354Y005690
X001354Y018690
X001354Y015690
X001354Y008690
X011354Y017690
X001354Y012690
X001354Y005690
X011354Y014690
X011354Y007690
X011354Y011690
X011354Y004690
T00
M30
