G04 MADE WITH FRITZING*
G04 WWW.FRITZING.ORG*
G04 DOUBLE SIDED*
G04 HOLES PLATED*
G04 CONTOUR ON CENTER OF CONTOUR VECTOR*
%ASAXBY*%
%FSLAX23Y23*%
%MOIN*%
%OFA0B0*%
%SFA1.0B1.0*%
%ADD10C,0.074000*%
%ADD11C,0.052000*%
%ADD12R,0.074000X0.074000*%
%ADD13C,0.016000*%
%ADD14R,0.001000X0.001000*%
%LNCOPPER0*%
G90*
G70*
G54D10*
X624Y2307D03*
X824Y2307D03*
X524Y2307D03*
X724Y2307D03*
G54D11*
X1135Y469D03*
X1135Y569D03*
X1135Y669D03*
X1135Y769D03*
X1135Y869D03*
X1135Y969D03*
X1135Y1069D03*
X1135Y1169D03*
X1135Y1269D03*
X1135Y1369D03*
X1135Y1469D03*
X1135Y1569D03*
X1135Y1669D03*
X1135Y1769D03*
X1135Y1869D03*
X135Y1869D03*
X135Y1769D03*
X135Y1669D03*
X135Y1569D03*
X135Y1469D03*
X135Y1369D03*
X135Y1269D03*
X135Y1169D03*
X135Y1069D03*
X135Y969D03*
X135Y869D03*
X135Y769D03*
X135Y669D03*
X135Y569D03*
X135Y469D03*
G54D12*
X524Y2307D03*
G54D13*
X724Y2281D02*
X724Y1956D01*
D02*
X724Y1956D02*
X927Y1953D01*
D02*
X927Y1953D02*
X927Y1467D01*
D02*
X927Y1467D02*
X1111Y1469D01*
D02*
X823Y2035D02*
X1013Y2031D01*
D02*
X1013Y2031D02*
X1013Y1767D01*
D02*
X824Y2281D02*
X823Y2035D01*
D02*
X1013Y1767D02*
X1111Y1769D01*
D02*
X677Y473D02*
X1111Y469D01*
D02*
X674Y1726D02*
X677Y473D01*
D02*
X432Y1726D02*
X674Y1726D01*
D02*
X433Y2405D02*
X432Y1726D01*
D02*
X622Y2407D02*
X433Y2405D01*
D02*
X623Y2332D02*
X622Y2407D01*
D02*
X743Y1798D02*
X749Y576D01*
D02*
X749Y576D02*
X1111Y569D01*
D02*
X521Y1798D02*
X743Y1798D01*
D02*
X524Y2281D02*
X521Y1798D01*
G54D14*
X104Y1895D02*
X168Y1895D01*
X1101Y1895D02*
X1166Y1895D01*
X101Y1894D02*
X171Y1894D01*
X1098Y1894D02*
X1169Y1894D01*
X99Y1893D02*
X173Y1893D01*
X1096Y1893D02*
X1171Y1893D01*
X97Y1892D02*
X175Y1892D01*
X1094Y1892D02*
X1172Y1892D01*
X96Y1891D02*
X177Y1891D01*
X1093Y1891D02*
X1174Y1891D01*
X94Y1890D02*
X178Y1890D01*
X1092Y1890D02*
X1175Y1890D01*
X93Y1889D02*
X179Y1889D01*
X1090Y1889D02*
X1176Y1889D01*
X92Y1888D02*
X180Y1888D01*
X1089Y1888D02*
X1178Y1888D01*
X91Y1887D02*
X181Y1887D01*
X1089Y1887D02*
X1178Y1887D01*
X91Y1886D02*
X182Y1886D01*
X1088Y1886D02*
X1179Y1886D01*
X90Y1885D02*
X131Y1885D01*
X142Y1885D02*
X183Y1885D01*
X1087Y1885D02*
X1127Y1885D01*
X1138Y1885D02*
X1180Y1885D01*
X89Y1884D02*
X128Y1884D01*
X144Y1884D02*
X184Y1884D01*
X1086Y1884D02*
X1125Y1884D01*
X1141Y1884D02*
X1181Y1884D01*
X88Y1883D02*
X127Y1883D01*
X146Y1883D02*
X184Y1883D01*
X1086Y1883D02*
X1123Y1883D01*
X1142Y1883D02*
X1181Y1883D01*
X88Y1882D02*
X125Y1882D01*
X147Y1882D02*
X185Y1882D01*
X1085Y1882D02*
X1122Y1882D01*
X1144Y1882D02*
X1182Y1882D01*
X87Y1881D02*
X124Y1881D01*
X148Y1881D02*
X185Y1881D01*
X1085Y1881D02*
X1121Y1881D01*
X1145Y1881D02*
X1182Y1881D01*
X87Y1880D02*
X123Y1880D01*
X149Y1880D02*
X186Y1880D01*
X1084Y1880D02*
X1120Y1880D01*
X1146Y1880D02*
X1183Y1880D01*
X86Y1879D02*
X123Y1879D01*
X150Y1879D02*
X186Y1879D01*
X1084Y1879D02*
X1119Y1879D01*
X1146Y1879D02*
X1183Y1879D01*
X86Y1878D02*
X122Y1878D01*
X151Y1878D02*
X186Y1878D01*
X1083Y1878D02*
X1118Y1878D01*
X1147Y1878D02*
X1184Y1878D01*
X86Y1877D02*
X121Y1877D01*
X151Y1877D02*
X187Y1877D01*
X1083Y1877D02*
X1118Y1877D01*
X1148Y1877D02*
X1184Y1877D01*
X86Y1876D02*
X121Y1876D01*
X152Y1876D02*
X187Y1876D01*
X1083Y1876D02*
X1117Y1876D01*
X1148Y1876D02*
X1184Y1876D01*
X85Y1875D02*
X121Y1875D01*
X152Y1875D02*
X187Y1875D01*
X1082Y1875D02*
X1117Y1875D01*
X1148Y1875D02*
X1184Y1875D01*
X85Y1874D02*
X120Y1874D01*
X152Y1874D02*
X187Y1874D01*
X1082Y1874D02*
X1117Y1874D01*
X1149Y1874D02*
X1185Y1874D01*
X85Y1873D02*
X120Y1873D01*
X153Y1873D02*
X188Y1873D01*
X1082Y1873D02*
X1116Y1873D01*
X1149Y1873D02*
X1185Y1873D01*
X85Y1872D02*
X120Y1872D01*
X153Y1872D02*
X188Y1872D01*
X1082Y1872D02*
X1116Y1872D01*
X1149Y1872D02*
X1185Y1872D01*
X85Y1871D02*
X120Y1871D01*
X153Y1871D02*
X188Y1871D01*
X1082Y1871D02*
X1116Y1871D01*
X1149Y1871D02*
X1185Y1871D01*
X85Y1870D02*
X120Y1870D01*
X153Y1870D02*
X188Y1870D01*
X1082Y1870D02*
X1116Y1870D01*
X1149Y1870D02*
X1185Y1870D01*
X85Y1869D02*
X120Y1869D01*
X153Y1869D02*
X188Y1869D01*
X1082Y1869D02*
X1116Y1869D01*
X1149Y1869D02*
X1185Y1869D01*
X85Y1868D02*
X120Y1868D01*
X153Y1868D02*
X188Y1868D01*
X1082Y1868D02*
X1116Y1868D01*
X1149Y1868D02*
X1185Y1868D01*
X85Y1867D02*
X120Y1867D01*
X153Y1867D02*
X188Y1867D01*
X1082Y1867D02*
X1116Y1867D01*
X1149Y1867D02*
X1185Y1867D01*
X85Y1866D02*
X120Y1866D01*
X153Y1866D02*
X187Y1866D01*
X1082Y1866D02*
X1116Y1866D01*
X1149Y1866D02*
X1185Y1866D01*
X85Y1865D02*
X120Y1865D01*
X152Y1865D02*
X187Y1865D01*
X1082Y1865D02*
X1117Y1865D01*
X1149Y1865D02*
X1184Y1865D01*
X86Y1864D02*
X121Y1864D01*
X152Y1864D02*
X187Y1864D01*
X1083Y1864D02*
X1117Y1864D01*
X1148Y1864D02*
X1184Y1864D01*
X86Y1863D02*
X121Y1863D01*
X151Y1863D02*
X187Y1863D01*
X1083Y1863D02*
X1118Y1863D01*
X1148Y1863D02*
X1184Y1863D01*
X86Y1862D02*
X122Y1862D01*
X151Y1862D02*
X186Y1862D01*
X1083Y1862D02*
X1118Y1862D01*
X1147Y1862D02*
X1184Y1862D01*
X86Y1861D02*
X122Y1861D01*
X150Y1861D02*
X186Y1861D01*
X1084Y1861D02*
X1119Y1861D01*
X1147Y1861D02*
X1183Y1861D01*
X87Y1860D02*
X123Y1860D01*
X150Y1860D02*
X186Y1860D01*
X1084Y1860D02*
X1119Y1860D01*
X1146Y1860D02*
X1183Y1860D01*
X87Y1859D02*
X124Y1859D01*
X149Y1859D02*
X185Y1859D01*
X1084Y1859D02*
X1120Y1859D01*
X1145Y1859D02*
X1182Y1859D01*
X88Y1858D02*
X125Y1858D01*
X148Y1858D02*
X185Y1858D01*
X1085Y1858D02*
X1121Y1858D01*
X1144Y1858D02*
X1182Y1858D01*
X88Y1857D02*
X126Y1857D01*
X146Y1857D02*
X184Y1857D01*
X1086Y1857D02*
X1123Y1857D01*
X1143Y1857D02*
X1181Y1857D01*
X89Y1856D02*
X128Y1856D01*
X145Y1856D02*
X184Y1856D01*
X1086Y1856D02*
X1124Y1856D01*
X1141Y1856D02*
X1181Y1856D01*
X90Y1855D02*
X130Y1855D01*
X143Y1855D02*
X183Y1855D01*
X1087Y1855D02*
X1126Y1855D01*
X1139Y1855D02*
X1180Y1855D01*
X90Y1854D02*
X134Y1854D01*
X139Y1854D02*
X182Y1854D01*
X1088Y1854D02*
X1130Y1854D01*
X1135Y1854D02*
X1179Y1854D01*
X91Y1853D02*
X181Y1853D01*
X1088Y1853D02*
X1178Y1853D01*
X92Y1852D02*
X181Y1852D01*
X1089Y1852D02*
X1178Y1852D01*
X93Y1851D02*
X179Y1851D01*
X1090Y1851D02*
X1177Y1851D01*
X94Y1850D02*
X178Y1850D01*
X1091Y1850D02*
X1175Y1850D01*
X96Y1849D02*
X177Y1849D01*
X1093Y1849D02*
X1174Y1849D01*
X97Y1848D02*
X176Y1848D01*
X1094Y1848D02*
X1173Y1848D01*
X99Y1847D02*
X174Y1847D01*
X1096Y1847D02*
X1171Y1847D01*
X101Y1846D02*
X172Y1846D01*
X1098Y1846D02*
X1169Y1846D01*
X103Y1845D02*
X169Y1845D01*
X1101Y1845D02*
X1166Y1845D01*
X110Y1844D02*
X163Y1844D01*
X1107Y1844D02*
X1160Y1844D01*
X104Y1795D02*
X169Y1795D01*
X1101Y1795D02*
X1166Y1795D01*
X101Y1794D02*
X172Y1794D01*
X1098Y1794D02*
X1169Y1794D01*
X99Y1793D02*
X174Y1793D01*
X1096Y1793D02*
X1171Y1793D01*
X97Y1792D02*
X175Y1792D01*
X1094Y1792D02*
X1173Y1792D01*
X96Y1791D02*
X177Y1791D01*
X1093Y1791D02*
X1174Y1791D01*
X94Y1790D02*
X178Y1790D01*
X1092Y1790D02*
X1175Y1790D01*
X93Y1789D02*
X179Y1789D01*
X1090Y1789D02*
X1177Y1789D01*
X92Y1788D02*
X180Y1788D01*
X1089Y1788D02*
X1178Y1788D01*
X91Y1787D02*
X181Y1787D01*
X1088Y1787D02*
X1178Y1787D01*
X91Y1786D02*
X182Y1786D01*
X1088Y1786D02*
X1179Y1786D01*
X90Y1785D02*
X130Y1785D01*
X142Y1785D02*
X183Y1785D01*
X1087Y1785D02*
X1127Y1785D01*
X1139Y1785D02*
X1180Y1785D01*
X89Y1784D02*
X128Y1784D01*
X144Y1784D02*
X184Y1784D01*
X1086Y1784D02*
X1125Y1784D01*
X1141Y1784D02*
X1181Y1784D01*
X88Y1783D02*
X127Y1783D01*
X146Y1783D02*
X184Y1783D01*
X1086Y1783D02*
X1123Y1783D01*
X1143Y1783D02*
X1181Y1783D01*
X88Y1782D02*
X125Y1782D01*
X147Y1782D02*
X185Y1782D01*
X1085Y1782D02*
X1122Y1782D01*
X1144Y1782D02*
X1182Y1782D01*
X87Y1781D02*
X124Y1781D01*
X148Y1781D02*
X185Y1781D01*
X1085Y1781D02*
X1121Y1781D01*
X1145Y1781D02*
X1182Y1781D01*
X87Y1780D02*
X123Y1780D01*
X149Y1780D02*
X186Y1780D01*
X1084Y1780D02*
X1120Y1780D01*
X1146Y1780D02*
X1183Y1780D01*
X86Y1779D02*
X123Y1779D01*
X150Y1779D02*
X186Y1779D01*
X1084Y1779D02*
X1119Y1779D01*
X1147Y1779D02*
X1183Y1779D01*
X86Y1778D02*
X122Y1778D01*
X151Y1778D02*
X186Y1778D01*
X1083Y1778D02*
X1118Y1778D01*
X1147Y1778D02*
X1184Y1778D01*
X86Y1777D02*
X121Y1777D01*
X151Y1777D02*
X187Y1777D01*
X1083Y1777D02*
X1118Y1777D01*
X1148Y1777D02*
X1184Y1777D01*
X86Y1776D02*
X121Y1776D01*
X152Y1776D02*
X187Y1776D01*
X1083Y1776D02*
X1117Y1776D01*
X1148Y1776D02*
X1184Y1776D01*
X85Y1775D02*
X121Y1775D01*
X152Y1775D02*
X187Y1775D01*
X1082Y1775D02*
X1117Y1775D01*
X1149Y1775D02*
X1184Y1775D01*
X85Y1774D02*
X120Y1774D01*
X152Y1774D02*
X187Y1774D01*
X1082Y1774D02*
X1117Y1774D01*
X1149Y1774D02*
X1185Y1774D01*
X85Y1773D02*
X120Y1773D01*
X153Y1773D02*
X188Y1773D01*
X1082Y1773D02*
X1116Y1773D01*
X1149Y1773D02*
X1185Y1773D01*
X85Y1772D02*
X120Y1772D01*
X153Y1772D02*
X188Y1772D01*
X1082Y1772D02*
X1116Y1772D01*
X1149Y1772D02*
X1185Y1772D01*
X85Y1771D02*
X120Y1771D01*
X153Y1771D02*
X188Y1771D01*
X1082Y1771D02*
X1116Y1771D01*
X1149Y1771D02*
X1185Y1771D01*
X85Y1770D02*
X120Y1770D01*
X153Y1770D02*
X188Y1770D01*
X1082Y1770D02*
X1116Y1770D01*
X1149Y1770D02*
X1185Y1770D01*
X85Y1769D02*
X120Y1769D01*
X153Y1769D02*
X188Y1769D01*
X1082Y1769D02*
X1116Y1769D01*
X1149Y1769D02*
X1185Y1769D01*
X85Y1768D02*
X120Y1768D01*
X153Y1768D02*
X188Y1768D01*
X1082Y1768D02*
X1116Y1768D01*
X1149Y1768D02*
X1185Y1768D01*
X85Y1767D02*
X120Y1767D01*
X153Y1767D02*
X188Y1767D01*
X1082Y1767D02*
X1116Y1767D01*
X1149Y1767D02*
X1185Y1767D01*
X85Y1766D02*
X120Y1766D01*
X152Y1766D02*
X187Y1766D01*
X1082Y1766D02*
X1117Y1766D01*
X1149Y1766D02*
X1185Y1766D01*
X85Y1765D02*
X120Y1765D01*
X152Y1765D02*
X187Y1765D01*
X1082Y1765D02*
X1117Y1765D01*
X1149Y1765D02*
X1184Y1765D01*
X86Y1764D02*
X121Y1764D01*
X152Y1764D02*
X187Y1764D01*
X1083Y1764D02*
X1117Y1764D01*
X1148Y1764D02*
X1184Y1764D01*
X86Y1763D02*
X121Y1763D01*
X151Y1763D02*
X187Y1763D01*
X1083Y1763D02*
X1118Y1763D01*
X1148Y1763D02*
X1184Y1763D01*
X86Y1762D02*
X122Y1762D01*
X151Y1762D02*
X186Y1762D01*
X1083Y1762D02*
X1118Y1762D01*
X1147Y1762D02*
X1184Y1762D01*
X86Y1761D02*
X122Y1761D01*
X150Y1761D02*
X186Y1761D01*
X1084Y1761D02*
X1119Y1761D01*
X1147Y1761D02*
X1183Y1761D01*
X87Y1760D02*
X123Y1760D01*
X150Y1760D02*
X186Y1760D01*
X1084Y1760D02*
X1119Y1760D01*
X1146Y1760D02*
X1183Y1760D01*
X87Y1759D02*
X124Y1759D01*
X149Y1759D02*
X185Y1759D01*
X1084Y1759D02*
X1120Y1759D01*
X1145Y1759D02*
X1182Y1759D01*
X88Y1758D02*
X125Y1758D01*
X148Y1758D02*
X185Y1758D01*
X1085Y1758D02*
X1121Y1758D01*
X1144Y1758D02*
X1182Y1758D01*
X88Y1757D02*
X126Y1757D01*
X146Y1757D02*
X184Y1757D01*
X1086Y1757D02*
X1123Y1757D01*
X1143Y1757D02*
X1181Y1757D01*
X89Y1756D02*
X128Y1756D01*
X145Y1756D02*
X184Y1756D01*
X1086Y1756D02*
X1124Y1756D01*
X1141Y1756D02*
X1181Y1756D01*
X90Y1755D02*
X130Y1755D01*
X143Y1755D02*
X183Y1755D01*
X1087Y1755D02*
X1126Y1755D01*
X1139Y1755D02*
X1180Y1755D01*
X90Y1754D02*
X134Y1754D01*
X138Y1754D02*
X182Y1754D01*
X1088Y1754D02*
X1131Y1754D01*
X1135Y1754D02*
X1179Y1754D01*
X91Y1753D02*
X181Y1753D01*
X1088Y1753D02*
X1179Y1753D01*
X92Y1752D02*
X180Y1752D01*
X1089Y1752D02*
X1178Y1752D01*
X93Y1751D02*
X179Y1751D01*
X1090Y1751D02*
X1177Y1751D01*
X94Y1750D02*
X178Y1750D01*
X1092Y1750D02*
X1175Y1750D01*
X96Y1749D02*
X177Y1749D01*
X1093Y1749D02*
X1174Y1749D01*
X97Y1748D02*
X176Y1748D01*
X1094Y1748D02*
X1173Y1748D01*
X99Y1747D02*
X174Y1747D01*
X1096Y1747D02*
X1171Y1747D01*
X101Y1746D02*
X172Y1746D01*
X1098Y1746D02*
X1169Y1746D01*
X104Y1745D02*
X169Y1745D01*
X1101Y1745D02*
X1166Y1745D01*
X110Y1744D02*
X162Y1744D01*
X1107Y1744D02*
X1160Y1744D01*
X104Y1695D02*
X169Y1695D01*
X1101Y1695D02*
X1166Y1695D01*
X101Y1694D02*
X172Y1694D01*
X1098Y1694D02*
X1169Y1694D01*
X99Y1693D02*
X174Y1693D01*
X1096Y1693D02*
X1171Y1693D01*
X97Y1692D02*
X175Y1692D01*
X1094Y1692D02*
X1173Y1692D01*
X96Y1691D02*
X177Y1691D01*
X1093Y1691D02*
X1174Y1691D01*
X94Y1690D02*
X178Y1690D01*
X1092Y1690D02*
X1175Y1690D01*
X93Y1689D02*
X179Y1689D01*
X1090Y1689D02*
X1176Y1689D01*
X92Y1688D02*
X180Y1688D01*
X1089Y1688D02*
X1178Y1688D01*
X91Y1687D02*
X181Y1687D01*
X1088Y1687D02*
X1178Y1687D01*
X90Y1686D02*
X182Y1686D01*
X1088Y1686D02*
X1179Y1686D01*
X90Y1685D02*
X130Y1685D01*
X142Y1685D02*
X183Y1685D01*
X1087Y1685D02*
X1127Y1685D01*
X1139Y1685D02*
X1180Y1685D01*
X89Y1684D02*
X128Y1684D01*
X145Y1684D02*
X184Y1684D01*
X1086Y1684D02*
X1124Y1684D01*
X1141Y1684D02*
X1181Y1684D01*
X88Y1683D02*
X126Y1683D01*
X146Y1683D02*
X184Y1683D01*
X1086Y1683D02*
X1123Y1683D01*
X1143Y1683D02*
X1181Y1683D01*
X88Y1682D02*
X125Y1682D01*
X147Y1682D02*
X185Y1682D01*
X1085Y1682D02*
X1122Y1682D01*
X1144Y1682D02*
X1182Y1682D01*
X87Y1681D02*
X124Y1681D01*
X149Y1681D02*
X185Y1681D01*
X1085Y1681D02*
X1120Y1681D01*
X1145Y1681D02*
X1182Y1681D01*
X87Y1680D02*
X123Y1680D01*
X149Y1680D02*
X186Y1680D01*
X1084Y1680D02*
X1120Y1680D01*
X1146Y1680D02*
X1183Y1680D01*
X86Y1679D02*
X122Y1679D01*
X150Y1679D02*
X186Y1679D01*
X1084Y1679D02*
X1119Y1679D01*
X1146Y1679D02*
X1183Y1679D01*
X86Y1678D02*
X122Y1678D01*
X151Y1678D02*
X186Y1678D01*
X1083Y1678D02*
X1118Y1678D01*
X1147Y1678D02*
X1184Y1678D01*
X86Y1677D02*
X121Y1677D01*
X151Y1677D02*
X187Y1677D01*
X1083Y1677D02*
X1118Y1677D01*
X1148Y1677D02*
X1184Y1677D01*
X86Y1676D02*
X121Y1676D01*
X152Y1676D02*
X187Y1676D01*
X1083Y1676D02*
X1117Y1676D01*
X1148Y1676D02*
X1184Y1676D01*
X85Y1675D02*
X120Y1675D01*
X152Y1675D02*
X187Y1675D01*
X1082Y1675D02*
X1117Y1675D01*
X1148Y1675D02*
X1184Y1675D01*
X85Y1674D02*
X120Y1674D01*
X152Y1674D02*
X187Y1674D01*
X1082Y1674D02*
X1117Y1674D01*
X1149Y1674D02*
X1185Y1674D01*
X85Y1673D02*
X120Y1673D01*
X153Y1673D02*
X188Y1673D01*
X1082Y1673D02*
X1116Y1673D01*
X1149Y1673D02*
X1185Y1673D01*
X85Y1672D02*
X120Y1672D01*
X153Y1672D02*
X188Y1672D01*
X1082Y1672D02*
X1116Y1672D01*
X1149Y1672D02*
X1185Y1672D01*
X85Y1671D02*
X120Y1671D01*
X153Y1671D02*
X188Y1671D01*
X1082Y1671D02*
X1116Y1671D01*
X1149Y1671D02*
X1185Y1671D01*
X85Y1670D02*
X120Y1670D01*
X153Y1670D02*
X188Y1670D01*
X1082Y1670D02*
X1116Y1670D01*
X1149Y1670D02*
X1185Y1670D01*
X85Y1669D02*
X120Y1669D01*
X153Y1669D02*
X188Y1669D01*
X1082Y1669D02*
X1116Y1669D01*
X1149Y1669D02*
X1185Y1669D01*
X85Y1668D02*
X120Y1668D01*
X153Y1668D02*
X188Y1668D01*
X1082Y1668D02*
X1116Y1668D01*
X1149Y1668D02*
X1185Y1668D01*
X85Y1667D02*
X120Y1667D01*
X153Y1667D02*
X188Y1667D01*
X1082Y1667D02*
X1116Y1667D01*
X1149Y1667D02*
X1185Y1667D01*
X85Y1666D02*
X120Y1666D01*
X152Y1666D02*
X187Y1666D01*
X1082Y1666D02*
X1117Y1666D01*
X1149Y1666D02*
X1185Y1666D01*
X85Y1665D02*
X120Y1665D01*
X152Y1665D02*
X187Y1665D01*
X1082Y1665D02*
X1117Y1665D01*
X1149Y1665D02*
X1184Y1665D01*
X86Y1664D02*
X121Y1664D01*
X152Y1664D02*
X187Y1664D01*
X1083Y1664D02*
X1117Y1664D01*
X1148Y1664D02*
X1184Y1664D01*
X86Y1663D02*
X121Y1663D01*
X151Y1663D02*
X187Y1663D01*
X1083Y1663D02*
X1118Y1663D01*
X1148Y1663D02*
X1184Y1663D01*
X86Y1662D02*
X122Y1662D01*
X151Y1662D02*
X186Y1662D01*
X1083Y1662D02*
X1118Y1662D01*
X1147Y1662D02*
X1184Y1662D01*
X86Y1661D02*
X122Y1661D01*
X150Y1661D02*
X186Y1661D01*
X1084Y1661D02*
X1119Y1661D01*
X1147Y1661D02*
X1183Y1661D01*
X87Y1660D02*
X123Y1660D01*
X150Y1660D02*
X186Y1660D01*
X1084Y1660D02*
X1119Y1660D01*
X1146Y1660D02*
X1183Y1660D01*
X87Y1659D02*
X124Y1659D01*
X149Y1659D02*
X185Y1659D01*
X1084Y1659D02*
X1120Y1659D01*
X1145Y1659D02*
X1182Y1659D01*
X88Y1658D02*
X125Y1658D01*
X148Y1658D02*
X185Y1658D01*
X1085Y1658D02*
X1121Y1658D01*
X1144Y1658D02*
X1182Y1658D01*
X88Y1657D02*
X126Y1657D01*
X146Y1657D02*
X184Y1657D01*
X1086Y1657D02*
X1123Y1657D01*
X1143Y1657D02*
X1181Y1657D01*
X89Y1656D02*
X128Y1656D01*
X145Y1656D02*
X184Y1656D01*
X1086Y1656D02*
X1124Y1656D01*
X1141Y1656D02*
X1181Y1656D01*
X90Y1655D02*
X130Y1655D01*
X143Y1655D02*
X183Y1655D01*
X1087Y1655D02*
X1126Y1655D01*
X1139Y1655D02*
X1180Y1655D01*
X90Y1654D02*
X135Y1654D01*
X138Y1654D02*
X182Y1654D01*
X1088Y1654D02*
X1131Y1654D01*
X1134Y1654D02*
X1179Y1654D01*
X91Y1653D02*
X181Y1653D01*
X1088Y1653D02*
X1178Y1653D01*
X92Y1652D02*
X180Y1652D01*
X1089Y1652D02*
X1178Y1652D01*
X93Y1651D02*
X179Y1651D01*
X1090Y1651D02*
X1177Y1651D01*
X94Y1650D02*
X178Y1650D01*
X1092Y1650D02*
X1175Y1650D01*
X96Y1649D02*
X177Y1649D01*
X1093Y1649D02*
X1174Y1649D01*
X97Y1648D02*
X175Y1648D01*
X1094Y1648D02*
X1173Y1648D01*
X99Y1647D02*
X174Y1647D01*
X1096Y1647D02*
X1171Y1647D01*
X101Y1646D02*
X172Y1646D01*
X1098Y1646D02*
X1169Y1646D01*
X104Y1645D02*
X169Y1645D01*
X1101Y1645D02*
X1166Y1645D01*
X111Y1644D02*
X162Y1644D01*
X1108Y1644D02*
X1159Y1644D01*
X111Y1596D02*
X162Y1596D01*
X1108Y1596D02*
X1159Y1596D01*
X104Y1595D02*
X169Y1595D01*
X1101Y1595D02*
X1166Y1595D01*
X101Y1594D02*
X172Y1594D01*
X1098Y1594D02*
X1169Y1594D01*
X99Y1593D02*
X174Y1593D01*
X1096Y1593D02*
X1171Y1593D01*
X97Y1592D02*
X175Y1592D01*
X1094Y1592D02*
X1173Y1592D01*
X96Y1591D02*
X177Y1591D01*
X1093Y1591D02*
X1174Y1591D01*
X94Y1590D02*
X178Y1590D01*
X1092Y1590D02*
X1175Y1590D01*
X93Y1589D02*
X179Y1589D01*
X1090Y1589D02*
X1177Y1589D01*
X92Y1588D02*
X180Y1588D01*
X1089Y1588D02*
X1178Y1588D01*
X91Y1587D02*
X181Y1587D01*
X1088Y1587D02*
X1178Y1587D01*
X90Y1586D02*
X182Y1586D01*
X1088Y1586D02*
X1179Y1586D01*
X90Y1585D02*
X130Y1585D01*
X142Y1585D02*
X183Y1585D01*
X1087Y1585D02*
X1127Y1585D01*
X1139Y1585D02*
X1180Y1585D01*
X89Y1584D02*
X128Y1584D01*
X145Y1584D02*
X184Y1584D01*
X1086Y1584D02*
X1124Y1584D01*
X1141Y1584D02*
X1181Y1584D01*
X88Y1583D02*
X126Y1583D01*
X146Y1583D02*
X184Y1583D01*
X1086Y1583D02*
X1123Y1583D01*
X1143Y1583D02*
X1181Y1583D01*
X88Y1582D02*
X125Y1582D01*
X148Y1582D02*
X185Y1582D01*
X1085Y1582D02*
X1121Y1582D01*
X1144Y1582D02*
X1182Y1582D01*
X87Y1581D02*
X124Y1581D01*
X149Y1581D02*
X185Y1581D01*
X1084Y1581D02*
X1120Y1581D01*
X1145Y1581D02*
X1182Y1581D01*
X87Y1580D02*
X123Y1580D01*
X150Y1580D02*
X186Y1580D01*
X1084Y1580D02*
X1119Y1580D01*
X1146Y1580D02*
X1183Y1580D01*
X86Y1579D02*
X122Y1579D01*
X150Y1579D02*
X186Y1579D01*
X1084Y1579D02*
X1119Y1579D01*
X1147Y1579D02*
X1183Y1579D01*
X86Y1578D02*
X122Y1578D01*
X151Y1578D02*
X186Y1578D01*
X1083Y1578D02*
X1118Y1578D01*
X1147Y1578D02*
X1184Y1578D01*
X86Y1577D02*
X121Y1577D01*
X151Y1577D02*
X187Y1577D01*
X1083Y1577D02*
X1118Y1577D01*
X1148Y1577D02*
X1184Y1577D01*
X86Y1576D02*
X121Y1576D01*
X152Y1576D02*
X187Y1576D01*
X1083Y1576D02*
X1117Y1576D01*
X1148Y1576D02*
X1184Y1576D01*
X85Y1575D02*
X120Y1575D01*
X152Y1575D02*
X187Y1575D01*
X1082Y1575D02*
X1117Y1575D01*
X1149Y1575D02*
X1184Y1575D01*
X85Y1574D02*
X120Y1574D01*
X153Y1574D02*
X187Y1574D01*
X1082Y1574D02*
X1116Y1574D01*
X1149Y1574D02*
X1185Y1574D01*
X85Y1573D02*
X120Y1573D01*
X153Y1573D02*
X188Y1573D01*
X1082Y1573D02*
X1116Y1573D01*
X1149Y1573D02*
X1185Y1573D01*
X85Y1572D02*
X120Y1572D01*
X153Y1572D02*
X188Y1572D01*
X1082Y1572D02*
X1116Y1572D01*
X1149Y1572D02*
X1185Y1572D01*
X85Y1571D02*
X120Y1571D01*
X153Y1571D02*
X188Y1571D01*
X1082Y1571D02*
X1116Y1571D01*
X1149Y1571D02*
X1185Y1571D01*
X85Y1570D02*
X120Y1570D01*
X153Y1570D02*
X188Y1570D01*
X1082Y1570D02*
X1116Y1570D01*
X1149Y1570D02*
X1185Y1570D01*
X85Y1569D02*
X120Y1569D01*
X153Y1569D02*
X188Y1569D01*
X1082Y1569D02*
X1116Y1569D01*
X1149Y1569D02*
X1185Y1569D01*
X85Y1568D02*
X120Y1568D01*
X153Y1568D02*
X188Y1568D01*
X1082Y1568D02*
X1116Y1568D01*
X1149Y1568D02*
X1185Y1568D01*
X85Y1567D02*
X120Y1567D01*
X153Y1567D02*
X188Y1567D01*
X1082Y1567D02*
X1116Y1567D01*
X1149Y1567D02*
X1185Y1567D01*
X85Y1566D02*
X120Y1566D01*
X153Y1566D02*
X187Y1566D01*
X1082Y1566D02*
X1116Y1566D01*
X1149Y1566D02*
X1185Y1566D01*
X85Y1565D02*
X120Y1565D01*
X152Y1565D02*
X187Y1565D01*
X1082Y1565D02*
X1117Y1565D01*
X1149Y1565D02*
X1184Y1565D01*
X86Y1564D02*
X121Y1564D01*
X152Y1564D02*
X187Y1564D01*
X1083Y1564D02*
X1117Y1564D01*
X1148Y1564D02*
X1184Y1564D01*
X86Y1563D02*
X121Y1563D01*
X151Y1563D02*
X187Y1563D01*
X1083Y1563D02*
X1118Y1563D01*
X1148Y1563D02*
X1184Y1563D01*
X86Y1562D02*
X122Y1562D01*
X151Y1562D02*
X186Y1562D01*
X1083Y1562D02*
X1118Y1562D01*
X1147Y1562D02*
X1184Y1562D01*
X86Y1561D02*
X122Y1561D01*
X150Y1561D02*
X186Y1561D01*
X1084Y1561D02*
X1119Y1561D01*
X1147Y1561D02*
X1183Y1561D01*
X87Y1560D02*
X123Y1560D01*
X150Y1560D02*
X186Y1560D01*
X1084Y1560D02*
X1119Y1560D01*
X1146Y1560D02*
X1183Y1560D01*
X87Y1559D02*
X124Y1559D01*
X149Y1559D02*
X185Y1559D01*
X1085Y1559D02*
X1120Y1559D01*
X1145Y1559D02*
X1182Y1559D01*
X88Y1558D02*
X125Y1558D01*
X148Y1558D02*
X185Y1558D01*
X1085Y1558D02*
X1121Y1558D01*
X1144Y1558D02*
X1182Y1558D01*
X88Y1557D02*
X126Y1557D01*
X146Y1557D02*
X184Y1557D01*
X1086Y1557D02*
X1123Y1557D01*
X1143Y1557D02*
X1181Y1557D01*
X89Y1556D02*
X128Y1556D01*
X145Y1556D02*
X184Y1556D01*
X1086Y1556D02*
X1124Y1556D01*
X1141Y1556D02*
X1181Y1556D01*
X90Y1555D02*
X130Y1555D01*
X143Y1555D02*
X183Y1555D01*
X1087Y1555D02*
X1126Y1555D01*
X1139Y1555D02*
X1180Y1555D01*
X90Y1554D02*
X182Y1554D01*
X1088Y1554D02*
X1179Y1554D01*
X91Y1553D02*
X181Y1553D01*
X1088Y1553D02*
X1178Y1553D01*
X92Y1552D02*
X180Y1552D01*
X1089Y1552D02*
X1178Y1552D01*
X93Y1551D02*
X179Y1551D01*
X1090Y1551D02*
X1177Y1551D01*
X94Y1550D02*
X178Y1550D01*
X1092Y1550D02*
X1175Y1550D01*
X96Y1549D02*
X177Y1549D01*
X1093Y1549D02*
X1174Y1549D01*
X97Y1548D02*
X175Y1548D01*
X1094Y1548D02*
X1173Y1548D01*
X99Y1547D02*
X174Y1547D01*
X1096Y1547D02*
X1171Y1547D01*
X101Y1546D02*
X172Y1546D01*
X1098Y1546D02*
X1169Y1546D01*
X104Y1545D02*
X169Y1545D01*
X1101Y1545D02*
X1166Y1545D01*
X109Y1496D02*
X161Y1496D01*
X1107Y1496D02*
X1160Y1496D01*
X103Y1495D02*
X168Y1495D01*
X1101Y1495D02*
X1166Y1495D01*
X100Y1494D02*
X171Y1494D01*
X1098Y1494D02*
X1169Y1494D01*
X98Y1493D02*
X173Y1493D01*
X1096Y1493D02*
X1171Y1493D01*
X96Y1492D02*
X175Y1492D01*
X1094Y1492D02*
X1173Y1492D01*
X95Y1491D02*
X176Y1491D01*
X1093Y1491D02*
X1174Y1491D01*
X93Y1490D02*
X177Y1490D01*
X1091Y1490D02*
X1175Y1490D01*
X92Y1489D02*
X178Y1489D01*
X1090Y1489D02*
X1177Y1489D01*
X91Y1488D02*
X179Y1488D01*
X1089Y1488D02*
X1178Y1488D01*
X90Y1487D02*
X180Y1487D01*
X1088Y1487D02*
X1178Y1487D01*
X89Y1486D02*
X181Y1486D01*
X1088Y1486D02*
X1179Y1486D01*
X89Y1485D02*
X129Y1485D01*
X141Y1485D02*
X182Y1485D01*
X1087Y1485D02*
X1127Y1485D01*
X1138Y1485D02*
X1180Y1485D01*
X88Y1484D02*
X127Y1484D01*
X143Y1484D02*
X183Y1484D01*
X1086Y1484D02*
X1125Y1484D01*
X1141Y1484D02*
X1181Y1484D01*
X87Y1483D02*
X126Y1483D01*
X145Y1483D02*
X183Y1483D01*
X1086Y1483D02*
X1123Y1483D01*
X1142Y1483D02*
X1181Y1483D01*
X87Y1482D02*
X124Y1482D01*
X146Y1482D02*
X184Y1482D01*
X1085Y1482D02*
X1122Y1482D01*
X1144Y1482D02*
X1182Y1482D01*
X86Y1481D02*
X123Y1481D01*
X147Y1481D02*
X184Y1481D01*
X1084Y1481D02*
X1121Y1481D01*
X1145Y1481D02*
X1182Y1481D01*
X86Y1480D02*
X122Y1480D01*
X148Y1480D02*
X185Y1480D01*
X1084Y1480D02*
X1120Y1480D01*
X1146Y1480D02*
X1183Y1480D01*
X85Y1479D02*
X122Y1479D01*
X149Y1479D02*
X185Y1479D01*
X1084Y1479D02*
X1119Y1479D01*
X1146Y1479D02*
X1183Y1479D01*
X85Y1478D02*
X121Y1478D01*
X150Y1478D02*
X185Y1478D01*
X1083Y1478D02*
X1118Y1478D01*
X1147Y1478D02*
X1184Y1478D01*
X85Y1477D02*
X120Y1477D01*
X150Y1477D02*
X186Y1477D01*
X1083Y1477D02*
X1118Y1477D01*
X1147Y1477D02*
X1184Y1477D01*
X85Y1476D02*
X120Y1476D01*
X151Y1476D02*
X186Y1476D01*
X1083Y1476D02*
X1117Y1476D01*
X1148Y1476D02*
X1184Y1476D01*
X84Y1475D02*
X120Y1475D01*
X151Y1475D02*
X186Y1475D01*
X1082Y1475D02*
X1117Y1475D01*
X1148Y1475D02*
X1184Y1475D01*
X84Y1474D02*
X119Y1474D01*
X151Y1474D02*
X186Y1474D01*
X1082Y1474D02*
X1117Y1474D01*
X1149Y1474D02*
X1185Y1474D01*
X84Y1473D02*
X119Y1473D01*
X151Y1473D02*
X187Y1473D01*
X1082Y1473D02*
X1117Y1473D01*
X1149Y1473D02*
X1185Y1473D01*
X84Y1472D02*
X119Y1472D01*
X152Y1472D02*
X187Y1472D01*
X1082Y1472D02*
X1116Y1472D01*
X1149Y1472D02*
X1185Y1472D01*
X84Y1471D02*
X119Y1471D01*
X152Y1471D02*
X187Y1471D01*
X1082Y1471D02*
X1116Y1471D01*
X1149Y1471D02*
X1185Y1471D01*
X84Y1470D02*
X119Y1470D01*
X152Y1470D02*
X187Y1470D01*
X1082Y1470D02*
X1116Y1470D01*
X1149Y1470D02*
X1185Y1470D01*
X84Y1469D02*
X119Y1469D01*
X152Y1469D02*
X187Y1469D01*
X1082Y1469D02*
X1116Y1469D01*
X1149Y1469D02*
X1185Y1469D01*
X84Y1468D02*
X119Y1468D01*
X152Y1468D02*
X187Y1468D01*
X1082Y1468D02*
X1116Y1468D01*
X1149Y1468D02*
X1185Y1468D01*
X84Y1467D02*
X119Y1467D01*
X151Y1467D02*
X187Y1467D01*
X1082Y1467D02*
X1117Y1467D01*
X1149Y1467D02*
X1185Y1467D01*
X84Y1466D02*
X119Y1466D01*
X151Y1466D02*
X186Y1466D01*
X1082Y1466D02*
X1117Y1466D01*
X1149Y1466D02*
X1185Y1466D01*
X84Y1465D02*
X120Y1465D01*
X151Y1465D02*
X186Y1465D01*
X1082Y1465D02*
X1117Y1465D01*
X1148Y1465D02*
X1184Y1465D01*
X85Y1464D02*
X120Y1464D01*
X151Y1464D02*
X186Y1464D01*
X1083Y1464D02*
X1117Y1464D01*
X1148Y1464D02*
X1184Y1464D01*
X85Y1463D02*
X120Y1463D01*
X150Y1463D02*
X186Y1463D01*
X1083Y1463D02*
X1118Y1463D01*
X1147Y1463D02*
X1184Y1463D01*
X85Y1462D02*
X121Y1462D01*
X150Y1462D02*
X185Y1462D01*
X1083Y1462D02*
X1118Y1462D01*
X1147Y1462D02*
X1184Y1462D01*
X85Y1461D02*
X122Y1461D01*
X149Y1461D02*
X185Y1461D01*
X1084Y1461D02*
X1119Y1461D01*
X1146Y1461D02*
X1183Y1461D01*
X86Y1460D02*
X122Y1460D01*
X148Y1460D02*
X185Y1460D01*
X1084Y1460D02*
X1120Y1460D01*
X1146Y1460D02*
X1183Y1460D01*
X86Y1459D02*
X123Y1459D01*
X147Y1459D02*
X184Y1459D01*
X1085Y1459D02*
X1121Y1459D01*
X1145Y1459D02*
X1182Y1459D01*
X87Y1458D02*
X124Y1458D01*
X146Y1458D02*
X184Y1458D01*
X1085Y1458D02*
X1122Y1458D01*
X1144Y1458D02*
X1182Y1458D01*
X87Y1457D02*
X126Y1457D01*
X145Y1457D02*
X183Y1457D01*
X1086Y1457D02*
X1123Y1457D01*
X1142Y1457D02*
X1181Y1457D01*
X88Y1456D02*
X127Y1456D01*
X143Y1456D02*
X183Y1456D01*
X1086Y1456D02*
X1125Y1456D01*
X1141Y1456D02*
X1181Y1456D01*
X89Y1455D02*
X129Y1455D01*
X141Y1455D02*
X182Y1455D01*
X1087Y1455D02*
X1127Y1455D01*
X1139Y1455D02*
X1180Y1455D01*
X89Y1454D02*
X181Y1454D01*
X1088Y1454D02*
X1179Y1454D01*
X90Y1453D02*
X180Y1453D01*
X1088Y1453D02*
X1178Y1453D01*
X91Y1452D02*
X179Y1452D01*
X1089Y1452D02*
X1178Y1452D01*
X92Y1451D02*
X178Y1451D01*
X1090Y1451D02*
X1176Y1451D01*
X93Y1450D02*
X177Y1450D01*
X1092Y1450D02*
X1175Y1450D01*
X95Y1449D02*
X176Y1449D01*
X1093Y1449D02*
X1174Y1449D01*
X96Y1448D02*
X174Y1448D01*
X1094Y1448D02*
X1173Y1448D01*
X98Y1447D02*
X172Y1447D01*
X1096Y1447D02*
X1171Y1447D01*
X100Y1446D02*
X171Y1446D01*
X1098Y1446D02*
X1169Y1446D01*
X103Y1445D02*
X168Y1445D01*
X1101Y1445D02*
X1166Y1445D01*
X110Y1396D02*
X163Y1396D01*
X1107Y1396D02*
X1160Y1396D01*
X103Y1395D02*
X169Y1395D01*
X1101Y1395D02*
X1166Y1395D01*
X101Y1394D02*
X172Y1394D01*
X1098Y1394D02*
X1169Y1394D01*
X99Y1393D02*
X174Y1393D01*
X1096Y1393D02*
X1171Y1393D01*
X97Y1392D02*
X176Y1392D01*
X1094Y1392D02*
X1173Y1392D01*
X96Y1391D02*
X177Y1391D01*
X1093Y1391D02*
X1174Y1391D01*
X94Y1390D02*
X178Y1390D01*
X1091Y1390D02*
X1175Y1390D01*
X93Y1389D02*
X179Y1389D01*
X1090Y1389D02*
X1177Y1389D01*
X92Y1388D02*
X181Y1388D01*
X1089Y1388D02*
X1178Y1388D01*
X91Y1387D02*
X181Y1387D01*
X1088Y1387D02*
X1178Y1387D01*
X90Y1386D02*
X182Y1386D01*
X1088Y1386D02*
X1179Y1386D01*
X90Y1385D02*
X130Y1385D01*
X142Y1385D02*
X183Y1385D01*
X1087Y1385D02*
X1127Y1385D01*
X1139Y1385D02*
X1180Y1385D01*
X89Y1384D02*
X128Y1384D01*
X144Y1384D02*
X184Y1384D01*
X1086Y1384D02*
X1125Y1384D01*
X1141Y1384D02*
X1181Y1384D01*
X88Y1383D02*
X127Y1383D01*
X146Y1383D02*
X184Y1383D01*
X1086Y1383D02*
X1123Y1383D01*
X1142Y1383D02*
X1181Y1383D01*
X88Y1382D02*
X125Y1382D01*
X147Y1382D02*
X185Y1382D01*
X1085Y1382D02*
X1122Y1382D01*
X1144Y1382D02*
X1182Y1382D01*
X87Y1381D02*
X124Y1381D01*
X148Y1381D02*
X185Y1381D01*
X1084Y1381D02*
X1121Y1381D01*
X1145Y1381D02*
X1182Y1381D01*
X87Y1380D02*
X123Y1380D01*
X149Y1380D02*
X186Y1380D01*
X1084Y1380D02*
X1120Y1380D01*
X1146Y1380D02*
X1183Y1380D01*
X86Y1379D02*
X123Y1379D01*
X150Y1379D02*
X186Y1379D01*
X1084Y1379D02*
X1119Y1379D01*
X1146Y1379D02*
X1183Y1379D01*
X86Y1378D02*
X122Y1378D01*
X151Y1378D02*
X186Y1378D01*
X1083Y1378D02*
X1118Y1378D01*
X1147Y1378D02*
X1184Y1378D01*
X86Y1377D02*
X121Y1377D01*
X151Y1377D02*
X187Y1377D01*
X1083Y1377D02*
X1118Y1377D01*
X1147Y1377D02*
X1184Y1377D01*
X86Y1376D02*
X121Y1376D01*
X152Y1376D02*
X187Y1376D01*
X1083Y1376D02*
X1117Y1376D01*
X1148Y1376D02*
X1184Y1376D01*
X85Y1375D02*
X121Y1375D01*
X152Y1375D02*
X187Y1375D01*
X1082Y1375D02*
X1117Y1375D01*
X1148Y1375D02*
X1184Y1375D01*
X85Y1374D02*
X120Y1374D01*
X152Y1374D02*
X187Y1374D01*
X1082Y1374D02*
X1117Y1374D01*
X1149Y1374D02*
X1185Y1374D01*
X85Y1373D02*
X120Y1373D01*
X152Y1373D02*
X188Y1373D01*
X1082Y1373D02*
X1116Y1373D01*
X1149Y1373D02*
X1185Y1373D01*
X85Y1372D02*
X120Y1372D01*
X153Y1372D02*
X188Y1372D01*
X1082Y1372D02*
X1116Y1372D01*
X1149Y1372D02*
X1185Y1372D01*
X85Y1371D02*
X120Y1371D01*
X153Y1371D02*
X188Y1371D01*
X1082Y1371D02*
X1116Y1371D01*
X1149Y1371D02*
X1185Y1371D01*
X85Y1370D02*
X120Y1370D01*
X153Y1370D02*
X188Y1370D01*
X1082Y1370D02*
X1116Y1370D01*
X1149Y1370D02*
X1185Y1370D01*
X85Y1369D02*
X120Y1369D01*
X153Y1369D02*
X188Y1369D01*
X1082Y1369D02*
X1116Y1369D01*
X1149Y1369D02*
X1185Y1369D01*
X85Y1368D02*
X120Y1368D01*
X153Y1368D02*
X188Y1368D01*
X1082Y1368D02*
X1116Y1368D01*
X1149Y1368D02*
X1185Y1368D01*
X85Y1367D02*
X120Y1367D01*
X152Y1367D02*
X188Y1367D01*
X1082Y1367D02*
X1117Y1367D01*
X1149Y1367D02*
X1185Y1367D01*
X85Y1366D02*
X120Y1366D01*
X152Y1366D02*
X187Y1366D01*
X1082Y1366D02*
X1117Y1366D01*
X1149Y1366D02*
X1185Y1366D01*
X85Y1365D02*
X121Y1365D01*
X152Y1365D02*
X187Y1365D01*
X1082Y1365D02*
X1117Y1365D01*
X1148Y1365D02*
X1184Y1365D01*
X86Y1364D02*
X121Y1364D01*
X152Y1364D02*
X187Y1364D01*
X1083Y1364D02*
X1117Y1364D01*
X1148Y1364D02*
X1184Y1364D01*
X86Y1363D02*
X122Y1363D01*
X151Y1363D02*
X187Y1363D01*
X1083Y1363D02*
X1118Y1363D01*
X1147Y1363D02*
X1184Y1363D01*
X86Y1362D02*
X122Y1362D01*
X151Y1362D02*
X186Y1362D01*
X1083Y1362D02*
X1118Y1362D01*
X1147Y1362D02*
X1184Y1362D01*
X86Y1361D02*
X123Y1361D01*
X150Y1361D02*
X186Y1361D01*
X1084Y1361D02*
X1119Y1361D01*
X1146Y1361D02*
X1183Y1361D01*
X87Y1360D02*
X123Y1360D01*
X149Y1360D02*
X186Y1360D01*
X1084Y1360D02*
X1120Y1360D01*
X1146Y1360D02*
X1183Y1360D01*
X87Y1359D02*
X124Y1359D01*
X148Y1359D02*
X185Y1359D01*
X1085Y1359D02*
X1121Y1359D01*
X1145Y1359D02*
X1182Y1359D01*
X88Y1358D02*
X125Y1358D01*
X147Y1358D02*
X185Y1358D01*
X1085Y1358D02*
X1122Y1358D01*
X1144Y1358D02*
X1182Y1358D01*
X88Y1357D02*
X127Y1357D01*
X146Y1357D02*
X184Y1357D01*
X1086Y1357D02*
X1123Y1357D01*
X1142Y1357D02*
X1181Y1357D01*
X89Y1356D02*
X128Y1356D01*
X144Y1356D02*
X184Y1356D01*
X1086Y1356D02*
X1125Y1356D01*
X1141Y1356D02*
X1181Y1356D01*
X90Y1355D02*
X131Y1355D01*
X142Y1355D02*
X183Y1355D01*
X1087Y1355D02*
X1127Y1355D01*
X1138Y1355D02*
X1180Y1355D01*
X91Y1354D02*
X182Y1354D01*
X1088Y1354D02*
X1179Y1354D01*
X91Y1353D02*
X181Y1353D01*
X1089Y1353D02*
X1178Y1353D01*
X92Y1352D02*
X180Y1352D01*
X1089Y1352D02*
X1178Y1352D01*
X93Y1351D02*
X179Y1351D01*
X1090Y1351D02*
X1176Y1351D01*
X94Y1350D02*
X178Y1350D01*
X1092Y1350D02*
X1175Y1350D01*
X96Y1349D02*
X177Y1349D01*
X1093Y1349D02*
X1174Y1349D01*
X97Y1348D02*
X175Y1348D01*
X1094Y1348D02*
X1172Y1348D01*
X99Y1347D02*
X173Y1347D01*
X1096Y1347D02*
X1171Y1347D01*
X101Y1346D02*
X171Y1346D01*
X1098Y1346D02*
X1169Y1346D01*
X104Y1345D02*
X168Y1345D01*
X1101Y1345D02*
X1166Y1345D01*
X109Y1296D02*
X163Y1296D01*
X1106Y1296D02*
X1161Y1296D01*
X103Y1295D02*
X169Y1295D01*
X1101Y1295D02*
X1166Y1295D01*
X101Y1294D02*
X172Y1294D01*
X1098Y1294D02*
X1169Y1294D01*
X99Y1293D02*
X174Y1293D01*
X1096Y1293D02*
X1171Y1293D01*
X97Y1292D02*
X176Y1292D01*
X1094Y1292D02*
X1173Y1292D01*
X95Y1291D02*
X177Y1291D01*
X1093Y1291D02*
X1174Y1291D01*
X94Y1290D02*
X178Y1290D01*
X1091Y1290D02*
X1175Y1290D01*
X93Y1289D02*
X179Y1289D01*
X1090Y1289D02*
X1177Y1289D01*
X92Y1288D02*
X181Y1288D01*
X1089Y1288D02*
X1178Y1288D01*
X91Y1287D02*
X181Y1287D01*
X1088Y1287D02*
X1178Y1287D01*
X90Y1286D02*
X135Y1286D01*
X137Y1286D02*
X182Y1286D01*
X1088Y1286D02*
X1132Y1286D01*
X1134Y1286D02*
X1179Y1286D01*
X90Y1285D02*
X130Y1285D01*
X142Y1285D02*
X183Y1285D01*
X1087Y1285D02*
X1127Y1285D01*
X1139Y1285D02*
X1180Y1285D01*
X89Y1284D02*
X128Y1284D01*
X144Y1284D02*
X184Y1284D01*
X1086Y1284D02*
X1125Y1284D01*
X1141Y1284D02*
X1181Y1284D01*
X88Y1283D02*
X127Y1283D01*
X146Y1283D02*
X184Y1283D01*
X1086Y1283D02*
X1123Y1283D01*
X1142Y1283D02*
X1181Y1283D01*
X88Y1282D02*
X125Y1282D01*
X147Y1282D02*
X185Y1282D01*
X1085Y1282D02*
X1122Y1282D01*
X1144Y1282D02*
X1182Y1282D01*
X87Y1281D02*
X124Y1281D01*
X148Y1281D02*
X185Y1281D01*
X1084Y1281D02*
X1121Y1281D01*
X1145Y1281D02*
X1182Y1281D01*
X87Y1280D02*
X123Y1280D01*
X149Y1280D02*
X186Y1280D01*
X1084Y1280D02*
X1120Y1280D01*
X1146Y1280D02*
X1183Y1280D01*
X86Y1279D02*
X123Y1279D01*
X150Y1279D02*
X186Y1279D01*
X1084Y1279D02*
X1119Y1279D01*
X1146Y1279D02*
X1183Y1279D01*
X86Y1278D02*
X122Y1278D01*
X151Y1278D02*
X186Y1278D01*
X1083Y1278D02*
X1118Y1278D01*
X1147Y1278D02*
X1184Y1278D01*
X86Y1277D02*
X121Y1277D01*
X151Y1277D02*
X187Y1277D01*
X1083Y1277D02*
X1118Y1277D01*
X1148Y1277D02*
X1184Y1277D01*
X86Y1276D02*
X121Y1276D01*
X152Y1276D02*
X187Y1276D01*
X1083Y1276D02*
X1117Y1276D01*
X1148Y1276D02*
X1184Y1276D01*
X85Y1275D02*
X121Y1275D01*
X152Y1275D02*
X187Y1275D01*
X1082Y1275D02*
X1117Y1275D01*
X1148Y1275D02*
X1184Y1275D01*
X85Y1274D02*
X120Y1274D01*
X152Y1274D02*
X187Y1274D01*
X1082Y1274D02*
X1117Y1274D01*
X1149Y1274D02*
X1185Y1274D01*
X85Y1273D02*
X120Y1273D01*
X152Y1273D02*
X188Y1273D01*
X1082Y1273D02*
X1116Y1273D01*
X1149Y1273D02*
X1185Y1273D01*
X85Y1272D02*
X120Y1272D01*
X153Y1272D02*
X188Y1272D01*
X1082Y1272D02*
X1116Y1272D01*
X1149Y1272D02*
X1185Y1272D01*
X85Y1271D02*
X120Y1271D01*
X153Y1271D02*
X188Y1271D01*
X1082Y1271D02*
X1116Y1271D01*
X1149Y1271D02*
X1185Y1271D01*
X85Y1270D02*
X120Y1270D01*
X153Y1270D02*
X188Y1270D01*
X1082Y1270D02*
X1116Y1270D01*
X1149Y1270D02*
X1185Y1270D01*
X85Y1269D02*
X120Y1269D01*
X153Y1269D02*
X188Y1269D01*
X1082Y1269D02*
X1116Y1269D01*
X1149Y1269D02*
X1185Y1269D01*
X85Y1268D02*
X120Y1268D01*
X153Y1268D02*
X188Y1268D01*
X1082Y1268D02*
X1116Y1268D01*
X1149Y1268D02*
X1185Y1268D01*
X85Y1267D02*
X120Y1267D01*
X152Y1267D02*
X188Y1267D01*
X1082Y1267D02*
X1117Y1267D01*
X1149Y1267D02*
X1185Y1267D01*
X85Y1266D02*
X120Y1266D01*
X152Y1266D02*
X187Y1266D01*
X1082Y1266D02*
X1117Y1266D01*
X1149Y1266D02*
X1185Y1266D01*
X85Y1265D02*
X121Y1265D01*
X152Y1265D02*
X187Y1265D01*
X1082Y1265D02*
X1117Y1265D01*
X1148Y1265D02*
X1184Y1265D01*
X86Y1264D02*
X121Y1264D01*
X152Y1264D02*
X187Y1264D01*
X1083Y1264D02*
X1117Y1264D01*
X1148Y1264D02*
X1184Y1264D01*
X86Y1263D02*
X122Y1263D01*
X151Y1263D02*
X187Y1263D01*
X1083Y1263D02*
X1118Y1263D01*
X1147Y1263D02*
X1184Y1263D01*
X86Y1262D02*
X122Y1262D01*
X151Y1262D02*
X186Y1262D01*
X1083Y1262D02*
X1118Y1262D01*
X1147Y1262D02*
X1184Y1262D01*
X87Y1261D02*
X123Y1261D01*
X150Y1261D02*
X186Y1261D01*
X1084Y1261D02*
X1119Y1261D01*
X1146Y1261D02*
X1183Y1261D01*
X87Y1260D02*
X123Y1260D01*
X149Y1260D02*
X186Y1260D01*
X1084Y1260D02*
X1120Y1260D01*
X1146Y1260D02*
X1183Y1260D01*
X87Y1259D02*
X124Y1259D01*
X148Y1259D02*
X185Y1259D01*
X1085Y1259D02*
X1121Y1259D01*
X1145Y1259D02*
X1182Y1259D01*
X88Y1258D02*
X125Y1258D01*
X147Y1258D02*
X185Y1258D01*
X1085Y1258D02*
X1122Y1258D01*
X1144Y1258D02*
X1182Y1258D01*
X88Y1257D02*
X127Y1257D01*
X146Y1257D02*
X184Y1257D01*
X1086Y1257D02*
X1123Y1257D01*
X1142Y1257D02*
X1181Y1257D01*
X89Y1256D02*
X128Y1256D01*
X144Y1256D02*
X184Y1256D01*
X1086Y1256D02*
X1125Y1256D01*
X1141Y1256D02*
X1181Y1256D01*
X90Y1255D02*
X131Y1255D01*
X142Y1255D02*
X183Y1255D01*
X1087Y1255D02*
X1127Y1255D01*
X1138Y1255D02*
X1180Y1255D01*
X91Y1254D02*
X182Y1254D01*
X1088Y1254D02*
X1179Y1254D01*
X91Y1253D02*
X181Y1253D01*
X1089Y1253D02*
X1178Y1253D01*
X92Y1252D02*
X180Y1252D01*
X1089Y1252D02*
X1177Y1252D01*
X93Y1251D02*
X179Y1251D01*
X1090Y1251D02*
X1176Y1251D01*
X95Y1250D02*
X178Y1250D01*
X1092Y1250D02*
X1175Y1250D01*
X96Y1249D02*
X177Y1249D01*
X1093Y1249D02*
X1174Y1249D01*
X97Y1248D02*
X175Y1248D01*
X1094Y1248D02*
X1172Y1248D01*
X99Y1247D02*
X173Y1247D01*
X1096Y1247D02*
X1171Y1247D01*
X101Y1246D02*
X171Y1246D01*
X1098Y1246D02*
X1169Y1246D01*
X104Y1245D02*
X168Y1245D01*
X1101Y1245D02*
X1165Y1245D01*
X108Y1196D02*
X164Y1196D01*
X1106Y1196D02*
X1161Y1196D01*
X103Y1195D02*
X169Y1195D01*
X1100Y1195D02*
X1166Y1195D01*
X101Y1194D02*
X172Y1194D01*
X1098Y1194D02*
X1169Y1194D01*
X99Y1193D02*
X174Y1193D01*
X1096Y1193D02*
X1171Y1193D01*
X97Y1192D02*
X176Y1192D01*
X1094Y1192D02*
X1173Y1192D01*
X95Y1191D02*
X177Y1191D01*
X1093Y1191D02*
X1174Y1191D01*
X94Y1190D02*
X178Y1190D01*
X1091Y1190D02*
X1176Y1190D01*
X93Y1189D02*
X180Y1189D01*
X1090Y1189D02*
X1177Y1189D01*
X92Y1188D02*
X181Y1188D01*
X1089Y1188D02*
X1178Y1188D01*
X91Y1187D02*
X181Y1187D01*
X1088Y1187D02*
X1179Y1187D01*
X90Y1186D02*
X135Y1186D01*
X138Y1186D02*
X182Y1186D01*
X1088Y1186D02*
X1131Y1186D01*
X1134Y1186D02*
X1179Y1186D01*
X90Y1185D02*
X130Y1185D01*
X143Y1185D02*
X183Y1185D01*
X1087Y1185D02*
X1126Y1185D01*
X1139Y1185D02*
X1180Y1185D01*
X89Y1184D02*
X128Y1184D01*
X145Y1184D02*
X184Y1184D01*
X1086Y1184D02*
X1124Y1184D01*
X1141Y1184D02*
X1181Y1184D01*
X88Y1183D02*
X126Y1183D01*
X146Y1183D02*
X184Y1183D01*
X1086Y1183D02*
X1123Y1183D01*
X1143Y1183D02*
X1181Y1183D01*
X88Y1182D02*
X125Y1182D01*
X147Y1182D02*
X185Y1182D01*
X1085Y1182D02*
X1122Y1182D01*
X1144Y1182D02*
X1182Y1182D01*
X87Y1181D02*
X124Y1181D01*
X148Y1181D02*
X185Y1181D01*
X1084Y1181D02*
X1121Y1181D01*
X1145Y1181D02*
X1182Y1181D01*
X87Y1180D02*
X123Y1180D01*
X149Y1180D02*
X186Y1180D01*
X1084Y1180D02*
X1120Y1180D01*
X1146Y1180D02*
X1183Y1180D01*
X86Y1179D02*
X123Y1179D01*
X150Y1179D02*
X186Y1179D01*
X1084Y1179D02*
X1119Y1179D01*
X1146Y1179D02*
X1183Y1179D01*
X86Y1178D02*
X122Y1178D01*
X151Y1178D02*
X187Y1178D01*
X1083Y1178D02*
X1118Y1178D01*
X1147Y1178D02*
X1184Y1178D01*
X86Y1177D02*
X121Y1177D01*
X151Y1177D02*
X187Y1177D01*
X1083Y1177D02*
X1118Y1177D01*
X1148Y1177D02*
X1184Y1177D01*
X86Y1176D02*
X121Y1176D01*
X152Y1176D02*
X187Y1176D01*
X1083Y1176D02*
X1117Y1176D01*
X1148Y1176D02*
X1184Y1176D01*
X85Y1175D02*
X121Y1175D01*
X152Y1175D02*
X187Y1175D01*
X1082Y1175D02*
X1117Y1175D01*
X1148Y1175D02*
X1184Y1175D01*
X85Y1174D02*
X120Y1174D01*
X152Y1174D02*
X187Y1174D01*
X1082Y1174D02*
X1117Y1174D01*
X1149Y1174D02*
X1185Y1174D01*
X85Y1173D02*
X120Y1173D01*
X153Y1173D02*
X188Y1173D01*
X1082Y1173D02*
X1116Y1173D01*
X1149Y1173D02*
X1185Y1173D01*
X85Y1172D02*
X120Y1172D01*
X153Y1172D02*
X188Y1172D01*
X1082Y1172D02*
X1116Y1172D01*
X1149Y1172D02*
X1185Y1172D01*
X85Y1171D02*
X120Y1171D01*
X153Y1171D02*
X188Y1171D01*
X1082Y1171D02*
X1116Y1171D01*
X1149Y1171D02*
X1185Y1171D01*
X85Y1170D02*
X120Y1170D01*
X153Y1170D02*
X188Y1170D01*
X1082Y1170D02*
X1116Y1170D01*
X1149Y1170D02*
X1185Y1170D01*
X85Y1169D02*
X120Y1169D01*
X153Y1169D02*
X188Y1169D01*
X1082Y1169D02*
X1116Y1169D01*
X1149Y1169D02*
X1185Y1169D01*
X85Y1168D02*
X120Y1168D01*
X153Y1168D02*
X188Y1168D01*
X1082Y1168D02*
X1116Y1168D01*
X1149Y1168D02*
X1185Y1168D01*
X85Y1167D02*
X120Y1167D01*
X152Y1167D02*
X188Y1167D01*
X1082Y1167D02*
X1117Y1167D01*
X1149Y1167D02*
X1185Y1167D01*
X85Y1166D02*
X120Y1166D01*
X152Y1166D02*
X187Y1166D01*
X1082Y1166D02*
X1117Y1166D01*
X1149Y1166D02*
X1185Y1166D01*
X85Y1165D02*
X121Y1165D01*
X152Y1165D02*
X187Y1165D01*
X1083Y1165D02*
X1117Y1165D01*
X1148Y1165D02*
X1184Y1165D01*
X86Y1164D02*
X121Y1164D01*
X152Y1164D02*
X187Y1164D01*
X1083Y1164D02*
X1117Y1164D01*
X1148Y1164D02*
X1184Y1164D01*
X86Y1163D02*
X121Y1163D01*
X151Y1163D02*
X187Y1163D01*
X1083Y1163D02*
X1118Y1163D01*
X1148Y1163D02*
X1184Y1163D01*
X86Y1162D02*
X122Y1162D01*
X151Y1162D02*
X186Y1162D01*
X1083Y1162D02*
X1118Y1162D01*
X1147Y1162D02*
X1184Y1162D01*
X87Y1161D02*
X123Y1161D01*
X150Y1161D02*
X186Y1161D01*
X1084Y1161D02*
X1119Y1161D01*
X1146Y1161D02*
X1183Y1161D01*
X87Y1160D02*
X123Y1160D01*
X149Y1160D02*
X186Y1160D01*
X1084Y1160D02*
X1120Y1160D01*
X1146Y1160D02*
X1183Y1160D01*
X87Y1159D02*
X124Y1159D01*
X148Y1159D02*
X185Y1159D01*
X1085Y1159D02*
X1121Y1159D01*
X1145Y1159D02*
X1182Y1159D01*
X88Y1158D02*
X125Y1158D01*
X147Y1158D02*
X185Y1158D01*
X1085Y1158D02*
X1122Y1158D01*
X1144Y1158D02*
X1182Y1158D01*
X89Y1157D02*
X127Y1157D01*
X146Y1157D02*
X184Y1157D01*
X1086Y1157D02*
X1123Y1157D01*
X1142Y1157D02*
X1181Y1157D01*
X89Y1156D02*
X128Y1156D01*
X144Y1156D02*
X184Y1156D01*
X1086Y1156D02*
X1125Y1156D01*
X1141Y1156D02*
X1181Y1156D01*
X90Y1155D02*
X131Y1155D01*
X142Y1155D02*
X183Y1155D01*
X1087Y1155D02*
X1127Y1155D01*
X1138Y1155D02*
X1180Y1155D01*
X91Y1154D02*
X182Y1154D01*
X1088Y1154D02*
X1179Y1154D01*
X91Y1153D02*
X181Y1153D01*
X1089Y1153D02*
X1178Y1153D01*
X92Y1152D02*
X180Y1152D01*
X1089Y1152D02*
X1178Y1152D01*
X93Y1151D02*
X179Y1151D01*
X1091Y1151D02*
X1176Y1151D01*
X95Y1150D02*
X178Y1150D01*
X1092Y1150D02*
X1175Y1150D01*
X96Y1149D02*
X177Y1149D01*
X1093Y1149D02*
X1174Y1149D01*
X97Y1148D02*
X175Y1148D01*
X1095Y1148D02*
X1172Y1148D01*
X99Y1147D02*
X173Y1147D01*
X1096Y1147D02*
X1171Y1147D01*
X101Y1146D02*
X171Y1146D01*
X1098Y1146D02*
X1169Y1146D01*
X104Y1145D02*
X168Y1145D01*
X1102Y1145D02*
X1165Y1145D01*
X108Y1096D02*
X164Y1096D01*
X1105Y1096D02*
X1162Y1096D01*
X103Y1095D02*
X169Y1095D01*
X1100Y1095D02*
X1167Y1095D01*
X100Y1094D02*
X172Y1094D01*
X1098Y1094D02*
X1169Y1094D01*
X99Y1093D02*
X174Y1093D01*
X1096Y1093D02*
X1171Y1093D01*
X97Y1092D02*
X176Y1092D01*
X1094Y1092D02*
X1173Y1092D01*
X95Y1091D02*
X177Y1091D01*
X1093Y1091D02*
X1174Y1091D01*
X94Y1090D02*
X178Y1090D01*
X1091Y1090D02*
X1176Y1090D01*
X93Y1089D02*
X180Y1089D01*
X1090Y1089D02*
X1177Y1089D01*
X92Y1088D02*
X181Y1088D01*
X1089Y1088D02*
X1178Y1088D01*
X91Y1087D02*
X181Y1087D01*
X1088Y1087D02*
X1179Y1087D01*
X90Y1086D02*
X134Y1086D01*
X139Y1086D02*
X182Y1086D01*
X1087Y1086D02*
X1131Y1086D01*
X1134Y1086D02*
X1179Y1086D01*
X90Y1085D02*
X130Y1085D01*
X143Y1085D02*
X183Y1085D01*
X1087Y1085D02*
X1126Y1085D01*
X1139Y1085D02*
X1180Y1085D01*
X89Y1084D02*
X128Y1084D01*
X145Y1084D02*
X184Y1084D01*
X1086Y1084D02*
X1124Y1084D01*
X1141Y1084D02*
X1181Y1084D01*
X88Y1083D02*
X126Y1083D01*
X146Y1083D02*
X184Y1083D01*
X1085Y1083D02*
X1123Y1083D01*
X1143Y1083D02*
X1181Y1083D01*
X88Y1082D02*
X125Y1082D01*
X148Y1082D02*
X185Y1082D01*
X1085Y1082D02*
X1122Y1082D01*
X1144Y1082D02*
X1182Y1082D01*
X87Y1081D02*
X124Y1081D01*
X149Y1081D02*
X185Y1081D01*
X1084Y1081D02*
X1121Y1081D01*
X1145Y1081D02*
X1182Y1081D01*
X87Y1080D02*
X123Y1080D01*
X150Y1080D02*
X186Y1080D01*
X1084Y1080D02*
X1120Y1080D01*
X1146Y1080D02*
X1183Y1080D01*
X86Y1079D02*
X122Y1079D01*
X150Y1079D02*
X186Y1079D01*
X1084Y1079D02*
X1119Y1079D01*
X1146Y1079D02*
X1183Y1079D01*
X86Y1078D02*
X122Y1078D01*
X151Y1078D02*
X187Y1078D01*
X1083Y1078D02*
X1118Y1078D01*
X1147Y1078D02*
X1184Y1078D01*
X86Y1077D02*
X121Y1077D01*
X151Y1077D02*
X187Y1077D01*
X1083Y1077D02*
X1118Y1077D01*
X1148Y1077D02*
X1184Y1077D01*
X86Y1076D02*
X121Y1076D01*
X152Y1076D02*
X187Y1076D01*
X1083Y1076D02*
X1117Y1076D01*
X1148Y1076D02*
X1184Y1076D01*
X85Y1075D02*
X120Y1075D01*
X152Y1075D02*
X187Y1075D01*
X1082Y1075D02*
X1117Y1075D01*
X1148Y1075D02*
X1184Y1075D01*
X85Y1074D02*
X120Y1074D01*
X153Y1074D02*
X187Y1074D01*
X1082Y1074D02*
X1117Y1074D01*
X1149Y1074D02*
X1185Y1074D01*
X85Y1073D02*
X120Y1073D01*
X153Y1073D02*
X188Y1073D01*
X1082Y1073D02*
X1116Y1073D01*
X1149Y1073D02*
X1185Y1073D01*
X85Y1072D02*
X120Y1072D01*
X153Y1072D02*
X188Y1072D01*
X1082Y1072D02*
X1116Y1072D01*
X1149Y1072D02*
X1185Y1072D01*
X85Y1071D02*
X120Y1071D01*
X153Y1071D02*
X188Y1071D01*
X1082Y1071D02*
X1116Y1071D01*
X1149Y1071D02*
X1185Y1071D01*
X85Y1070D02*
X120Y1070D01*
X153Y1070D02*
X188Y1070D01*
X1082Y1070D02*
X1116Y1070D01*
X1149Y1070D02*
X1185Y1070D01*
X85Y1069D02*
X120Y1069D01*
X153Y1069D02*
X188Y1069D01*
X1082Y1069D02*
X1116Y1069D01*
X1149Y1069D02*
X1185Y1069D01*
X85Y1068D02*
X120Y1068D01*
X153Y1068D02*
X188Y1068D01*
X1082Y1068D02*
X1116Y1068D01*
X1149Y1068D02*
X1185Y1068D01*
X85Y1067D02*
X120Y1067D01*
X153Y1067D02*
X188Y1067D01*
X1082Y1067D02*
X1117Y1067D01*
X1149Y1067D02*
X1185Y1067D01*
X85Y1066D02*
X120Y1066D01*
X152Y1066D02*
X187Y1066D01*
X1082Y1066D02*
X1117Y1066D01*
X1149Y1066D02*
X1185Y1066D01*
X85Y1065D02*
X120Y1065D01*
X152Y1065D02*
X187Y1065D01*
X1082Y1065D02*
X1117Y1065D01*
X1148Y1065D02*
X1184Y1065D01*
X86Y1064D02*
X121Y1064D01*
X152Y1064D02*
X187Y1064D01*
X1083Y1064D02*
X1117Y1064D01*
X1148Y1064D02*
X1184Y1064D01*
X86Y1063D02*
X121Y1063D01*
X151Y1063D02*
X187Y1063D01*
X1083Y1063D02*
X1118Y1063D01*
X1147Y1063D02*
X1184Y1063D01*
X86Y1062D02*
X122Y1062D01*
X151Y1062D02*
X186Y1062D01*
X1083Y1062D02*
X1118Y1062D01*
X1147Y1062D02*
X1184Y1062D01*
X87Y1061D02*
X122Y1061D01*
X150Y1061D02*
X186Y1061D01*
X1084Y1061D02*
X1119Y1061D01*
X1146Y1061D02*
X1183Y1061D01*
X87Y1060D02*
X123Y1060D01*
X149Y1060D02*
X186Y1060D01*
X1084Y1060D02*
X1120Y1060D01*
X1145Y1060D02*
X1183Y1060D01*
X87Y1059D02*
X124Y1059D01*
X149Y1059D02*
X185Y1059D01*
X1085Y1059D02*
X1121Y1059D01*
X1145Y1059D02*
X1182Y1059D01*
X88Y1058D02*
X125Y1058D01*
X147Y1058D02*
X185Y1058D01*
X1085Y1058D02*
X1122Y1058D01*
X1143Y1058D02*
X1182Y1058D01*
X89Y1057D02*
X126Y1057D01*
X146Y1057D02*
X184Y1057D01*
X1086Y1057D02*
X1123Y1057D01*
X1142Y1057D02*
X1181Y1057D01*
X89Y1056D02*
X128Y1056D01*
X145Y1056D02*
X183Y1056D01*
X1086Y1056D02*
X1125Y1056D01*
X1141Y1056D02*
X1181Y1056D01*
X90Y1055D02*
X130Y1055D01*
X142Y1055D02*
X183Y1055D01*
X1087Y1055D02*
X1127Y1055D01*
X1138Y1055D02*
X1180Y1055D01*
X91Y1054D02*
X182Y1054D01*
X1088Y1054D02*
X1179Y1054D01*
X91Y1053D02*
X181Y1053D01*
X1089Y1053D02*
X1178Y1053D01*
X92Y1052D02*
X180Y1052D01*
X1089Y1052D02*
X1177Y1052D01*
X93Y1051D02*
X179Y1051D01*
X1091Y1051D02*
X1176Y1051D01*
X95Y1050D02*
X178Y1050D01*
X1092Y1050D02*
X1175Y1050D01*
X96Y1049D02*
X177Y1049D01*
X1093Y1049D02*
X1174Y1049D01*
X97Y1048D02*
X175Y1048D01*
X1095Y1048D02*
X1172Y1048D01*
X99Y1047D02*
X173Y1047D01*
X1096Y1047D02*
X1170Y1047D01*
X101Y1046D02*
X171Y1046D01*
X1098Y1046D02*
X1168Y1046D01*
X104Y1045D02*
X168Y1045D01*
X1102Y1045D02*
X1165Y1045D01*
X108Y996D02*
X165Y996D01*
X1105Y996D02*
X1162Y996D01*
X103Y995D02*
X170Y995D01*
X1100Y995D02*
X1167Y995D01*
X100Y994D02*
X172Y994D01*
X1098Y994D02*
X1169Y994D01*
X99Y993D02*
X174Y993D01*
X1096Y993D02*
X1171Y993D01*
X97Y992D02*
X176Y992D01*
X1094Y992D02*
X1173Y992D01*
X95Y991D02*
X177Y991D01*
X1093Y991D02*
X1174Y991D01*
X94Y990D02*
X178Y990D01*
X1091Y990D02*
X1176Y990D01*
X93Y989D02*
X180Y989D01*
X1090Y989D02*
X1177Y989D01*
X92Y988D02*
X181Y988D01*
X1089Y988D02*
X1178Y988D01*
X91Y987D02*
X181Y987D01*
X1088Y987D02*
X1179Y987D01*
X90Y986D02*
X135Y986D01*
X138Y986D02*
X182Y986D01*
X1087Y986D02*
X1131Y986D01*
X1134Y986D02*
X1179Y986D01*
X89Y985D02*
X130Y985D01*
X143Y985D02*
X183Y985D01*
X1087Y985D02*
X1126Y985D01*
X1139Y985D02*
X1180Y985D01*
X89Y984D02*
X128Y984D01*
X145Y984D02*
X184Y984D01*
X1086Y984D02*
X1124Y984D01*
X1141Y984D02*
X1181Y984D01*
X88Y983D02*
X126Y983D01*
X146Y983D02*
X184Y983D01*
X1085Y983D02*
X1123Y983D01*
X1143Y983D02*
X1181Y983D01*
X88Y982D02*
X125Y982D01*
X147Y982D02*
X185Y982D01*
X1085Y982D02*
X1122Y982D01*
X1144Y982D02*
X1182Y982D01*
X87Y981D02*
X124Y981D01*
X148Y981D02*
X185Y981D01*
X1084Y981D02*
X1121Y981D01*
X1145Y981D02*
X1182Y981D01*
X87Y980D02*
X123Y980D01*
X149Y980D02*
X186Y980D01*
X1084Y980D02*
X1120Y980D01*
X1146Y980D02*
X1183Y980D01*
X86Y979D02*
X123Y979D01*
X150Y979D02*
X186Y979D01*
X1084Y979D02*
X1119Y979D01*
X1146Y979D02*
X1183Y979D01*
X86Y978D02*
X122Y978D01*
X151Y978D02*
X187Y978D01*
X1083Y978D02*
X1118Y978D01*
X1147Y978D02*
X1184Y978D01*
X86Y977D02*
X121Y977D01*
X151Y977D02*
X187Y977D01*
X1083Y977D02*
X1118Y977D01*
X1148Y977D02*
X1184Y977D01*
X86Y976D02*
X121Y976D01*
X152Y976D02*
X187Y976D01*
X1083Y976D02*
X1117Y976D01*
X1148Y976D02*
X1184Y976D01*
X85Y975D02*
X121Y975D01*
X152Y975D02*
X187Y975D01*
X1082Y975D02*
X1117Y975D01*
X1148Y975D02*
X1184Y975D01*
X85Y974D02*
X120Y974D01*
X152Y974D02*
X187Y974D01*
X1082Y974D02*
X1117Y974D01*
X1149Y974D02*
X1185Y974D01*
X85Y973D02*
X120Y973D01*
X152Y973D02*
X188Y973D01*
X1082Y973D02*
X1116Y973D01*
X1149Y973D02*
X1185Y973D01*
X85Y972D02*
X120Y972D01*
X153Y972D02*
X188Y972D01*
X1082Y972D02*
X1116Y972D01*
X1149Y972D02*
X1185Y972D01*
X85Y971D02*
X120Y971D01*
X153Y971D02*
X188Y971D01*
X1082Y971D02*
X1116Y971D01*
X1149Y971D02*
X1185Y971D01*
X85Y970D02*
X120Y970D01*
X153Y970D02*
X188Y970D01*
X1082Y970D02*
X1116Y970D01*
X1149Y970D02*
X1185Y970D01*
X85Y969D02*
X120Y969D01*
X153Y969D02*
X188Y969D01*
X1082Y969D02*
X1116Y969D01*
X1149Y969D02*
X1185Y969D01*
X85Y968D02*
X120Y968D01*
X153Y968D02*
X188Y968D01*
X1082Y968D02*
X1116Y968D01*
X1149Y968D02*
X1185Y968D01*
X85Y967D02*
X120Y967D01*
X152Y967D02*
X188Y967D01*
X1082Y967D02*
X1117Y967D01*
X1149Y967D02*
X1185Y967D01*
X85Y966D02*
X120Y966D01*
X152Y966D02*
X187Y966D01*
X1082Y966D02*
X1117Y966D01*
X1149Y966D02*
X1185Y966D01*
X85Y965D02*
X121Y965D01*
X152Y965D02*
X187Y965D01*
X1083Y965D02*
X1117Y965D01*
X1148Y965D02*
X1184Y965D01*
X86Y964D02*
X121Y964D01*
X152Y964D02*
X187Y964D01*
X1083Y964D02*
X1117Y964D01*
X1148Y964D02*
X1184Y964D01*
X86Y963D02*
X122Y963D01*
X151Y963D02*
X187Y963D01*
X1083Y963D02*
X1118Y963D01*
X1147Y963D02*
X1184Y963D01*
X86Y962D02*
X122Y962D01*
X150Y962D02*
X186Y962D01*
X1083Y962D02*
X1118Y962D01*
X1147Y962D02*
X1184Y962D01*
X87Y961D02*
X123Y961D01*
X150Y961D02*
X186Y961D01*
X1084Y961D02*
X1119Y961D01*
X1146Y961D02*
X1183Y961D01*
X87Y960D02*
X124Y960D01*
X149Y960D02*
X186Y960D01*
X1084Y960D02*
X1120Y960D01*
X1145Y960D02*
X1183Y960D01*
X87Y959D02*
X124Y959D01*
X148Y959D02*
X185Y959D01*
X1085Y959D02*
X1121Y959D01*
X1145Y959D02*
X1182Y959D01*
X88Y958D02*
X126Y958D01*
X147Y958D02*
X185Y958D01*
X1085Y958D02*
X1122Y958D01*
X1143Y958D02*
X1182Y958D01*
X89Y957D02*
X127Y957D01*
X146Y957D02*
X184Y957D01*
X1086Y957D02*
X1123Y957D01*
X1142Y957D02*
X1181Y957D01*
X89Y956D02*
X129Y956D01*
X144Y956D02*
X183Y956D01*
X1086Y956D02*
X1125Y956D01*
X1140Y956D02*
X1181Y956D01*
X90Y955D02*
X131Y955D01*
X142Y955D02*
X183Y955D01*
X1087Y955D02*
X1127Y955D01*
X1138Y955D02*
X1180Y955D01*
X91Y954D02*
X182Y954D01*
X1088Y954D02*
X1179Y954D01*
X91Y953D02*
X181Y953D01*
X1089Y953D02*
X1178Y953D01*
X92Y952D02*
X180Y952D01*
X1089Y952D02*
X1177Y952D01*
X93Y951D02*
X179Y951D01*
X1091Y951D02*
X1176Y951D01*
X95Y950D02*
X178Y950D01*
X1092Y950D02*
X1175Y950D01*
X96Y949D02*
X177Y949D01*
X1093Y949D02*
X1174Y949D01*
X97Y948D02*
X175Y948D01*
X1095Y948D02*
X1172Y948D01*
X99Y947D02*
X173Y947D01*
X1096Y947D02*
X1170Y947D01*
X101Y946D02*
X171Y946D01*
X1099Y946D02*
X1168Y946D01*
X105Y945D02*
X168Y945D01*
X1102Y945D02*
X1165Y945D01*
X108Y896D02*
X165Y896D01*
X1105Y896D02*
X1162Y896D01*
X103Y895D02*
X170Y895D01*
X1100Y895D02*
X1167Y895D01*
X100Y894D02*
X172Y894D01*
X1098Y894D02*
X1169Y894D01*
X99Y893D02*
X174Y893D01*
X1096Y893D02*
X1171Y893D01*
X97Y892D02*
X176Y892D01*
X1094Y892D02*
X1173Y892D01*
X95Y891D02*
X177Y891D01*
X1092Y891D02*
X1174Y891D01*
X94Y890D02*
X178Y890D01*
X1091Y890D02*
X1176Y890D01*
X93Y889D02*
X180Y889D01*
X1090Y889D02*
X1177Y889D01*
X92Y888D02*
X181Y888D01*
X1089Y888D02*
X1178Y888D01*
X91Y887D02*
X181Y887D01*
X1088Y887D02*
X1179Y887D01*
X90Y886D02*
X134Y886D01*
X138Y886D02*
X182Y886D01*
X1087Y886D02*
X1131Y886D01*
X1135Y886D02*
X1179Y886D01*
X89Y885D02*
X130Y885D01*
X143Y885D02*
X183Y885D01*
X1087Y885D02*
X1126Y885D01*
X1139Y885D02*
X1180Y885D01*
X89Y884D02*
X128Y884D01*
X145Y884D02*
X184Y884D01*
X1086Y884D02*
X1124Y884D01*
X1141Y884D02*
X1181Y884D01*
X88Y883D02*
X126Y883D01*
X146Y883D02*
X184Y883D01*
X1085Y883D02*
X1123Y883D01*
X1143Y883D02*
X1181Y883D01*
X88Y882D02*
X125Y882D01*
X147Y882D02*
X185Y882D01*
X1085Y882D02*
X1122Y882D01*
X1144Y882D02*
X1182Y882D01*
X87Y881D02*
X124Y881D01*
X149Y881D02*
X185Y881D01*
X1084Y881D02*
X1120Y881D01*
X1145Y881D02*
X1183Y881D01*
X87Y880D02*
X123Y880D01*
X149Y880D02*
X186Y880D01*
X1084Y880D02*
X1120Y880D01*
X1146Y880D02*
X1183Y880D01*
X86Y879D02*
X123Y879D01*
X150Y879D02*
X186Y879D01*
X1084Y879D02*
X1119Y879D01*
X1147Y879D02*
X1183Y879D01*
X86Y878D02*
X122Y878D01*
X151Y878D02*
X187Y878D01*
X1083Y878D02*
X1118Y878D01*
X1147Y878D02*
X1184Y878D01*
X86Y877D02*
X121Y877D01*
X151Y877D02*
X187Y877D01*
X1083Y877D02*
X1118Y877D01*
X1148Y877D02*
X1184Y877D01*
X85Y876D02*
X121Y876D01*
X152Y876D02*
X187Y876D01*
X1083Y876D02*
X1117Y876D01*
X1148Y876D02*
X1184Y876D01*
X85Y875D02*
X121Y875D01*
X152Y875D02*
X187Y875D01*
X1082Y875D02*
X1117Y875D01*
X1148Y875D02*
X1184Y875D01*
X85Y874D02*
X120Y874D01*
X152Y874D02*
X187Y874D01*
X1082Y874D02*
X1117Y874D01*
X1149Y874D02*
X1185Y874D01*
X85Y873D02*
X120Y873D01*
X153Y873D02*
X188Y873D01*
X1082Y873D02*
X1116Y873D01*
X1149Y873D02*
X1185Y873D01*
X85Y872D02*
X120Y872D01*
X153Y872D02*
X188Y872D01*
X1082Y872D02*
X1116Y872D01*
X1149Y872D02*
X1185Y872D01*
X85Y871D02*
X120Y871D01*
X153Y871D02*
X188Y871D01*
X1082Y871D02*
X1116Y871D01*
X1149Y871D02*
X1185Y871D01*
X85Y870D02*
X120Y870D01*
X153Y870D02*
X188Y870D01*
X1082Y870D02*
X1116Y870D01*
X1149Y870D02*
X1185Y870D01*
X85Y869D02*
X120Y869D01*
X153Y869D02*
X188Y869D01*
X1082Y869D02*
X1116Y869D01*
X1149Y869D02*
X1185Y869D01*
X85Y868D02*
X120Y868D01*
X153Y868D02*
X188Y868D01*
X1082Y868D02*
X1116Y868D01*
X1149Y868D02*
X1185Y868D01*
X85Y867D02*
X120Y867D01*
X152Y867D02*
X188Y867D01*
X1082Y867D02*
X1117Y867D01*
X1149Y867D02*
X1185Y867D01*
X85Y866D02*
X120Y866D01*
X152Y866D02*
X187Y866D01*
X1082Y866D02*
X1117Y866D01*
X1149Y866D02*
X1185Y866D01*
X85Y865D02*
X121Y865D01*
X152Y865D02*
X187Y865D01*
X1083Y865D02*
X1117Y865D01*
X1148Y865D02*
X1184Y865D01*
X86Y864D02*
X121Y864D01*
X152Y864D02*
X187Y864D01*
X1083Y864D02*
X1117Y864D01*
X1148Y864D02*
X1184Y864D01*
X86Y863D02*
X122Y863D01*
X151Y863D02*
X187Y863D01*
X1083Y863D02*
X1118Y863D01*
X1147Y863D02*
X1184Y863D01*
X86Y862D02*
X122Y862D01*
X150Y862D02*
X186Y862D01*
X1083Y862D02*
X1119Y862D01*
X1147Y862D02*
X1184Y862D01*
X87Y861D02*
X123Y861D01*
X150Y861D02*
X186Y861D01*
X1084Y861D02*
X1119Y861D01*
X1146Y861D02*
X1183Y861D01*
X87Y860D02*
X124Y860D01*
X149Y860D02*
X186Y860D01*
X1084Y860D02*
X1120Y860D01*
X1145Y860D02*
X1183Y860D01*
X87Y859D02*
X124Y859D01*
X148Y859D02*
X185Y859D01*
X1085Y859D02*
X1121Y859D01*
X1145Y859D02*
X1182Y859D01*
X88Y858D02*
X126Y858D01*
X147Y858D02*
X185Y858D01*
X1085Y858D02*
X1122Y858D01*
X1143Y858D02*
X1182Y858D01*
X89Y857D02*
X127Y857D01*
X146Y857D02*
X184Y857D01*
X1086Y857D02*
X1123Y857D01*
X1142Y857D02*
X1181Y857D01*
X89Y856D02*
X129Y856D01*
X144Y856D02*
X183Y856D01*
X1086Y856D02*
X1125Y856D01*
X1140Y856D02*
X1181Y856D01*
X90Y855D02*
X131Y855D01*
X142Y855D02*
X183Y855D01*
X1087Y855D02*
X1127Y855D01*
X1138Y855D02*
X1180Y855D01*
X91Y854D02*
X182Y854D01*
X1088Y854D02*
X1179Y854D01*
X91Y853D02*
X181Y853D01*
X1089Y853D02*
X1178Y853D01*
X92Y852D02*
X180Y852D01*
X1089Y852D02*
X1177Y852D01*
X93Y851D02*
X179Y851D01*
X1091Y851D02*
X1176Y851D01*
X95Y850D02*
X178Y850D01*
X1092Y850D02*
X1175Y850D01*
X96Y849D02*
X177Y849D01*
X1093Y849D02*
X1174Y849D01*
X98Y848D02*
X175Y848D01*
X1095Y848D02*
X1172Y848D01*
X99Y847D02*
X173Y847D01*
X1097Y847D02*
X1170Y847D01*
X101Y846D02*
X171Y846D01*
X1099Y846D02*
X1168Y846D01*
X105Y845D02*
X168Y845D01*
X1102Y845D02*
X1165Y845D01*
X107Y796D02*
X165Y796D01*
X1105Y796D02*
X1162Y796D01*
X103Y795D02*
X170Y795D01*
X1100Y795D02*
X1167Y795D01*
X100Y794D02*
X172Y794D01*
X1097Y794D02*
X1169Y794D01*
X98Y793D02*
X174Y793D01*
X1096Y793D02*
X1171Y793D01*
X97Y792D02*
X176Y792D01*
X1094Y792D02*
X1173Y792D01*
X95Y791D02*
X177Y791D01*
X1092Y791D02*
X1174Y791D01*
X94Y790D02*
X178Y790D01*
X1091Y790D02*
X1176Y790D01*
X93Y789D02*
X180Y789D01*
X1090Y789D02*
X1177Y789D01*
X92Y788D02*
X181Y788D01*
X1089Y788D02*
X1178Y788D01*
X91Y787D02*
X181Y787D01*
X1088Y787D02*
X1179Y787D01*
X90Y786D02*
X133Y786D01*
X139Y786D02*
X182Y786D01*
X1087Y786D02*
X1130Y786D01*
X1136Y786D02*
X1179Y786D01*
X89Y785D02*
X130Y785D01*
X143Y785D02*
X183Y785D01*
X1087Y785D02*
X1126Y785D01*
X1139Y785D02*
X1180Y785D01*
X89Y784D02*
X128Y784D01*
X145Y784D02*
X184Y784D01*
X1086Y784D02*
X1124Y784D01*
X1141Y784D02*
X1181Y784D01*
X88Y783D02*
X126Y783D01*
X147Y783D02*
X184Y783D01*
X1085Y783D02*
X1122Y783D01*
X1143Y783D02*
X1181Y783D01*
X88Y782D02*
X125Y782D01*
X148Y782D02*
X185Y782D01*
X1085Y782D02*
X1121Y782D01*
X1144Y782D02*
X1182Y782D01*
X87Y781D02*
X124Y781D01*
X149Y781D02*
X185Y781D01*
X1084Y781D02*
X1120Y781D01*
X1145Y781D02*
X1183Y781D01*
X87Y780D02*
X123Y780D01*
X150Y780D02*
X186Y780D01*
X1084Y780D02*
X1119Y780D01*
X1146Y780D02*
X1183Y780D01*
X86Y779D02*
X122Y779D01*
X150Y779D02*
X186Y779D01*
X1084Y779D02*
X1119Y779D01*
X1147Y779D02*
X1183Y779D01*
X86Y778D02*
X122Y778D01*
X151Y778D02*
X187Y778D01*
X1083Y778D02*
X1118Y778D01*
X1147Y778D02*
X1184Y778D01*
X86Y777D02*
X121Y777D01*
X151Y777D02*
X187Y777D01*
X1083Y777D02*
X1118Y777D01*
X1148Y777D02*
X1184Y777D01*
X85Y776D02*
X121Y776D01*
X152Y776D02*
X187Y776D01*
X1083Y776D02*
X1117Y776D01*
X1148Y776D02*
X1184Y776D01*
X85Y775D02*
X120Y775D01*
X152Y775D02*
X187Y775D01*
X1082Y775D02*
X1117Y775D01*
X1149Y775D02*
X1184Y775D01*
X85Y774D02*
X120Y774D01*
X152Y774D02*
X187Y774D01*
X1082Y774D02*
X1116Y774D01*
X1149Y774D02*
X1185Y774D01*
X85Y773D02*
X120Y773D01*
X153Y773D02*
X188Y773D01*
X1082Y773D02*
X1116Y773D01*
X1149Y773D02*
X1185Y773D01*
X85Y772D02*
X120Y772D01*
X153Y772D02*
X188Y772D01*
X1082Y772D02*
X1116Y772D01*
X1149Y772D02*
X1185Y772D01*
X85Y771D02*
X120Y771D01*
X153Y771D02*
X188Y771D01*
X1082Y771D02*
X1116Y771D01*
X1149Y771D02*
X1185Y771D01*
X85Y770D02*
X120Y770D01*
X153Y770D02*
X188Y770D01*
X1082Y770D02*
X1116Y770D01*
X1149Y770D02*
X1185Y770D01*
X85Y769D02*
X120Y769D01*
X153Y769D02*
X188Y769D01*
X1082Y769D02*
X1116Y769D01*
X1149Y769D02*
X1185Y769D01*
X85Y768D02*
X120Y768D01*
X153Y768D02*
X188Y768D01*
X1082Y768D02*
X1116Y768D01*
X1149Y768D02*
X1185Y768D01*
X85Y767D02*
X120Y767D01*
X153Y767D02*
X188Y767D01*
X1082Y767D02*
X1116Y767D01*
X1149Y767D02*
X1185Y767D01*
X85Y766D02*
X120Y766D01*
X152Y766D02*
X187Y766D01*
X1082Y766D02*
X1117Y766D01*
X1149Y766D02*
X1185Y766D01*
X85Y765D02*
X121Y765D01*
X152Y765D02*
X187Y765D01*
X1083Y765D02*
X1117Y765D01*
X1148Y765D02*
X1184Y765D01*
X86Y764D02*
X121Y764D01*
X152Y764D02*
X187Y764D01*
X1083Y764D02*
X1117Y764D01*
X1148Y764D02*
X1184Y764D01*
X86Y763D02*
X121Y763D01*
X151Y763D02*
X187Y763D01*
X1083Y763D02*
X1118Y763D01*
X1148Y763D02*
X1184Y763D01*
X86Y762D02*
X122Y762D01*
X151Y762D02*
X186Y762D01*
X1083Y762D02*
X1118Y762D01*
X1147Y762D02*
X1184Y762D01*
X87Y761D02*
X123Y761D01*
X150Y761D02*
X186Y761D01*
X1084Y761D02*
X1119Y761D01*
X1146Y761D02*
X1183Y761D01*
X87Y760D02*
X123Y760D01*
X149Y760D02*
X186Y760D01*
X1084Y760D02*
X1120Y760D01*
X1146Y760D02*
X1183Y760D01*
X87Y759D02*
X124Y759D01*
X148Y759D02*
X185Y759D01*
X1085Y759D02*
X1121Y759D01*
X1145Y759D02*
X1182Y759D01*
X88Y758D02*
X125Y758D01*
X147Y758D02*
X185Y758D01*
X1085Y758D02*
X1122Y758D01*
X1144Y758D02*
X1182Y758D01*
X89Y757D02*
X127Y757D01*
X146Y757D02*
X184Y757D01*
X1086Y757D02*
X1123Y757D01*
X1142Y757D02*
X1181Y757D01*
X89Y756D02*
X128Y756D01*
X144Y756D02*
X183Y756D01*
X1086Y756D02*
X1125Y756D01*
X1141Y756D02*
X1181Y756D01*
X90Y755D02*
X131Y755D01*
X142Y755D02*
X183Y755D01*
X1087Y755D02*
X1127Y755D01*
X1138Y755D02*
X1180Y755D01*
X91Y754D02*
X182Y754D01*
X1088Y754D02*
X1179Y754D01*
X92Y753D02*
X181Y753D01*
X1089Y753D02*
X1178Y753D01*
X92Y752D02*
X180Y752D01*
X1090Y752D02*
X1177Y752D01*
X94Y751D02*
X179Y751D01*
X1091Y751D02*
X1176Y751D01*
X95Y750D02*
X178Y750D01*
X1092Y750D02*
X1175Y750D01*
X96Y749D02*
X177Y749D01*
X1093Y749D02*
X1174Y749D01*
X98Y748D02*
X175Y748D01*
X1095Y748D02*
X1172Y748D01*
X99Y747D02*
X173Y747D01*
X1097Y747D02*
X1170Y747D01*
X102Y746D02*
X171Y746D01*
X1099Y746D02*
X1168Y746D01*
X105Y745D02*
X168Y745D01*
X1102Y745D02*
X1165Y745D01*
X107Y696D02*
X165Y696D01*
X1104Y696D02*
X1163Y696D01*
X103Y695D02*
X170Y695D01*
X1100Y695D02*
X1167Y695D01*
X100Y694D02*
X172Y694D01*
X1097Y694D02*
X1170Y694D01*
X98Y693D02*
X174Y693D01*
X1096Y693D02*
X1171Y693D01*
X97Y692D02*
X176Y692D01*
X1094Y692D02*
X1173Y692D01*
X95Y691D02*
X177Y691D01*
X1092Y691D02*
X1175Y691D01*
X94Y690D02*
X179Y690D01*
X1091Y690D02*
X1176Y690D01*
X93Y689D02*
X180Y689D01*
X1090Y689D02*
X1177Y689D01*
X92Y688D02*
X181Y688D01*
X1089Y688D02*
X1178Y688D01*
X91Y687D02*
X181Y687D01*
X1088Y687D02*
X1179Y687D01*
X90Y686D02*
X133Y686D01*
X140Y686D02*
X182Y686D01*
X1087Y686D02*
X1129Y686D01*
X1136Y686D02*
X1180Y686D01*
X89Y685D02*
X130Y685D01*
X143Y685D02*
X183Y685D01*
X1087Y685D02*
X1126Y685D01*
X1140Y685D02*
X1180Y685D01*
X89Y684D02*
X128Y684D01*
X145Y684D02*
X184Y684D01*
X1086Y684D02*
X1124Y684D01*
X1142Y684D02*
X1181Y684D01*
X88Y683D02*
X126Y683D01*
X147Y683D02*
X184Y683D01*
X1085Y683D02*
X1122Y683D01*
X1143Y683D02*
X1181Y683D01*
X88Y682D02*
X125Y682D01*
X148Y682D02*
X185Y682D01*
X1085Y682D02*
X1121Y682D01*
X1144Y682D02*
X1182Y682D01*
X87Y681D02*
X124Y681D01*
X149Y681D02*
X185Y681D01*
X1084Y681D02*
X1120Y681D01*
X1145Y681D02*
X1183Y681D01*
X87Y680D02*
X123Y680D01*
X150Y680D02*
X186Y680D01*
X1084Y680D02*
X1119Y680D01*
X1146Y680D02*
X1183Y680D01*
X86Y679D02*
X122Y679D01*
X150Y679D02*
X186Y679D01*
X1084Y679D02*
X1119Y679D01*
X1147Y679D02*
X1183Y679D01*
X86Y678D02*
X122Y678D01*
X151Y678D02*
X187Y678D01*
X1083Y678D02*
X1118Y678D01*
X1147Y678D02*
X1184Y678D01*
X86Y677D02*
X121Y677D01*
X151Y677D02*
X187Y677D01*
X1083Y677D02*
X1118Y677D01*
X1148Y677D02*
X1184Y677D01*
X85Y676D02*
X121Y676D01*
X152Y676D02*
X187Y676D01*
X1083Y676D02*
X1117Y676D01*
X1148Y676D02*
X1184Y676D01*
X85Y675D02*
X120Y675D01*
X152Y675D02*
X187Y675D01*
X1082Y675D02*
X1117Y675D01*
X1149Y675D02*
X1184Y675D01*
X85Y674D02*
X120Y674D01*
X153Y674D02*
X187Y674D01*
X1082Y674D02*
X1116Y674D01*
X1149Y674D02*
X1185Y674D01*
X85Y673D02*
X120Y673D01*
X153Y673D02*
X188Y673D01*
X1082Y673D02*
X1116Y673D01*
X1149Y673D02*
X1185Y673D01*
X85Y672D02*
X120Y672D01*
X153Y672D02*
X188Y672D01*
X1082Y672D02*
X1116Y672D01*
X1149Y672D02*
X1185Y672D01*
X85Y671D02*
X120Y671D01*
X153Y671D02*
X188Y671D01*
X1082Y671D02*
X1116Y671D01*
X1149Y671D02*
X1185Y671D01*
X85Y670D02*
X120Y670D01*
X153Y670D02*
X188Y670D01*
X1082Y670D02*
X1116Y670D01*
X1149Y670D02*
X1185Y670D01*
X85Y669D02*
X120Y669D01*
X153Y669D02*
X188Y669D01*
X1082Y669D02*
X1116Y669D01*
X1149Y669D02*
X1185Y669D01*
X85Y668D02*
X120Y668D01*
X153Y668D02*
X188Y668D01*
X1082Y668D02*
X1116Y668D01*
X1149Y668D02*
X1185Y668D01*
X85Y667D02*
X120Y667D01*
X153Y667D02*
X187Y667D01*
X1082Y667D02*
X1116Y667D01*
X1149Y667D02*
X1185Y667D01*
X85Y666D02*
X120Y666D01*
X152Y666D02*
X187Y666D01*
X1082Y666D02*
X1117Y666D01*
X1149Y666D02*
X1185Y666D01*
X85Y665D02*
X121Y665D01*
X152Y665D02*
X187Y665D01*
X1083Y665D02*
X1117Y665D01*
X1148Y665D02*
X1184Y665D01*
X86Y664D02*
X121Y664D01*
X152Y664D02*
X187Y664D01*
X1083Y664D02*
X1117Y664D01*
X1148Y664D02*
X1184Y664D01*
X86Y663D02*
X121Y663D01*
X151Y663D02*
X187Y663D01*
X1083Y663D02*
X1118Y663D01*
X1148Y663D02*
X1184Y663D01*
X86Y662D02*
X122Y662D01*
X151Y662D02*
X186Y662D01*
X1083Y662D02*
X1118Y662D01*
X1147Y662D02*
X1184Y662D01*
X87Y661D02*
X123Y661D01*
X150Y661D02*
X186Y661D01*
X1084Y661D02*
X1119Y661D01*
X1146Y661D02*
X1183Y661D01*
X87Y660D02*
X123Y660D01*
X149Y660D02*
X186Y660D01*
X1084Y660D02*
X1120Y660D01*
X1146Y660D02*
X1183Y660D01*
X88Y659D02*
X124Y659D01*
X148Y659D02*
X185Y659D01*
X1085Y659D02*
X1121Y659D01*
X1145Y659D02*
X1182Y659D01*
X88Y658D02*
X125Y658D01*
X147Y658D02*
X185Y658D01*
X1085Y658D02*
X1122Y658D01*
X1144Y658D02*
X1182Y658D01*
X89Y657D02*
X127Y657D01*
X146Y657D02*
X184Y657D01*
X1086Y657D02*
X1123Y657D01*
X1142Y657D02*
X1181Y657D01*
X89Y656D02*
X128Y656D01*
X144Y656D02*
X183Y656D01*
X1086Y656D02*
X1125Y656D01*
X1141Y656D02*
X1181Y656D01*
X90Y655D02*
X131Y655D01*
X142Y655D02*
X183Y655D01*
X1087Y655D02*
X1127Y655D01*
X1138Y655D02*
X1180Y655D01*
X91Y654D02*
X182Y654D01*
X1088Y654D02*
X1179Y654D01*
X92Y653D02*
X181Y653D01*
X1089Y653D02*
X1178Y653D01*
X92Y652D02*
X180Y652D01*
X1090Y652D02*
X1177Y652D01*
X94Y651D02*
X179Y651D01*
X1091Y651D02*
X1176Y651D01*
X95Y650D02*
X178Y650D01*
X1092Y650D02*
X1175Y650D01*
X96Y649D02*
X177Y649D01*
X1093Y649D02*
X1174Y649D01*
X98Y648D02*
X175Y648D01*
X1095Y648D02*
X1172Y648D01*
X100Y647D02*
X173Y647D01*
X1097Y647D02*
X1170Y647D01*
X102Y646D02*
X171Y646D01*
X1099Y646D02*
X1168Y646D01*
X105Y645D02*
X168Y645D01*
X1102Y645D02*
X1165Y645D01*
X107Y596D02*
X166Y596D01*
X1104Y596D02*
X1163Y596D01*
X103Y595D02*
X170Y595D01*
X1100Y595D02*
X1167Y595D01*
X100Y594D02*
X172Y594D01*
X1097Y594D02*
X1170Y594D01*
X98Y593D02*
X174Y593D01*
X1095Y593D02*
X1171Y593D01*
X97Y592D02*
X176Y592D01*
X1094Y592D02*
X1173Y592D01*
X95Y591D02*
X177Y591D01*
X1092Y591D02*
X1174Y591D01*
X94Y590D02*
X179Y590D01*
X1091Y590D02*
X1176Y590D01*
X93Y589D02*
X180Y589D01*
X1090Y589D02*
X1177Y589D01*
X92Y588D02*
X181Y588D01*
X1089Y588D02*
X1178Y588D01*
X91Y587D02*
X182Y587D01*
X1088Y587D02*
X1179Y587D01*
X90Y586D02*
X133Y586D01*
X140Y586D02*
X182Y586D01*
X1087Y586D02*
X1129Y586D01*
X1136Y586D02*
X1179Y586D01*
X89Y585D02*
X129Y585D01*
X143Y585D02*
X183Y585D01*
X1087Y585D02*
X1126Y585D01*
X1140Y585D02*
X1180Y585D01*
X89Y584D02*
X127Y584D01*
X145Y584D02*
X184Y584D01*
X1086Y584D02*
X1124Y584D01*
X1142Y584D02*
X1181Y584D01*
X88Y583D02*
X126Y583D01*
X147Y583D02*
X184Y583D01*
X1085Y583D02*
X1122Y583D01*
X1143Y583D02*
X1181Y583D01*
X88Y582D02*
X125Y582D01*
X148Y582D02*
X185Y582D01*
X1085Y582D02*
X1121Y582D01*
X1144Y582D02*
X1182Y582D01*
X87Y581D02*
X124Y581D01*
X149Y581D02*
X185Y581D01*
X1084Y581D02*
X1120Y581D01*
X1145Y581D02*
X1183Y581D01*
X87Y580D02*
X123Y580D01*
X150Y580D02*
X186Y580D01*
X1084Y580D02*
X1119Y580D01*
X1146Y580D02*
X1183Y580D01*
X86Y579D02*
X122Y579D01*
X150Y579D02*
X186Y579D01*
X1083Y579D02*
X1119Y579D01*
X1147Y579D02*
X1183Y579D01*
X86Y578D02*
X122Y578D01*
X151Y578D02*
X187Y578D01*
X1083Y578D02*
X1118Y578D01*
X1147Y578D02*
X1184Y578D01*
X86Y577D02*
X121Y577D01*
X151Y577D02*
X187Y577D01*
X1083Y577D02*
X1118Y577D01*
X1148Y577D02*
X1184Y577D01*
X85Y576D02*
X121Y576D01*
X152Y576D02*
X187Y576D01*
X1083Y576D02*
X1117Y576D01*
X1148Y576D02*
X1184Y576D01*
X85Y575D02*
X120Y575D01*
X152Y575D02*
X187Y575D01*
X1082Y575D02*
X1117Y575D01*
X1149Y575D02*
X1184Y575D01*
X85Y574D02*
X120Y574D01*
X153Y574D02*
X187Y574D01*
X1082Y574D02*
X1116Y574D01*
X1149Y574D02*
X1185Y574D01*
X85Y573D02*
X120Y573D01*
X153Y573D02*
X188Y573D01*
X1082Y573D02*
X1116Y573D01*
X1149Y573D02*
X1185Y573D01*
X85Y572D02*
X120Y572D01*
X153Y572D02*
X188Y572D01*
X1082Y572D02*
X1116Y572D01*
X1149Y572D02*
X1185Y572D01*
X85Y571D02*
X120Y571D01*
X153Y571D02*
X188Y571D01*
X1082Y571D02*
X1116Y571D01*
X1149Y571D02*
X1185Y571D01*
X85Y570D02*
X120Y570D01*
X153Y570D02*
X188Y570D01*
X1082Y570D02*
X1116Y570D01*
X1149Y570D02*
X1185Y570D01*
X85Y569D02*
X120Y569D01*
X153Y569D02*
X188Y569D01*
X1082Y569D02*
X1116Y569D01*
X1149Y569D02*
X1185Y569D01*
X85Y568D02*
X120Y568D01*
X153Y568D02*
X188Y568D01*
X1082Y568D02*
X1116Y568D01*
X1149Y568D02*
X1185Y568D01*
X85Y567D02*
X120Y567D01*
X153Y567D02*
X187Y567D01*
X1082Y567D02*
X1116Y567D01*
X1149Y567D02*
X1185Y567D01*
X85Y566D02*
X120Y566D01*
X152Y566D02*
X187Y566D01*
X1082Y566D02*
X1117Y566D01*
X1149Y566D02*
X1184Y566D01*
X85Y565D02*
X121Y565D01*
X152Y565D02*
X187Y565D01*
X1083Y565D02*
X1117Y565D01*
X1148Y565D02*
X1184Y565D01*
X86Y564D02*
X121Y564D01*
X152Y564D02*
X187Y564D01*
X1083Y564D02*
X1117Y564D01*
X1148Y564D02*
X1184Y564D01*
X86Y563D02*
X121Y563D01*
X151Y563D02*
X187Y563D01*
X1083Y563D02*
X1118Y563D01*
X1148Y563D02*
X1184Y563D01*
X86Y562D02*
X122Y562D01*
X151Y562D02*
X186Y562D01*
X1083Y562D02*
X1118Y562D01*
X1147Y562D02*
X1184Y562D01*
X87Y561D02*
X123Y561D01*
X150Y561D02*
X186Y561D01*
X1084Y561D02*
X1119Y561D01*
X1146Y561D02*
X1183Y561D01*
X87Y560D02*
X123Y560D01*
X149Y560D02*
X186Y560D01*
X1084Y560D02*
X1120Y560D01*
X1146Y560D02*
X1183Y560D01*
X88Y559D02*
X124Y559D01*
X148Y559D02*
X185Y559D01*
X1085Y559D02*
X1121Y559D01*
X1145Y559D02*
X1182Y559D01*
X88Y558D02*
X125Y558D01*
X147Y558D02*
X184Y558D01*
X1085Y558D02*
X1122Y558D01*
X1144Y558D02*
X1182Y558D01*
X89Y557D02*
X127Y557D01*
X146Y557D02*
X184Y557D01*
X1086Y557D02*
X1123Y557D01*
X1142Y557D02*
X1181Y557D01*
X89Y556D02*
X128Y556D01*
X144Y556D02*
X183Y556D01*
X1086Y556D02*
X1125Y556D01*
X1140Y556D02*
X1181Y556D01*
X90Y555D02*
X131Y555D01*
X142Y555D02*
X183Y555D01*
X1087Y555D02*
X1127Y555D01*
X1138Y555D02*
X1180Y555D01*
X91Y554D02*
X182Y554D01*
X1088Y554D02*
X1179Y554D01*
X92Y553D02*
X181Y553D01*
X1089Y553D02*
X1178Y553D01*
X92Y552D02*
X180Y552D01*
X1090Y552D02*
X1177Y552D01*
X94Y551D02*
X179Y551D01*
X1091Y551D02*
X1176Y551D01*
X95Y550D02*
X178Y550D01*
X1092Y550D02*
X1175Y550D01*
X96Y549D02*
X177Y549D01*
X1093Y549D02*
X1174Y549D01*
X98Y548D02*
X175Y548D01*
X1095Y548D02*
X1172Y548D01*
X100Y547D02*
X173Y547D01*
X1097Y547D02*
X1170Y547D01*
X102Y546D02*
X171Y546D01*
X1099Y546D02*
X1168Y546D01*
X105Y545D02*
X167Y545D01*
X1102Y545D02*
X1165Y545D01*
X107Y496D02*
X166Y496D01*
X1104Y496D02*
X1163Y496D01*
X103Y495D02*
X170Y495D01*
X1100Y495D02*
X1167Y495D01*
X100Y494D02*
X172Y494D01*
X1097Y494D02*
X1169Y494D01*
X98Y493D02*
X174Y493D01*
X1095Y493D02*
X1171Y493D01*
X96Y492D02*
X176Y492D01*
X1094Y492D02*
X1173Y492D01*
X95Y491D02*
X177Y491D01*
X1092Y491D02*
X1174Y491D01*
X94Y490D02*
X179Y490D01*
X1091Y490D02*
X1176Y490D01*
X93Y489D02*
X180Y489D01*
X1090Y489D02*
X1177Y489D01*
X92Y488D02*
X181Y488D01*
X1089Y488D02*
X1178Y488D01*
X91Y487D02*
X182Y487D01*
X1088Y487D02*
X1179Y487D01*
X90Y486D02*
X133Y486D01*
X140Y486D02*
X182Y486D01*
X1087Y486D02*
X1129Y486D01*
X1136Y486D02*
X1179Y486D01*
X89Y485D02*
X130Y485D01*
X143Y485D02*
X183Y485D01*
X1086Y485D02*
X1126Y485D01*
X1139Y485D02*
X1180Y485D01*
X89Y484D02*
X128Y484D01*
X145Y484D02*
X184Y484D01*
X1086Y484D02*
X1124Y484D01*
X1141Y484D02*
X1181Y484D01*
X88Y483D02*
X126Y483D01*
X146Y483D02*
X184Y483D01*
X1085Y483D02*
X1122Y483D01*
X1143Y483D02*
X1181Y483D01*
X88Y482D02*
X125Y482D01*
X148Y482D02*
X185Y482D01*
X1085Y482D02*
X1121Y482D01*
X1144Y482D02*
X1182Y482D01*
X87Y481D02*
X124Y481D01*
X149Y481D02*
X185Y481D01*
X1084Y481D02*
X1120Y481D01*
X1145Y481D02*
X1182Y481D01*
X87Y480D02*
X123Y480D01*
X149Y480D02*
X186Y480D01*
X1084Y480D02*
X1119Y480D01*
X1146Y480D02*
X1183Y480D01*
X86Y479D02*
X122Y479D01*
X150Y479D02*
X186Y479D01*
X1083Y479D02*
X1119Y479D01*
X1146Y479D02*
X1183Y479D01*
X86Y478D02*
X122Y478D01*
X151Y478D02*
X187Y478D01*
X1083Y478D02*
X1118Y478D01*
X1147Y478D02*
X1184Y478D01*
X86Y477D02*
X121Y477D01*
X151Y477D02*
X187Y477D01*
X1083Y477D02*
X1118Y477D01*
X1148Y477D02*
X1184Y477D01*
X85Y476D02*
X121Y476D01*
X152Y476D02*
X187Y476D01*
X1083Y476D02*
X1117Y476D01*
X1148Y476D02*
X1184Y476D01*
X85Y475D02*
X121Y475D01*
X152Y475D02*
X187Y475D01*
X1082Y475D02*
X1117Y475D01*
X1148Y475D02*
X1184Y475D01*
X85Y474D02*
X120Y474D01*
X152Y474D02*
X187Y474D01*
X1082Y474D02*
X1117Y474D01*
X1149Y474D02*
X1185Y474D01*
X85Y473D02*
X120Y473D01*
X153Y473D02*
X188Y473D01*
X1082Y473D02*
X1116Y473D01*
X1149Y473D02*
X1185Y473D01*
X85Y472D02*
X120Y472D01*
X153Y472D02*
X188Y472D01*
X1082Y472D02*
X1116Y472D01*
X1149Y472D02*
X1185Y472D01*
X85Y471D02*
X120Y471D01*
X153Y471D02*
X188Y471D01*
X1082Y471D02*
X1116Y471D01*
X1149Y471D02*
X1185Y471D01*
X85Y470D02*
X120Y470D01*
X153Y470D02*
X188Y470D01*
X1082Y470D02*
X1116Y470D01*
X1149Y470D02*
X1185Y470D01*
X85Y469D02*
X120Y469D01*
X153Y469D02*
X188Y469D01*
X1082Y469D02*
X1116Y469D01*
X1149Y469D02*
X1185Y469D01*
X85Y468D02*
X120Y468D01*
X153Y468D02*
X188Y468D01*
X1082Y468D02*
X1116Y468D01*
X1149Y468D02*
X1185Y468D01*
X85Y467D02*
X120Y467D01*
X152Y467D02*
X187Y467D01*
X1082Y467D02*
X1116Y467D01*
X1149Y467D02*
X1185Y467D01*
X85Y466D02*
X120Y466D01*
X152Y466D02*
X187Y466D01*
X1082Y466D02*
X1117Y466D01*
X1148Y466D02*
X1184Y466D01*
X85Y465D02*
X121Y465D01*
X152Y465D02*
X187Y465D01*
X1082Y465D02*
X1117Y465D01*
X1148Y465D02*
X1184Y465D01*
X86Y464D02*
X121Y464D01*
X151Y464D02*
X187Y464D01*
X1083Y464D02*
X1117Y464D01*
X1148Y464D02*
X1184Y464D01*
X86Y463D02*
X122Y463D01*
X151Y463D02*
X187Y463D01*
X1083Y463D02*
X1118Y463D01*
X1147Y463D02*
X1184Y463D01*
X86Y462D02*
X122Y462D01*
X150Y462D02*
X186Y462D01*
X1083Y462D02*
X1118Y462D01*
X1147Y462D02*
X1183Y462D01*
X87Y461D02*
X123Y461D01*
X150Y461D02*
X186Y461D01*
X1084Y461D02*
X1119Y461D01*
X1146Y461D02*
X1183Y461D01*
X87Y460D02*
X124Y460D01*
X149Y460D02*
X186Y460D01*
X1084Y460D02*
X1120Y460D01*
X1145Y460D02*
X1183Y460D01*
X88Y459D02*
X125Y459D01*
X148Y459D02*
X185Y459D01*
X1085Y459D02*
X1121Y459D01*
X1144Y459D02*
X1182Y459D01*
X88Y458D02*
X126Y458D01*
X147Y458D02*
X184Y458D01*
X1085Y458D02*
X1122Y458D01*
X1143Y458D02*
X1182Y458D01*
X89Y457D02*
X127Y457D01*
X146Y457D02*
X184Y457D01*
X1086Y457D02*
X1123Y457D01*
X1142Y457D02*
X1181Y457D01*
X89Y456D02*
X129Y456D01*
X144Y456D02*
X183Y456D01*
X1086Y456D02*
X1125Y456D01*
X1140Y456D02*
X1180Y456D01*
X90Y455D02*
X131Y455D01*
X141Y455D02*
X183Y455D01*
X1087Y455D02*
X1128Y455D01*
X1137Y455D02*
X1180Y455D01*
X91Y454D02*
X182Y454D01*
X1088Y454D02*
X1179Y454D01*
X92Y453D02*
X181Y453D01*
X1089Y453D02*
X1178Y453D01*
X92Y452D02*
X180Y452D01*
X1090Y452D02*
X1177Y452D01*
X94Y451D02*
X179Y451D01*
X1091Y451D02*
X1176Y451D01*
X95Y450D02*
X178Y450D01*
X1092Y450D02*
X1175Y450D01*
X96Y449D02*
X176Y449D01*
X1093Y449D02*
X1174Y449D01*
X98Y448D02*
X175Y448D01*
X1095Y448D02*
X1172Y448D01*
X100Y447D02*
X173Y447D01*
X1097Y447D02*
X1170Y447D01*
X102Y446D02*
X171Y446D01*
X1099Y446D02*
X1168Y446D01*
X105Y445D02*
X167Y445D01*
X1102Y445D02*
X1164Y445D01*
D02*
G04 End of Copper0*
M02*